<mxfile host="app.diagrams.net" modified="2021-09-22T03:16:11.345Z" agent="5.0 (Windows NT 10.0; Win64; x64) AppleWebKit/537.36 (KHTML, like Gecko) Chrome/93.0.4577.82 Safari/537.36" etag="v0P9jmpsDzvv9-gCzsSk" version="15.2.9" type="github">
  <diagram id="R2lEEEUBdFMjLlhIrx00" name="Page-1">
    <mxGraphModel dx="2523" dy="979" grid="0" gridSize="10" guides="1" tooltips="1" connect="1" arrows="1" fold="1" page="1" pageScale="1" pageWidth="850" pageHeight="1100" math="0" shadow="0" extFonts="Permanent Marker^https://fonts.googleapis.com/css?family=Permanent+Marker">
      <root>
        <mxCell id="0" />
        <mxCell id="1" parent="0" />
        <mxCell id="FZKH2oXxmh9ng5c0v4WK-1" value="" style="shape=image;verticalLabelPosition=bottom;labelBackgroundColor=#ffffff;verticalAlign=top;aspect=fixed;imageAspect=0;image=data:image/png,iVBORw0KGgoAAAANSUhEUgAAArsAAAKeCAYAAAClAtMHAAAgAElEQVR4Aeydy5UkRbN1UQEZUAEdEAEZUIHRnTK/g57dIWv944sErQAKoAE69L92XTYc7POIyHdlZR9bK8pf9jxm7uGZ1VDffCkVgSJQBIpAESgCRaAIFIEXReCbF42rYRWBIlAEikARKAJFoAgUgS+97LYIikARKAJFoAgUgSJQBF4WgXe/7H769OnLN9988+Xz588vC3IDKwJFoAgUgSJQBIpAEXgfBO5y2f3999/fLrBcYufz448/fmE96aeffvry3Xffffnzzz9z+q2P/A8//PAf80z8+uuvb2tpA10rPUsFnSwCRaAIFIEiUASKQBF4aQTuctkFsV9++eXtoutFlQsoF1EuplxsJ7H222+/zel/6ZiL6P7+++/fLrd//PHHm170o6tUBIpAESgCRaAIFIEiUAQedtkFav6pgt/C3gN6Lr/o59vjUhEoAkWgCBSBIlAEikAReNhlN7/Z/fnnn9+Q5/LLt7B80+sl2DUYcv6UVPEtL3pW3xCfIl+eIlAEikARKAJFoAgUgddC4O6XXS+xtnmZ5ZvYb7/99gv/BIHLMH34/I/VzvkmWN7U/1qpajRFoAgUgSJQBIpAESgC5yJw98vu6t/s8h+Wrch/hnDuZZeLMt8C96K7QrVzRaAIFIEiUASKQBH4ehF42GUXiP32lW9vIS6p/K/HvOT67e85l1108M8Xti7QX29qG3kRKAJFoAgUgSJQBIrAu112+acL/htbLryQl95zLrv8m9/8vy/4vz1raotAESgCRaAIFIEiUASKwMMuu3wDy6WUb2/9X4/5TS5rXFL9N7v+B2bzm+CZLvjUkS2X6FIRKAJFoAgUgSJQBIpAEbjLZddvV/MCSp/LLBdevtWF+H/xMsfDv7flkY91/hdi6shvb01b/t8a5KP13wnL17YIFIEiUASKQBEoAkXg60TgLpfdrxPKRl0EikARKAJFoAgUgSLwbAjc5bKb37K+Z//ZwK4/RaAIFIEiUASKQBEoAo9F4C6X3ceGUGtFoAgUgSJQBIpAESgCRWCNQC+7a1w6WwSKQBEoAkWgCBSBIvACCPSy+wJJbAhFoAgUgSJQBIpAESgCawR62V3j0tkiUASKQBEoAkWgCBSBF0Cgl90XSGJDKAJFoAgUgSJQBIpAEVgj0MvuGpfOFoEiUASKQBEoAkWgCLwAAr3svkASG0IRKAJFoAgUgSJQBIrAGoFedte4dLYIFIEiUASKQBEoAkXgBRDoZfcFktgQikARKAJFoAgUgSJQBNYI9LK7xqWzRaAIFIEiUASKQBEoAi+AQC+7L5DEhlAEikARKAJFoAgUgSKwRqCX3TUunS0CRaAIFIEiUASKQBF4AQR62X2BJO6F8OOPP375448/9ljutvb9999/+fTp0930V/FtEPj111+/fPPNN19+/vnn2yh8AS0//fTTGya//fbbXaJB/7fffvvlXvrv4nSVFoEiUAQ+KAJPd9n94Ycfvnz33Xc3h/OXX355e3m918Xv5gFtKPzzzz/fXqLEy8NF5r0IX7hs//7772/Y39sXbFE72C2dhwCYsfeekT5//vyQ+iF2MBAH9s89L6Pov9eHQT5oGscz5vTIJ88xPhSUPhYCzd3HytfX4u3dLrt8a8G3RVxAJvECYY0nL0D0+XbJi9qUu3TMBZfDn5fmR3kBgAX47PkLTnMd/MCXeLlknkLYIl9TV8p64ci5U/voRR6f7kXEzIuRywO4XEtgZw1fq+sjyJOfcy92fLCgRpGVxI19z0tv77LCGvKZL2olx+i1lm/1QQYf9V2/aYmf/cNzqzpK/bNP/GB0Ce2dD/hO7WZe0oaxb60n7737YD1rAJtgQz48O27txx5+2lrVomuzPUXflHHsngGHe9MtbLE/rSHqbNbxvXN3LUb6vlX/zJ+TiyN9e/6C1ar+92QuXbvG1taZeakv7yF3t93FQWURzG9TOUTYJBx0SXkxJjFJ5xw8KUcfO/rARrU/+a4dU7RbG+hIN34RYxJ+z7lcnzJ5uaA4WZeONvDUpZztkbx8swVr/aAmeO5B1IsXh+xfYwu/zzn0rrH13rK59071xZrImqdmyYPYcQnYIy6y1gd8c58jb81g50jfni3WyOd8lLFuch+5duuW/XltLFvnAxiif4uI75qzakuv86fotj4yF9YBZwaxQfhqX/23arfwU/+sRee32iN9W3LMi8cez63W2E/gfgkRY36QUpdnwKNyB15778a92I7q33NtT0euHelL3lWfXFj7q/Vbzs3z9hTduUftnyL3bDyXVfwJUVAwFCMX3kyk8+ceJFPPCS48lIVNTiG46c81zot2bt5rNvS0z4sV/7bolra2bHy0eTDZw+yjxXNrf30pXFrz+HPuOXCrGF4ht9fs2WvOqr0cXHIO4guxPJquwW/l6zX6kH3UWeO+XcWwN2du54c0Pihfcwbs2dxaW70vt3hX87eu/2v0PbL+rzlvH1mjq5xdO7d9+7lSM8UPsPxKjYuqRJHyaXCCzqcjNg2J56HvtxN8GnGeFtlJ8DIvHzKSn0ZZY95virwAIsec30TnZp5+qZ/ES9hW1vUcgwFE7KzzyTgJ/5SzZd3DE3+Q4dG39F1d6Su8+qi8umnn4aStxAG/IOJDH3JblHLwKcsBadzMp0+M97DXlrHCTz/9oQ8xL+a02E25oxygY+Jn3bEGXtjnkRxb68QiTvhlPRJ/UtajOuCdlDrgO6Wm4Zu5RY+xTD0TN/ODP/bTr/Td+LRnLI5dRw9P+q/OtGOdpN30nbyu9i664BN7dWe7l1v5MjZ8QWZFWev4hJw+W4NisIppYk6tQsmLPuLhIbYVwQN+kHbhhxIPa/9t4a8f5Io4zBFtxjt9ND7E4dM/9OgDNvXDWkg57adu7ScfeqxX4slcqB/fxQveLd/1g3YSNvUdn+DBHn1161eOmYOPJ3OjPuRdp78i/PV9B6/xJm/WI+vWPjxb52rmnb744r9EbRIr6+KJrSMivhWOKYdOYyEu7JobbV2bO3zFj3zUjU0ocdiqf/eosuTjf//3f99yZ5yph/4KT+zBv7efEiNqQpvqs870fQtD1lMePeecH9jDlhgiT1wrOqpR1tEF5sSP7mem/zwBbuQthUTwAAIYJIikAC4k6JpjLD8yJFteeAAzC0I5Wm24oSk6i9VkzIJw7LobwgNG/WwAHmwgYyyu23qAuIGYn7qYw69VcRm/+mj1zQMTPxIT1pGT6OsrNrClP/CKifzZakscjEfbjlPGvmvyErd+gdeWD9PmCi9toBtd5AGiPsQRn43bGkM3tNK5lwP0YoMHnYkZunJsndEih02xgBcd8qSv5BA/WQcn6/bN4b9+sEa8rqmHZeyogzE88MpjbasPG/gD4Qe8kL6aHzAmPlr0m8835qhHY8EP+JXXvmNiYB0+fLQm1EfLHOtSjsXAdfKM78wrmzr1R13ZwreXW2TFFP30tZt6xExsHMvrWAyQFQP6e7XKOn5iG3n8YEwdrgibxg8vdty/8LO+JQsvssiRT8YzJvIJMZ/r6NyKdxV/+u76tKU+/CHHs17dB+jSd+qcB37jNhbxRw94rmjiB5+1DT/46JfjvdzAiy/GBk5bttF9VI/oci8TP3E7Zs0YscuaJMZbZ1CuIwN2qVs9s8XOVjzwPjJ34McjXVL/iV/Wl/io2/EWnvBZk6v9pB5adVkjjq2zIwyvPT/AzDrHFv2MPX09qtG9cyD1PEv/nx1yY49IosUImPRpTTJjE8wGpliQkSwCDx/W5ZfHFp2sr4hkTjl4PRxZ00/ktauu9JO5OZZPuYzBuIyBtb3CSj/QO33zMqHNXJ+2pq/wbmGkLQ7fJPzRX+PLdfvm1/FWO3Wk/8jM9akHO/jIoSOmk4dx5mjispUD+ViXJmZzrL/gik0OD+fUQcu6emfMc6zcOTWNXWzwgM0kDiX8I8akVd7AN+NJ/rmXjNXY5hhZ/fKATX30M1dzDAa81JPQpz1keaSZH+dPyS3+eSYgt5WXFWb4BD+0hYHr+mS7Fz88W36s1vCNXEvonjl3LXFkjrzr4ypGdKVu9dCmrlX8ybvSnfit6h6/sg7SHroTQ+1rc46dpxVbzhJ0zDMl9U47Ka9O9Tme57Xzp9aj+VCOuLNGnZ8xzjF8idlc9/xgfo/wh32yRY/MHbnhSbqk/okJuaSJzxzDm3iuxrmfUvct6j/1nVujk5/3xcQR/afUaPpBf2Iy1997vL4h3sArCkQQOUQAIjdKgm4x0UpzDvm5+eVlnvUVreRyDln9RF676vKiwIFAAXDo7h04GQM60O0FhP5c1w5r6QfzR77lun4TWz7q3MNoZUvflVe//ma78t115MCQ3OuXa+k/c3s2lEHPfOmSG3Vpg7GEf0c50DatNDGb45WMc+qgxSf1UjvUELWE3/g240Fm2pr6Mj5tzDllsMMhix/Y86W+yttqTj3Ipw1jNbY5PvKLdeylzhwzbz6zlX/6Kr/+2q78mrypP/vqsJ02mYdfn1a2cv2UWlUXuuljc0VzTdvYoL8lp8/wSPBqdxVjzlG71JMfjIhPXfrgWP22qce5xAcfGCfNubQHX/ruu8Zvpdn3eVFe6UUfPOCWlHqnHcYT/zkWi9RJ3/nEaBUjc0mJE7Jb56r6p6z2jtZTLvvTx1yjv1qfc7fK3aqOjOvU+seXxNR41LM1Zn7GMcezdtS18jt9mHghl3PXnh/TL3QzN0kMaKX0g7m9c0CZZ2r/farc0DNAShDnJ50EfR5QuCHYAApxGAH2irhAUDArQs6Ljuvw8ikUmsnWrryMvaitdMlnDPAn+e0U64lH8tDn4JrrR77luvbFa+rfwwje1KUsORO7iYs8tCvfmccXNzL+TR3T5lxPG/R5wRIH+aCVfPHyguMwyNqC55QcaJtWwr+sq4nhSsY5ddCiQ734l5cEsGNu0rSV63MvIJ81nbzZhw+swA9a5Q3f4FmRuXTNWI3NGnQM35RR1nbmKsfmWt7ZTv9nvuSffjI/ecHUM0G5VYt/PEkZ4xEGR7Wa8WNj7pG0u1pzb4BN5iHl6ONzrqddZKmDJNatC2yk/tS1in/q2cPPus89QZzW7JHvrOMb+cQv4sCnFSV+yEy/EhPk5zjlWZ9j627adj7xRxZ/pdW7hnVq9OhcVb+6aDNHR+spl32/qfaDhGvggs5H5m6VL/w5t/5X9TrxmWPsJJ6r8ayVxIq1JHSRf+gIw2vPj+nXrFn9MmZaadbo3jmgzDO1/+yuG3vFhphJTRMcQl6kmAc45jjkeGYxo4s51iwM9eXmZ44xvBDFwcHhgYcsYw9TfMiD3Q3tOnoy4dpctRQtxYqtfHESG8+eHvyCB7viQpsY6pu2p+/IE6++44t+WLz6Jh7qspD1UVtzrG7laLGRmx8ZfNMmMjzaUMf0X5uupw1i4YHwHXvGBkbogrA5a4v5U3JAXVg31BBYYkcyHuzjIzYzbvhmDPDBwzxEDOBwROfUtDW+wg07xIU+CPuMIfMmjo6Jc0VgY41iC10zfsbmSVt78ZKrXM/ciYH6sEmsxoKc/jA385UxHOUWWWyrGwysqdRjzO4fMcsYEgPW8dH1o1rN+LE790j6wlqeD6xpb86nnDWZec48GBMtZN3Ln/UMD9ha3/AbPxipQ/sr/BIfc04+IMa5ru9pLzHD5l7s+kGb+KEXO5nz1Av/HM/cpD74PQvSpv1T6hEe64z6YYyf5oM+D2tgTj/tOqbNnE2/XDe/4LeFIRjwuE+sFWQfmTtiJl/4njnDH+a3/AefGa/nlDGJD3yn4Dn1IQNG7vk3JX/9uLb+ict4wXzW5BzPGp1+zZpNX49qNGtqdQ6krmfo//Mmv7E3AOWhN1X7UmLdw9BDijkeXqwWG/KCSSF7AKReixxZCkIedKQ9ku0arfYoQki/vfRQDPLYbm0keVlP3yn6LRljwBdiwz6x8GiP/vRt5Ttz2EEOPbnZ8Mc1/JwEr4WPPL5od9qesoyRFTvwxl7aFBN1r/xXXuy14wHhfOYTPfiJLA99YsFO+n9KDjg8iBtZ4vHQwx404zGGxHPGgM/oYx5SJ3M+2PSgfWP66wf+6w/4YQ/Cj8Qgazrl7Zt37M28gos+zzXlbfFRXbS+3JCTwEI7xAofDz5PyhiIzTwjb6zoEANaxhL2XcMu+UPWfMlHO3M7eSem6Fj5jC79xrY1AI6S9ec68YMxvHu1OuNXNzF5PmkDPczPNXzGFvFtkZjRQtMuc3t1kTnGx4wPWdeP8r7CB/nMObGgT5r7afpOTSAjNrSMs27QlfjRh9TNfpp653jmZqVPPzy3jIF21iP+4au1O+sx9zhrYAu/GNM3n9OucTGP365rK9fxDZ08K8K2/NrMvfKI3OEXcRAvsZg/5i+pf3OpLvExb3Ns/MxD+CEWjGetvDHFj3l+kFt04Qe0hyGxwstD37OG/rRrXPjGmna1NdfDxbfurFHG6LJu3Odb+3jqe+/x3S677x3YLeyzcUgkB6jEHAkn8acSxXEO/6l6y3c6As+SAw7KPJyJgMMuL0unR1XOZ0CA8+BZ8sdZtXVReQas7u2DL/W0w0v5a8YksXjm/i1y97XX/zPn9719e7rLLofSs7w4/CSTF1U/gecFeJVEZDhk+fT0CgetWKxifda5e+XgGizmxYj64APVvAA/K6bv4Zd40z4jzZy+h4+cMX7r9iic7h03+s+NBRz4QAkWEOc0Y7+Neo/c1OZpCFyTu/eo/9OiKtezIPB0l91nAUY/uLD6awoOX76F48J7RL6g2YRHF+MjXV2/DIFnzAGXWmqIWuKhtp7lw91lKH/dUlyiyKO/GnwvNDhn8IFvx75m8ssF9xeYkCMvv18zNs8e+zW5a/0/e3bf379edt8/B/WgCBSBIlAEikARKAJF4E4I9LJ7J2CrtggUgSJQBIpAESgCReD9Eehl9/1zUA+KQBEoAkWgCBSBIlAE7oRAL7t3ArZqi0ARKAJFoAgUgSJQBN4fgV523z8H9aAIFIEiUASKQBEoAkXgTgj0snsnYKu2CBSBIlAEikARKAJF4P0R6GX3/XNQD4pAESgCRaAIFIEiUATuhEAvu3cCtmqLQBEoAkWgCBSBIlAE3h+BXnbfPwf1oAgUgSJQBIpAESgCReBOCPSyeydgq/Z0BPwTzPy1Ov7aHG2pCBSBIlAEikARKAK3QKCX3VugWB1XIeCf8/RPPvbPK18FZ4WLQBEoAkWgCBSBQKCX3QDjHl0ucvx9dr69fBbib5Dj0/fff/8sLt3Fjz///PMtxu++++7tG+O7GLlAKTXxzTffPFVNXBBGRYrAzRF4xvPy119/fduvr/Ybp2c9H18V75tvlio8C4Fedr98ebsIcfn45ZdfzgLvVGb0fvr06VT2u/FxySVODhPoxx9/vJutcxWDERfwe3yryzfGxP7eBN5cvCFy8MgPQGDAcw2Rm3vuky3fPn/+/K+63eLr/Gsg8CznJWc29U7d8zzysstFlPOQy/+96VnOx/fEew/jR5175Jz3w7O9l9kDz/D+3MvRKWsPuez6TSKgPSOx2fmWk2K7B3Fg3Us3/vpN4dFlnTi5OBArly028TMQfujb3OjExNqlBO73fmFwQFHbYLtFrBEb8YD9Ua629Fwyjz1enNderm+9T07BjXipV84Q+O+5j1bYHuV1JXM0Rz7Qe01dH9l45Do5IUc87GVq+5o8PcN5aUzsGfx55H4ld9jEtufivfJJnM9wPr433uBLjld78tpz79T7Dx+mOBt4T+y9S+5VCyu95mWFy4r/mecedvukkJ7xssvhfM/DlUKngO9NvGj2DmRfQvjBIfoIn06NmU2OfxAx2Hd8zUbj24LUd6pP5/BxIBxdiogRPmhe6M+xdQkv9qjDawgMr90nE6NTcKNOvaTzArhn3U7/wGs1dw2OylIP19S1ep6hJSeec3yoIrZLST2Xyp8qd3ReEpMXjjyfTtV/Kt/qgsVeE0P2iP1TdZ7D9yzn46Pw3sNmKxfXnnvY5AzjLNki8uyHjuxv8T96Ht+ufYc82udpbxv9yXnlmELaS/aV6r96cV6cYFx6HwTudSl6n2hub5UX+Aqj1dztrR9r3PLvWPIyjtWL9TJNlboEgWc5L7lEvMqHnr08PMs+3/Pxnmt8cAKD0vshcDf0+XTCN0okmE/7fJLOZLPOgc8a8254Pj04R5951v3UI1R82pWP9dQhjy2fqvyVKXx+UvbbKuXzsuinK9eQX32yYc7Y4KUv8WlVu7TYg4gFXuyJAbGs9E9+fEcWfvRLHt6uT3+3YkUH+pAHJ/SqG3/0X8y0t2ov1YVubIqf3+SlvpU95lJWv5m/tr60Bwb6lniAFzYkfMdv63WuE4tY7tUCeswdMtjOuLSX7VZ94597EL1H3/Bu6dmqHX2whrGx8jVxg4fHvUb/HNyUm3kR90vOiS3/zJff8DnGX/cw+z3rQExstzAlDnxe5XjWfcaK3lxP/cxLM/cTd/lmO3Vn/SVOeR5gK2uAuLYIHfc+LzNP1oV7Sr+Yx2fiAJu5Ts6VBQNwhi7BR5uz1ba5oYUyd9i25qdt48y8TxusyYd+87aXM/lPrfPkFzPmyLWEbfS5TosP0hbe7jMw4EGPuokt61Nde+3EA308zNPil3R07smXslv70cvuJXvoFHz1JVtsgQ9x0Rf7c87IrbzoE/qhtMVvC56R7nbZBVhfBLl5BYEXr5vYQqCFHLMxkaWATBjrgAnYFCPr2JoJ1I66KEgInRY0idKmG0m59B87ySsPLXweICaceXwkRvxDHn+NVznmsG8M8G8RWMKPDchDAFkIP1xnjn5ikv7PWBmzbpHiB/LGxTz4a+vN4MaPc3XJD0aQcTlm3XxNk2CH3/IiCz90TX1NO9afeJhnx/B7UIIR64ytuXNrAezJt/LEwnhFe/UNbjz4xGMNnavnlNohZmxgzxykHf2kTdrDTRnwh3ypiIvr5AHb5sk9Au5gSX3oW+6J9ENdK/9yTn/RyZP7JvXRV6f+4qe1bN275p5Th7lzDD+2JeXds+jGFwl9PMStn9rSr4xLOdqpW9+s93kesI4MdKSbuNTjPkLu3D2CHuyuiJjNE30eaj/3EPLUhnVL39pgLusGO/BL5+Kj3KpFb+qGhzE28RtfiMVcTdsz79MGsrl/tHWUM/E7pc5PwVt9GZP1eIQ3PpMPMECePrlUnlgytxMDxxNLsEOXBLbiw9zeuaeM7VFe3BfWvnsIfKG9fJyCr37MNu2i55wzci8v+uT5g10wII5npX9Ozxt6SAJzgwoEc1uU/CYoeXN9FuUcpxwHWBZwrmU/ba78T97sk1z0W7S5ln148FOa470YkJn8Fht+r9bZVMisKGNlfdqe6461tdLp3Lm6OGwSF/SQazfR1KcdWg8vD71cm/2sH+NJnlzPefor/onvlOfwnXGpd+ZyjmfMjNG/oq36XtWwcYDbpC09k08dzq/y51q2ytEm7eG28gmsPFDVuaVvhePRnjjyb/o7c5e+rPx3ffrmS8h19Kavswam/MRi+pVjeWes2j7SfSQ/MVIv7aPOy+nDCl/ilOZ+dp524jHH4qGM4y185aOdeXbf5h7N3B3ZTt30ubARG++LPZp4zXH6sNIz+Sfec33vfJwxTttznTH6j8i8yDfHU698tJM31+hP2ck/x/P9PfVNvOZ44jvlHU+7zKeu6fccq4d2rnG+eRazTp6O7kGp79H94wq5wCMBppUAKgsSUACLomc+E6C8srS5zkWITYwOigaQE/SUY41nRdhBjhe2PsCn/fR/Jc8c9okDeex4SDFvcaibsQRvjuV1fbaTn/XEZK5PfVuxomfFi27pHDzO1YUdZJJybupLPvpsevJHPaSea+pr2jD+nJ9+ZS7gy3xcWwvYynykH9jhmaTPtNJqzrUtPawjt9onrGWu1LVqt2zv4bbyKefUmfZS3znnhLpok1If83OMP1l3KZu+5jz9WT/al2/Kzho4kidf6KD22AvsDz9AamOrPdKtr2K1t9emjUedlzNP+qw/M28zZj5AwwNu6KIvTd6p27H4KLdq0Zu6lcVmPvIc2Z42eB8hiy7eU+APHeUM/vQfHdjeoslvHPLP9alvD+/JOzFgjP4jAgv4eGdAfAggv9LUSwxb554ytivZ9GnigVxicm4+Vvr0JdsVX9o9OiP38qJuaoo+eXpmOq6QC7wXBFppFiQXFApJnkyA8srS5jrg5iUZPW7ilKHvoT/nKS504hebIG26KfRtyq7G2OcwIS7Iizwbi7W5Yed4bpZpY/Lrvz7O9dQn7ypW7CQv48Qix9qavuX4XF0cNhw6SeTFb2unvuTLPr6hS7lr6iv10p94MEd+wVzK+mQu83FtLYAB+le0Vd/WsAc7ssZBPUza0nNUO2COf0ekP7OG9nDDJ/Z5EriCJ2Q8uZ76zjknTvUv9WM385x+0N/ClLVZ1zOWKTtr4EgefewB/F3tselrjk/RnTjs7bXUm/17n5fpH3Y5F5iTZt4yZng9S6j/XEN+jmfuHNMe0cyzdbjao6fY3rKHPvaSe+coZxO/ide0M/kn3nM99R3hnbwrDMhH5nb6lmPwJrfwgwd4S5nXo3NPGduUZc4acH2OmU9Mzs3HxFc7sz2yu3dGHuUFW/jNhRlcT6n36d8jx//s/htbpaAAAKJw2GRZkPR9EQuqY1rWSQREm/yAS3GdQhaFiaDlcmURoJvHDaNNi891/F8dQMTpvJ+S8IsN6iUOW2wsx6zPMWvMbRH6WNc//MG2xFpigj5koKNYp23xV7fytFDGJo/tubqMw0OHGIjLOKc+7dDCyzoEvxuPcdbLufX1pjB+GD96IHzFR/INYRt74sNc5iPxgoc1/ZY3x/TNHevWJv1JW/UNH3hYM/g4X6ypa0uPsSPPoy/0IfKHndwD4pT66YMRmIEfPOjYw02f1Kcv4myd6ov6PEfOOSf2/H1pL2UAACAASURBVFPf1I/MzGXGrP/6S2ueZ46NRXlwBldsrs5P5LEtKS8Wey+fiaM6bLd0uz7l9/aaMraPOi/xidqEwASsfB8xxxiMpcwH82IL9sg5hv9cfHL/a88284xeiLzju7mkjt0DW7blVS8tecK2a8QhBns5gz/X0UX8+pc27O/hrT78kRL/I7ynbfzYOx+n79rk3Ek5520TW2sc33nwEb30V5SyrM/96FjZiUn6TK7ZJ8hIe/gmfvLbale/tavuvTMy9a72ATbwlXrdw1Vf3ru922WXYgEEkkQhCLoHEHOswWMRkmAvEqy5MWkZsw6pizkf9PjCnaBiC1l4PURIOglijtYiQA+EH2wy1pmzOKZudcjnoWTBYpe+m4U+BQY/D3Z4HLO2Iuzgj3HQRw4iJuRZW+nbi3VlWxvmivjRLzb44lr6eokufNN/bGRcK31pDyz1DVnqBH3QNfWVNuh78Jlr8EG/pA/iM/N7aS0gBwYzH9q1XdU3a8jq88RH2WxXevZqB1nWc39S51tkTvAJuSPc0IM+44cfTCTnb3lOgJP+ZVzYnOOZZ/3KdoUpMWCHx3hmLJxl4oMOa5C9stoXU16stWNc+KYu2kl7ut3z+kULaYuxNYc/9CdlPcJv/LTI8NC/9rw0XuMnd54Nnjf6OGNmbIznYL+FDzG7NvHQlnGzzpw4Me+emn7CyzoxugdSP/y+w+DJs3UvZ5fU+R7eYkkLzX0jBuiYeK944eOhTpAVAzF2LbGgz56SVx2MebdPbI/OvdQ9ZVnTDliufJwY7+UDffhrTdBH3nqmPsQ2/Zp+MJ529+5S+G3uZl60gw/EujpL5HmW9m6X3XsGSMI8JLXDRvZQcO6VWgr9WeJjA3yE4r5V/omVA6b0sRD4Gs8JMsQLiD2aH/6Zo4a/ln37TLF+Defls+DthdaLYJ5YXJy9EDvPJY5367PTHr7EdOnd4NozErw/An7k993f4CTx3ERNGT+BzAvwsxfwOf49y2UejF8Z51VO/PS7Wuvc8yLwNZ4TZMMPZ3mxtYbzAvy8mbvOs2e62H8N5+Uz4c3llfvAiriUcbnzIsxeYDwvwCvZR83NMwu7e/gSwzX+T3un3qXAEr/AL8+ZR+F0iZ13v+xe4jQHSP56hk/O516YL7H7XjIUM0XJs7WR38u3V7cL3vkrqVeP95Xi+9rOicwdL33ORc8NzksuvF8DGTf7tnR/BD4K3pzlXNLcE9QH71Yvv/dH6jIL98T30jMSHMGPb8s/Cn3Iy+5HAbd+FoEiUASKQBEoAkWgCLwvAr3svi/+tV4EikARKAJFoAgUgSJwRwR62b0juFVdBIpAESgCRaAIFIEi8L4I9LL7vvjXehEoAkWgCBSBIlAEisAdEehl947gVnURKAJFoAgUgSJQBIrA+yLQy+774l/rRaAIFIEiUASKQBEoAndEoJfdO4Jb1UWgCBSBIlAEikARKALvi0Avu++Lf60XgSJQBIpAESgCRaAI3BGBXnbvCG5VF4EiUASKQBEoAkWgCLwvAr3svi/+tV4EikARKAJFoAgUgSJwRwR62b0juFVdBIpAESgCRaAIFIEi8L4I9LL7vvjX+g0Q4G+e83e6+Xvdz0L8zXX+Bvtvv/32LC49zA/+3jqx//LLLw+zeWToxx9//CpzcYTLJevff//9F3L8KvSK9UqOPn369Cop+lBxcNb88ccfH8rnr8HZp77s/vnnn1++++67LxTPe5KH4efPn69ygw3wDJcALiH48WobkgvvexO1Ss1C1M3XeNkldvbKe+5bzw4+dPDSp31P4oOYdfGeftzCNtiSW3LMOXLtuXgLn67V8Wr1ao74IoAcfbQPJ/j8nufHOfUE1rx7eK/yXIP1I84J3//UxtdE73LZ9Zs4CnqPfv7557fC8WDd473FGoVGISRZyFsvS3wkjimXOuyjn0/c6Lw1nYopF1x84HDHn0cSON3rxUj8p+Tg0ni5qBz57wsTPzjwbu2P3xbv6bUO4KXOqM/3IC6Y98r1KfGAET5Q45f4gQz53nrQS45ZP9pH8JEHfNrL3SlxncNjDOfInMMrtpwnKzoFn9br/yF3bb2u8GfuKEdbcs6bH+r8HrSl39o5Z+9yT8DP1ZcenIXuZd/lzFG7PLwXycEl72b2Nl9qoId4LqVbnBOnvCOM++jcujSOZ5W7TwWfEC3FsbeBSEgWpf0TVF/MQvLny4gCPPp10EpuOsFmIoZLNtPUxXj1IjvCFDk2pt/oEqv9lY1r5sjtPKhWc9fYSNl7X+rI25H/+GB+7/WtBAfqrNHEwQMbX/D3vb5Zvnc+MuZV3/PCl1jyHOURXmqXl6b7AxlxJ7e+KIjTftrIftaCfuX6Lfqr82A1dwtb6EC35yJn5FadHeHTev2/jFgXl9brKq+pi/xs5Wglm3PIUf/3oi39XBzF5RTbnL3sWR5qMok6Y57zU4IHG7SsXXJmYVMf0eUZoY2tdnUG3eqcOHpH6BN+X3M5V89Hae9XwQcI3PMgPjB98+VTLru3NsoGnQfQs2DKIbvazLfG4NH6niGm96i1R+N8T3un1iZ7yZcY/pB7X2S8ILzgMmf/nn4f6V6dB0cyj1h/FnweEes9bJxar/ewrc57v1duqZ99yr7NPcmFlN/MHX3wMt57t/fOad8R6wze5bLrwQvofGrzV8DMSxY4Lw7X85MVBcpByScuCjiLV350M886c6d8SsGGOpFTNxuEvi80/MRH9SODvRXBg5z+wpuxUtzqTxv4qy++QFnPl+zKHrqVg58HX48wRVfGzydAYzrFF3LCp09t2iZm6DE/ue4cPkKOsS82+IONFaXfie8tsJ2x6xt5TX+IJ2turpMXZWnxDTI+awQ9rGPXXGZMq/ids9bAI/W4voUHduBHnhj0k3nplPzCO/mMhbWtPXOKff0QLzARI3x3TMtYMhZrC//ci8YM71ZtqmevRU/WubzMgelWHidW7B/8gE7BBF72BfbzMVb1iIk8//M///P3GQEPeuShj8/wrs4aY2GdOoOy3tSnX+DvOfLGHD+O8Nmq11P8ndga+8zT5Lt1vZpH7NNP3//f//t/f+MuLLeu19zPmbMtbPV37yzQV1pqDb3Zd8wcfR740Mljrb0JxXmfdeta6mdua//Kv9fiB/jTev4SL/VrLSp/qh30WevopS/lGjGzn9C7RfCbf3TxWK/4KG6pR37y7NmID1t2wB+duWexK5knbGPPvXtKXWS8+k+7yqv2nqX9541xY48AGyD9VZeJ1IwFzjwEH6BZoLwULAJ5BZQkw0tS6fOQ/CxC7WSLDQoHG8ggn4e9RYKMRSkv/rC+IubRq3/4nbGAw1xTD/PwggM+UXiMszjlzVYbOZe6mJ+YmhMxduM4TvmVL2DAwxoyxMUGmaQe2iTiyjnGYIcu9VkvKYcMtvQTv62NW2Er7tYj+KPbMf7oL/Gzztj48TuxoR70EdmsEeRZp16VR/aoflMP9tWTNbyHh/kXY2KDXzo1v+ghHuzz4Dc5wqfcX+iDTzqyLx8tMSlL3rGBLQg9YC9hm7G1hV14oLk2x+o4atGvzuQ1pswjGEjEMLHKdeW3ckJ+tGuNug+0QQtPYsKcscrn+JSzhniyNtDB2JynX/jumrZsjW8LH+TwC5oxHPn7TPUqXtYo9cp+2IvLuK+pVzESX3LrvtnD1rxs1d2b43/90IZz2Mhasy5piRvdW7k0ZnXRTv3X4KFfYOC56JmET2KD3T076R8yxAyRU3CFyDX9uabdN6bFD+NNLPBNP9FLnzmJuPCDvc+DXXMnjy18yK/eEdee0djVL/O+Oo/05Znaf94YN/ZqFpYJ1swck2ASmgUgL+1cm2OBT5nZnz7NMUViIo9kcz03g/P45wHkHO2Me47hmbGlvH38hC9p6pqYzg2ELDrcNFPedeahic8cvzFFjMo5P+Oa4y19bFB4V3iqm3b6P8fwTJvKr3jzxbGS9WBXR7YzljmetbfKZ+qzP/VMH+WjnTFNm3N96p5jdVMv1BLyezTtzfG0n7qoXfDlxcHDWJpYqWfLn8z5Ea82ZosO7E6aMeU5xEsgbSOrfWoamvKua2fKz7F8ExPmp645hmdLn2cH8UDsPV/q9H3hvy3u6JnxJT7K2k7/5hi+9HfW5xyr9xH1ii3qlJoFJ/PL/MyNcdGuKGM84sUmcR+ReuSbeZnr8tHOta148BtfqJ0tHnRNmvrn+jl4wAtZo+QejKAZ89tk/Eg7Mf12KSaueanDhvbkx8bcG67ZGm9iwXnqexi+6ev0bavWkZ1re++IaWeO9VXfpx9zLN8ztv++Ld3QwyPQJoiYTuAoLA8P5nNt8jJe6ZvhUEwUIrrZkBQFn+6kWSQUM3PIYJ/+iqYcPPCDAYRv2KGgjUU9K79nrPJmi274ko50pU/K5dyRPDEQK9iBIbjkBlWnemiTZlxzvMJReV6S4IdNcWUNG7fAVp+1RztreM9fD3higI8n/ZyxTd2MkTmiIz17eEybM+ZT8ys25IKceCFifm/PHNmfsVNjYDJrbGJlHLTQ3tkxeafNrfHMp3x7Ma1szbk9eWyAsZdML4p5kUo/Zv1oS545Zh4Z5lfE+etFgboDV0j8kc2H+UlH8WH70v37bPVK7OwH/EoSL+fMg7hfU6/khWdFe9ge5SX16a9zR/HAdwqP+qb+PTyU2WpzD7B3eNwvM+ZT7XC2sw/QDdapL+2t4l75aby0Uu6j7Od68uMH8axors24rzmjTz2PVn6999zx2/VCDyfAJlh1c8w8STahHhqOc23yMl59ytKWLUXLJ2+LiUOJOSmLBH0klpZNMeNRhjblGKMTG7yckKWPPJtkxj3HyM9Y05Z9LgDwJR3pykJVDh3ECB3Js05ekFnpUidxrmKYc3M8cVRftviQeUHHLbBdxc4Bh0/Snr/wUlvknPzPWOZ41hNj9B/Rnp6jWps2Z8yn5jd9tA6xfbRnjuynXjFEJ7j4goFHm/IbBy20d3Zs1aa6tlrrbK7vxaSt/DCgr+AF7cmzTqzUO/aJy706/ZiYsK4teeeYefSKm3y2+I1t4vDSyxq28OUU2ovvqF6P/GX9lPMo/RSnW9crNsBIbGglbTo2LnG/pl698Kvb9gjbvbyow1Z/HR/FA98pPOqb+vfwUGarpZ6l+Y3mjPlcO5xJ5Bg5yBiZl7DhunOz9Vww/6z7Tpu8juc+ne8B+WjnWsZ97RlNzKecR+nPs/T/qYwbe0Sh8fKXODhJmIXh2HXmM6H0fUmYIMfIsO4BjCy2/ERNctO2NkgUa1uEjN+ipA4ODnSvdKKL4qLA4YPQQUHglxuZPg96VziwBtFm7OjWpzeGv36ol40DPrRHmIKXLy/U4It+MlZ+yxcwyA2a/sw+MYC3/s245hj5xD/14acYIAfW6BYD5njOxTZtqMvLBH6DDXYg/c348RebUOYJnhnLHBMPMpK+O84acI42bTJOPcawhQe8yEsz36fmF7/di+CEr7TEoP7Vnjmyr1/4T62iEyIHWbfGyTq8rOODuUnsts4OZJBnnXgyF/pha+7NtfO0iT9jMZWHWgUTcwLGaesIE+I+hRKTeR5gG9I3x8ZlLld2sJ9nGzxepHJvkC/Pv9Szh48+i417QP+O/H2WeiVesBAP6ooa9CwxzlvVa+KLjax9bIG5NrewPaq7tGEenFO38aArfYBv8oDN5FHf1A+fNUl81KBj9dJOsp7nvOMZ854dZWixb20TB2PIfeA9hDF7xXMiz8PURx/b6PIMQgfnhHaID38h4xID5uB1/Y0pfrCmD0zD55mTPmGLPQS/NDEyN+5JY5c/W2xs+ZR879W/y2XXzW5CCQ6QGAMu644tFOZZF0xAY0zxwA+QrNGHWGOOlgd5E0JCkZtk4pSh9SB3MzKHDR7WGOOLm0x/Uzd+IC8/xaOf+KSftIy1iw5xwH9o4oDMymbqxT/sqUv+qQsZ1rDPk36e4os5UZ4W/1YkrzFPX+Z44p86OfDEFpvIEktioB3W4YXEA35o2nyb/OuH+UUPOpAlBkn76p7+eigjR58aRA/9yUuuWHN9lTvXtE9r7rCBTOrBxh4ekxd9Ex9zpm+0q/zCpyytOGFDnJgTU/w+xb6xmidigtSJLck8rfJuHMhhFx5k6UOuK0vLs0XaBw91wEtuxYo+hB3mrDnty8c8eYJYc95Ypzx7VB7bfJG9KfrrhUgM8JiPqWuOxZn5LULXChvOUnGhzRexuo7w2atXdBz5ax7FhXblK3zqohUf8DcG5i6tV/e3OXef4o/1Ym5oiZs1bEPGwdh6wU9lXVdWfG1ZNz5so38PW/SK2VbdqRtedRvf1K0+/Ejai1m+lX7jXeFhjmgnWc/6metZi2AE7dlJWeMwZ+51eHIfZG2xtnUPSdvmFEyzbswjvMaFfsh6y/p6WzjhHQHe19T83nlELGKrP8/U3uWy+4gASfSq4LEN4KsXAkWThQovyVvxPiKGU2xQmFtxniJ/Kx42I774yRO9zO3l4Va2H6HHQ/QRto5sgDEHG/g+il49v4/C8ZZ2qElfhur1A7vjr7VtvX6tmf84cW/dQz5OBP/29Og8epa7yr+9/mf09JddLlPzMrp3yeKisPXpYuryU868AP8Dz/v28OtZfPMySCv54s0LsGsfrTWWZ/CbbxyozUfSq+f3kVjeypbfDLm/OPecu5WNj6qn9fpRM/d1+L13D/moCHj2rM6jZ7qrbOH79JfdleN+De/X+iue1RwJya/h0TMv0iu5zv0fAlzCxJ4PDmDJJfGj0+pXaR89pkv8f9X8XoLFM8hwueW3UZxz7Dcexo/+IPQMWKx8aL2uUOlcEbgPAh/9PPqQl937pLJai0ARKAJFoAgUgSJQBF4NgV52Xy2jjacIFIEiUASKQBEoAkXgbwR62f0binaKQBEoAkWgCBSBIlAEXg2BXnZfLaONpwgUgSJQBIpAESgCReBvBHrZ/RuKdopAESgCRaAIFIEiUAReDYFedl8to42nCBSBIlAEikARKAJF4G8Eetn9G4p2ikARKAJFoAgUgSJQBF4NgV52Xy2jjacIFIEiUASKQBEoAkXgbwR62f0binaKQBEoAkWgCBSBIlAEXg2BXnZfLaONpwgUgSJQBIpAESgCReBvBD7MZZc/k/kKf5r2b+TbKQJFoAgUgSJQBIpAEbg7Ak972eXvMH/33Xdffvrppy+fPn16a2+Nxvfff//lhx9+uLXa6isCRaAIFIEiUASKQBF4EgSe9rL7yy+/vF1yuYx+/vz55nBxgf7222/vovvmzlZhESgCRaAIFIEiUASKwEUIPO1ll290oT/++OMLF1+Ji+8331zvNpfo33//XbVti0ARKAJFoAgUgSJQBF4QgetvjQ8G5ddff73JZffBbtdcESgCRaAIFIEiUASKwDsgcJfLLt/K8u0r/0yAb0+9oDK277+VZZ35/LaWf6/Lt7nOy4usc/Dz5D9xSF1+M8y/+4WPf7aAHvp+U0zLmHm/McZ2qQgUgSJQBIpAESgCReA1ELjLZRdouGx6SeWfIvAfg3mRZN41eL10Cin/5wUvpF5CvdROXmVsvfDKjx9ckiHs52WXOf8jNS/h6mlbBIpAESgCRaAIFIEi8PERuNtll4slF0kumzxedIHs6LI7YeWC6uX16LKLrN8Aw+tFV53zsosvzPmts3xti0ARKAJFoAgUgSJQBD4+Ane77AIN3+hykeSfECQdXXaR44LMZRl5nnMuu9hCnn/CkJds5tHlt8aMpy/pZ/tFoAgUgSJQBIpAESgCHxuBu112uWRykfSfB/DPCyT+mQJr0vy2lksqPF5w87LLxZnxHmGTyy46eJL4BreX3USk/SJQBIpAESgCRaAIvC4C+7fGC+Pmostl0wuu/09bx1w2/dbVb3HzAkvfv5bmP0lwzAWYdXSxpk5dZR3bEH5gxzFzXLK9AMPL+t7FW71ti0ARKAJFoAgUgSJQBD4eAne57HKZ5ELqP1/gQsmYb1UhLrjO/fzzz3//nxC8lDIHPzxcZrmMIkvfb4xZhy+J9bTjt8rM6YuXZ7/h9eLtpXl+y5z62y8CRaAIFIEiUASKQBH4WAjc5bL7sSCot0WgCBSBIlAEikARKAKvikAvu6+a2cZVBIpAESgCRaAIFIEi8KWX3RZBESgCRaAIFIEiUASKwMsi0Mvuy6a2gRWBIlAEikARKAJFoAj0stsaKAJFoAgUgSJQBIpAEXhZBHrZfdnUNrAiUASKQBEoAkWgCBSBXnZbA0WgCBSBIlAEikARKAIvi0Avuy+b2gZWBIpAESgCRaAIFIEi0Mtua6AIFIEiUASKQBEoAkXgZRHoZfdlU9vAikARKAJFoAgUgSJQBHrZbQ0UgSJQBIpAESgCRaAIvCwCvey+bGobWBEoAkWgCBSBIlAEikAvu62BIlAEikARKAJFoAgUgZdFoJfdl01tAysCRaAIFIEiUASKQBHoZbc1UASKQBEoAkWgCBSBIvCyCPSy+7KpbWBFoAgUgSJQBIpAESgCvey2BopAESgCRaAIFIEiUAReFoFedl82tQ2sCBSBIlAEikARKAJFoJfd1kARKAJFoAgUgSJQBIrAyyLQy+7LpraBFYEiUASKQBEoAkWgCPSy2xooAkWgCBSBIlAEikAReFkEetl92dQ2sCJQBIpAESgCRaAIFIFedlsDRaAIFIEiUASKQBEoAi+LQC+7L5vaBlYEikARKAJFoAgUgSLQy25roAgUgSJQBIpAESgCReBlEehl92VT28CKQBEoAkWgCBSBIlAEetltDRSBIlAEikARKAJFoAi8LAK97L5sahtYESgCRaAIFIEiUASKQC+7rYEiUASKQBEoAkWgCBSBl0Wgl92XTW0DKwJFoAgUgSJQBIpAEXjZy+6ff/755fvvv//y3Xffffnjjz+eItO//vrrl2+++ebLzz///BT+1IkiUASKQBG4DIHffvvt7f1ymXSlzkHg999///Ltt99++eGHH84RK28R+BuBp7jsciG9VxGjl43ynvTp06e3Sy6Xbp5edtfZEKf3ztfau9vM8mHnxx9/vI2yK7RQh/jyyy+/XKGloiLw+fPnNzz5QFv6B4F7nO18iXGv98U/np/WI988+PMsPt1jb6OTy+Z7nxf48B5E3JyXr/xuugTXZ3mfneL7XS+7FAYvdgDh4ZDi03ASRUQB36OI+Hb3p59+SnM37aObuPYOAL9hJm7493gvdQ7seKngyzPSKThxmPKy4NJw6UsDHKilW+FArk71xW/tj/jlI85zyPyeK7dlAz/Zj9TnOXRKLs/RR65uFdM5dle8YoxPPNQS8c6zCezmPgZL9+G5mK58Ye7W9TztgPspe8UzfHXRIFbxAqskMLr12c4HYnSeUjPutaM9mT4TD/FiY+Y4+bLP2c4XGDzYfG+6dG/v+Q0m1Djn9BGdc0agk/o5JZ/sh1NzcuTjuevUBb7u1dIl9XauH9fwgx1Yk8tT8niKLWM+JX+n6Lsnz91uR34SpPApFB4KZRbLLYGfQHEw3iqpU7djNsDeBqQYLAQOw1v744smW317pvYIJzD0UkHexOzcGHjxgMUtCJ9mvaoX/6Yd8rvFrxwtcc6LQa6v+uwf7F2KS+qkBt2XOX9q/yiXp+qB71YxnWNzi9ecijF58uJjbSJLjnPPs8f9EI8s40tI+yl7y3pOvfRX9iYPY2qPyx/PjA0cmKcmJl17tk+c0c9c5mLanONT96RyxIHfxHwquZeQOXdfn2rjVL5r9zZ25p5EJ7ifg8k5Z8S0txUruXxvIr979Xduve3Fc+r+3NMx18wlH+xvReDx3nV/Siy3uRUsLBH8BBRQ2DSvRKsD+T3i46XDofGs9Cic7nFArDDlpT/x3rscr3ScO3fqS+FcvefyPyqX5/p1Lb+1Qyvxgucc4wJ0b1rVlD7d2/aRfmqPMz3Pb7G55Qs+/QD3/FCRa6f2z9mTfrDgQvC1ErHf4pw554y4hb1nydc59Xbk8+o8OJI5Zd0c+wH9FJlX4Lnb7YgC3juoOChZ51sBePMQBVgSwWHHGs/qUx1zytP6rcOWbi7b8nvxRvfWpxLt4wv+wcscspKbGl9W67yslMW2BWYhs8Yca8aAfm2v4sY2MfICxiZyfJKmD/mCdMwcfR79UW9iiA79kxfZzJM+vhn664e+PgInbZnr9IO+sef8VozwsPHJv/hYs5mf1EWfNXBQRqyQJZ+uT6yurUvsJMbYQueK4BMr5Mz3VrzqOMo1fNgVJ8bUq/VHzOCZfoGHvtDiA+QcOVtR5i2x3Iph5gy/zNNK/5yzdqY/xAqGkLWyFT8xuYfSn8wH85OY01ds8eCHPu2dCYlT7mFsbGF1Ljb4gwyt+cNnbIMFNSFt1bnYqQt+a2B+mLCe4OVBv/Jin2PmwI8HPyV9E1/WV/jDDy/+TIJfP/WHFiJWz2Hm6Gt/+sc6elg/8ucS2a1cqwv7+mY8iTtrzsPLIyb03RfyUNPqJl+55z0jqA9kjXtiy5j11DV5t+ICQ2SxtbW/Zn7g5yEuyVwwj79Q+s2Y2LEDDzWEvRVZb65t+Q7W6EFf4o4NfE6f4OERf3xTNvd74pHyxqRPtGCcGOQa/fQJG5A6sc06fqJDX/D9memul13A2SI2mWCTxEymY+VJ1gQSHkD24GXTqe8U3egkWRStBTd9ZZ01C5AxiTf58LPm5mSdPr5AFgw+soZfGYeFwq/tIdaRtziZxz6yk9CDH6ypG14JHTk2TlrksM2DvcQQTOVlXh8tbuwyl4T9R+JEbPi5ImvHNf3PGPHVMXqQgeBNzBhnvtS54nUOfdat+VTu2rpMjMkHY21pg1YMXAMv4ziKl/W9XKM/a4DcI2PNIsvYPUANEzd8YE69Zf0Qg/jPGNBjnnJ/M6/MzBm+GSv65vocaxMZfMlHP6fMKn55iRf/iFf7jN3je7U77SBvLsXXM0FckJk4N4ORKQAAIABJREFUEYPre1ipWwz2WnRCxG5uPTvwITHfq3POHtYlfECPeDlPi01xdT6xZ44x8uhBB+PULz7uBdbgXxFxZRzwuM/QD5GHlIefB9s8xDfX0z/68KQ/jFeE3nNk93J9Ku7ECe7Gq19zjjH+UWc8WePI6LtnCXFYN+q0TV1gOHO0F5f53dpf6OJBr36KvfZpmcNOEmPkiAH/kdc/4lvR3At7vvuedW97djpGF9gkGS++QGAKj2NksWmMtKxjKwn/t/IhHzqRxS8JOWsDXPEH2qob5Z6h/TeSN/QIkAT8FLXwC+Lq0Jk6SMCpNlK3SUl9uZ7z9OeaBSofyTfhzFFsp24E5JJ3+uZYXLRpEeY8uvBVmmN1wYNNNi0bOH1njnUeN9zkUf9skUl/HolT+mKczq38x1cPR/lop+zMT/JOfFmb/BODlKefmE3bc3015gWW+VP/KfsH3mlzhZU6s82a9zDNdXziwF1RyrKeGCT/qft7xoB+HmnmaY7lo1UXbdKUyRiIf8aaMSGb/mgj9dufdpif/O5RfVzl7NT6nrr1Y9WiEzJe9o8vyxnjlE88lJcHWeZWhBzrSYk983M8fZnjvT2JrswV+idGOV6dw657QTjFP7HNOE+NbUtWP9R5Ku7K0SZlDpmf4xnnHO+9F9FFXiR98ALnPK1rzs38zvXpxxyrx32lH+DlO1Ae22nTedq9tenbHCOfOKFr5vdov6/sr94T4MBzRMiKA/lgvEWzJrb43mv+n9vRjT0gcIDfIoDjsAQ8eBOoUxNBYZJ8XjZpa0/3qsDS9vR3rk35uXlmsbFp4MFHdGWBTd6p2zFt0moeXeiX5nglAz98SXNujpM3+/Cln9qT5544aYN22l35n3Pw+00C8zzSzI/ztBNf5zK/05dr6xLf0ClNTHM+/XCedi/exCVlZj/tbuEgjrxExJG5aYNxxpS2tvb3Xgz4lrGv/Esb2Ufvyh905IV2Fb+x2SIDGbt2tOE425WvK/70kb621JVze1itdKtjtuiUwILHC92Mca/OqQdkyS19zm/aFWUcrif2zM3x9GWO92JGF0+SH7q8BPHitxbURSvNuVP8S2zVQ3uuLLa3zrJTcZ/+6w8+ZpxzPH2d45kH9dJOXdOHvbimXmXVDx74QvzUJblbfdEBP/cRP8AhA7+09x6Xh3blz1ZOpq9THl2zNhgzn5Rz0z58MxfOMX9ExM0ehdDNWNrb5/I8U/vPCXZjr7jEzk8BJFeAAZAiYA7KgrdAT3UJHRSxidjTvSqwtD1tzjVsMCfNQspig1e/KIxcQ36Op2+OaZNW8+hKv9jQOV7J4BtyEgcCMuLI/OSRd7bIpZ+PxCl9MU7n8N9Pps4ZIzmhDwa81KbszI/ytBNf5ib/1HdtXU6MZ+3p39b+OYr31FynXXHICws4eED6gdbLTcri74zJGLIFR3yjpo5imLHjCzZOIfNFm0QsvgSZzxiI31hTxv5RTchHK5Y5p085l5hdU98r3Wkn+4lhfvsEz4xxr87hB0vyRLzIbtGqHhN75OZ4+jLHezGji2cSvuILGPBO85I/L8LIqZ86hU7xL7FN2+fIHu0L9J6CuzERR1LWHPNzPH2d45mHPd2cFej3gkof+VPOaPFXP2PqER2rvSIfLXbhwU7u96P3eOrIOI9yMn1FD3bBDlqdB6sYiM13dtrXL+JnPgkb2sn52fdOACbzPne0z6eu9x6f9ha4wEsLloRBgAZYAkyC4IEsphyz7oajnRcWkuccugFeW3u69QsZ/Ur+t8n4wZqFbwwcfhIxZSHli4B5C4TCR84x8vDmWN/U7WYQB+dpKXr9QDc+4qukLEWK39hiPXUh4+ZGzrHYOAe22IDA2I31NvHXj/fAKf3Ul4mhMYEDRE6IGVkxos/DGnGod+ZHG7TKohc8aDP38Exf0M0cNGteXm3TJr/jzN+svTfFf+lGVl5afNNndPHMeMHqlFynXQ90ZCHG6EA3xH7HNoR9ZB0bk5i8Mf31A/nkc38fxYAcvOhe7QtjTlv21U0LIe9Fh76UMTAP1p492AUL+YkBfmnm2Xla7WdNyS+fmOnjNfWtbnRCmSvt0Woz57I/Y8y6nXWOnJiBi7ZTn338AX94rKfEHr45nr4w9p0DvzFrI1uwTF7WyMWcSxlqzTjwE3+Tf+Vfru/V4zmy1g4+iBd5oC+dirv1bB2iI3M6x+ifvjI2Z6zPPOgTLbrNM7rBR4yO4pr5Nr/GjV73Strc6vNuIKfuX/iIg3gg5tHpeOrJOI98d933KXhj37PEdfNAu7ff9TXf6egGX2STwBddkHbELPnoEy+Y6KfrWROrfS7fs7T/3I7u4BEAABKg8AAwxQhRFMyxTiJYyySxzhgekjITMXW7WY50qxN+iBYbzK9Iv2l50g5+KUsMPPJRsIyNn3gsKuQmL7b1zSJUlnYSulyfuuEFLzDFH1rtwSvBYwzwsYHhS4InMcoDLPm0Y/yPwAkbSfguhq7txTgxYoz/4CpejD180lbKgin1aOz0oekLfKk/a37yJuboMtfWAj5pb+YMfmypkxzjb/qM7YwXGcZpd5XrrBftsqf1D5tZY2DBHA99dOI3/bSF/STW1Qk/vKfEwMtIOfzIPYd+7act++Ilrugh3nzxrXDP+JHxjFvVkDaIZ1LmB9+Rlx8/oIkZMpmT3MOpb5VvdesLPNpJ37QpX66RJ/FSFt+ZAwtiyDpXlrlVfblOi258VM/Efo4n3ukbfWjGnPbwB1tJ5F4Z42ScOSYW18AI3KE9//BnlV9tnyt7lGv1noK7+YMXveafuKE5nr5aj/AT48yLvtiCOdiLc2K4F9dKb+pAv7GYH1ri2iL45zp28BFZ1ueZoq6sNzDZ8x0Z9WAP3fiOfinlnWdOfJHJ/Y6cNay/tNa+emnFnL5+5DmXvNQ6vmE7CZ/wAV1gRBzw0X9Guutl9xkDPtcnkkkxlPYRKE77+HS1CDw7Ary0HnXW8ZKeL8/3xoeXOudYvvS5tHiJ1z9e8vNC5Nqzt8+I+70wo76o6cwnc8/yrvKSecv4uewe1SZ4gIEf2LgMH8nc0sf30tXL7g7yz7Qxdty8eumUDbJn5KPj5KHzqBf9HpavusZh+soH6jPX0Cm+8cJbfQN0y3rknOEFywWS/jMSlyPq1AsS/fymkXnG8wL8jLHo00fAXV9v2a7qfvWB5pY2z9GlL+fIHPEefRDjXU398qFHyvp27hXbXnZ3ssrBxycgvpovbSNQnLax6UoRKAL/hwCXLs7TZ74oepnFT/z117OMfRfgP5eGj0IfAfd7Ycnlz/cT+eOS5zea97J5il7qinsFPnHZvAXxYdU65QPlJOoAm1/L5XbG38vuRKTjIlAEikARKAJFoAgUgZdBoJfdl0llAykCRaAIFIEiUASKQBGYCPSyOxHpuAgUgSJQBIpAESgCReBlEOhl92VS2UCKQBEoAkWgCBSBIlAEJgK97E5EOi4CRaAIFIEiUASKQBF4GQR62X2ZVDaQIlAEikARKAJFoAgUgYlAL7sTkY6LQBEoAkWgCBSBIlAEXgaBXnZfJpUNpAgUgSJQBIpAESgCRWAi0MvuRKTjIlAEikARKAJFoAgUgZdBoJfdl0llAykCRaAIFIEiUATugQB/XY+/QMafkPbP7t7DTnXeB4Fedu+Da7UWgSJQBIpAESgCL4IAf3qYSy4tf5b3Gf7s8ItA+5Awetl9CMw1UgSKwDMj8NNPPz3NC4yXKH/H/l6E7r6o74Vu9RaB8xD4/fff//7G+DzJ+3Hr0/fff38/Iw/W/FVfdjn0+YTGrydKHx8B8kg+73lRmCh9/vz5zeanT5/m0k3H/Orsu+++e/tm4aaKr1CGP/j1kQn/jeE9L4HY5lek1DD+8A3SLck4qVcu9h+ZPLc/agyPOjOuwYf6ox4/eq1cg8FK1tzd48MieL83ccnlHfrrr7++ufLjjz++t0s3s/8ul10/NQDqLchvZfYuOdiiUCVeKnxqYc6XnWuXtPxq4yO8/N2sl8S4J3PrnG7Z2rNDHsnprS8KW744T/1xUF1j96iGjXuvxvWHVv5b7bHUTd/LGXbOoVv7hR+X7l9eWOxbHj6snIrtOfEe5RVdXnDxB/5r6mjl24wzea7BL/XY93zxbHV+q816yG+ReNlSuzy+eNGx94F2LxbO5vkO2PLplPktXfp9VJO3ODOO/DRmcfTyOvcsvs7axz/qhjVyeis6ZT9cY2sVyzX6piz6wW++Z6z7yX/qGJ0zB6fKnsJ3al2ab+JDhv32KnSb2+YFaLCR2IS3IpKzVyzzcOIFZyKRs3+JP150r9FxiV1kzt1k5/Kf49etc7plm3zN2gH7e1wUtnyY8xwM1367e1TDXII4jE6le+aDT/yX1vst/aIWzsEksbNewJX+vegor8TgBUSf9GWeW86f06pzFec1+G35gB3ORHw/pUZ8Ec9LFXnFvyTG8K9oLxZ8ugWW2t3TReyn1OQtzgz9WbWe9eJKjbFvufRab8hNnMkZMUDmcqX/lLmpG5mj/XCK3i2elb0t3nPnyRdnFwSmWYdifa5O+cXb8T3ao7ok7+434sz47uHPo3Xe7rZ5pufXFsc0d88in7Zy7CH6XoWBXQ7eZ6Bb53QrJjbks8S85eMl87eu4Ufl49xYn9Wvc+M4lf/SvPLy2btUnWr/vfj4ZvGUl/jWGYr8KZflU+N7FJZ7l+5Tfb0Fn/uMVgJrcH3Ur6ex5QVKHy7dD8q3vQyBZ6nLy7y/XuoutyQvYBQ1fT5JctDkwedG5BMmGyLXmVPGEOXJjesabW4gvslAH58g4V/J4pfzyPpJV1kKgwc/eFxPm/SNYx7KqT9j47BRL/PYTso17KJnixJbdPHgz5aNFa6p+5TY0QGu2rPFrljAI7aZc2wlLol7+jH7xMPhjC0w0b58YK/v8IAhlPHSxx7r8K5IHcjzwEscyIr1zMmtbOMP/mEXzNI2a9hnznrJMZ/CxZt56ZR8yDvbxAu7YA5t1Zby+A9GyEys5NEvx7TErBy2/AaFtS2ME4PUlf3EBp+sx6wp5qkvYoZmHeAXj+vw0LcOkfchtknmNXUjKy9xmD940c3jnLrBNinjzzizBvbiTPnUe6s+OFqvRzrBPy9gxDNlt2oEfP7rv/7rX/tjZQ8+MWc9cQfrxHevzs1L6kp76MF39Fs7mZOteibn7gH66MDneV4lDtbGxAp/8G/GzDz+MQ9lrb9N/LXH87wVl6yXrXpTB+3cH/pIi07iwA/wJF6JvrLggY/kQ5p5A09oFYsy2U6ctYU/2BF32j274pL60k72M2fEZD1s1cK5WGfs4pp28AV/iQndrM31LV8yvszNEV4Z/zP073LZJTCTa1JNHpsEciPCB/ErYArfwiUxbsjk3zpg3EDyUsBZqOhSVtuO2djIS/TZgKxb/HkQy0drXDlHH3vGCo/60eMmmX4wTwFSUNqVd+p3PHFifs+GNpWf7VHs+KdPxJc5U/dWTl2n1U9xmX7kGB7zCS7El7WBT+qceGjTjanPYLyiGT91gG3rGNuMpXvYNv/Y5hCTiC3xYox9//mEe07+jJ25ucfkmy0Yo1fbYgbfXm3pj/7jK3OT9Mt55dz7HtyO9zBGNjFRJ612zB34yEvLQ6w85BS8Jdb2zgB8Mjbx0V912KJLXnyyllnXR1oIfOFfrb1Njh9it1UD6OLZinMPv2Hq7CG6E9M9BeQITCVqwLwxpy4xZh3+xP4oltU7AHkIW6xrc6/O4U9dbwriB37gW+pKHFgz3/DmWWY9bJ1X5Bld4EBOya37NFx4m0dvPtiCpk10uMY6Y+JHP3s5Y4UP/7fqLX2gj2zqVj8xeE7QNwZsop/4IXgYu45dfQMDZFP/jOVNyeLHxBm9+IqdjNv6kN/xrBfXF6beck0MWbv6zDyyEHP4IDFm/VSsPcPADCIW9BEPpL5b1OURXm8Gn+zHP8je2DGApfCSSAbz0CwOEkJithIvv+upl75FTjHSN8HypW6KgA0jqduxuhyvYsm1LFDnKVIPLOdWbfo1N+6Kf87h28p+8qWNGWvy0T+KPXXBn+Ope+b0CPfpC2MOiLTB3F7M04c5nj5Pm0fxP9J2Xs6MG/+kWZcz1jme+VDPbD3I5/xqnLk5tX6nXys59HrIp90pOzFIXuot8XJtVVPq9UVxVAcZN3rnWFu06lqdTXt7Qp9ot2jGrwz8p8Q55bfsXDKPbnA5haxNLxPURNKsEfnR78XoKJbM0ao2yFO+F9J+yjI/x8k7/SAm+FeU+WJ9jplLW1P3HKcNddEmIZP+WJ/wWDPuA+ZyfdrTRurPPnaQSUp9zOc5tzp7kOd9uqKpa45XMsyt/E6c4Unfj+plpU/bYIkuL5nOz3bqOBfrGbt7BL3Q1HfLukR/4jVje4bxegfewLMJLCozGTOxrGexIc9Ykt/EOW+Lbvh56E9K3cmrzFzHvrSKJdeQnUSBa4eNQuFBHCaMufhr25gYp92pczWeOB3ZEMeVLubwOX2YsXuJh9fN4sG40j1xNeZsjX/lkzqTZ8bMGi8pXojqVZfyjmnTp5ynfxT/e9vGP2nmZsY6x8jtxZ564VvRLep3+oUtYknKOfi38jsxSB1glXi5pn1aac4d1cHePlCnLbqIh2f6k2vy0OLP9El92c74lYHHPq0056a8fLdo0U0spxJnIhcfzhXOyCT0oC9pzh3FIq7oAPdVLpzbq3PkU1f6RH/6IebyMd6q58k7bfEBkNrDP94p+Lt1QVcXbRL+5eURHWKrDPHlIy5HsaUdfVe3a2mPudRJH7tJOUfM8usfY2nqdn62xpnz6EusGKsbvWKgTM6t9MlHS03zfgJ3dTKP3FYtGKd6jmysYs+YjvTt+bKynbrxMfHS52dq/11VN/RsAovq/HR+BJ5fk+uS/LQrMtFshrQjbyaG4pqHqXy06nJuFUuuoXuLOJQ4xLWHb9g3jvRrboQtnTk/cWJtz4Y4po7sH8XuYYvf2MlPqyvdGd8R7umHfXWKF/PkQ8zBlz5zXLrln/KOadOnnKd/FP9728Y/adbltbGrd1VTru3V1qn1O/1Ezm/ntEOOqK2j/E4MlKel3hIv1/ymhReQpE/Yg47qYG8fqNNWXauzaW9P6Ce+bdGM3zjgV34vzim/ZeeSeXS7T0+RB1Pqi7MS35NmbYGlNSLfUSy578GdczmJPJ1yTiOTulIH/elH5uSonpNXvWmLuPOLEuJgbkXqok0SY+esT8bWjPtAHtu92OTJduaNtbTHOHV69mRMrOMzRH6In5qGZ+qa4zehxQ+xyaXEmXnG2IaO6mWlL3Xbhw9MLjnbjmzM2K015KDEmXHqkxceaiDXJu+bssUeSLzkeaZ2+5Z2pZeARlI9tEguYDimWBlLFC5jEyPY8LPmJnBdOVs2gIWJDLo85NXtGF/wTV0kmmKW0JUvX/rMrci4cg29FB52IXSrP/3SD/1iI7OpPWiIGR6xUN+0hU5ihnfGPm2I+0oXeo9iB7ctUrfr4i7O+uI4cSd3WxhjU/yQASdihhIb7KGHNePTJ8f6JOb6aruKn1xK6md8D9vWMPqpu7Q963COZ6yO9d3YxR/d6JgExmCoL5kn5sXOfDreqt+pf/qFHDmmdiHsMsbfI4wnBmkL//DXeGmNl31GrrHBQ30l1qs6yPrEv1MJObHc2p/6mFijH/85B9zf0+aMX2yJCTqKc8pnfqct8EmM4DUuWsZJzHlJMY/GmXz2rTtlnKedNeLYOOGZsaQ8fPinfWuDFpr+JQ6zztVl3acd+viROJmTtIMOHnGjD8nrmDZ9oRbE/E1g58eMydqidulLs9bBH3z1wfcQ/BPj6a86bcGBvYUu/c79oE7xsgawDzHGH2XhwweI+KbvOTZ+43gT+uvH9FuckZHAXbtH9TL1qYMWHfqMHeIB0/RPfLCpv5dgTfzKu0f0BX3izJw+0z/yRV510+LrFl7afKb236fTDT0jwSSVB1BoPVg4uNlwzFvUbAjG+RIhMczRCi56JqFDWV+Y6ifBK934Jw/6laMI0cXDHI9j1iZZJHl4IEPRKUdf/fjDPHEwh238oE+M6asbbWVDP5ARJ3RDezaMGTuTTok94zI+/MR/de/ldAt35le5xUfiZw17xObGw07Gv6oTfTLexPec+KndGeMtbc8axpb4kpejMbFkrNNX1mfs4GWuJhbEK+bwoQ/aq62t+k3d6Zc5Qc74iTn3yx7GE5O0Yx9/xcV6YQ1Z9w028QVb0DX7QLu2xoUPYqg/+AZt7QnWxNvaVi/tKn51i+1enCt5sPCcTlv08YFHghffIVrGScQuv2cY7R5Rc6tzdq9G0LeKJe1Yy+AjJe6sZ9zizrwYmsO5j9RHiw5wSBwzJ3v1jHzyMp62PPu0QYuP+f7RH3XJCx85Sd5Z68gaL3LoMMcrjLVhvWnbFjzgEce5H1Y6iRF+7btP0Kk+dNK37ujPWKy5jFe/pt/ijF1o+sncXr1MfdqhxTfjISZsUQd7tbDCZc8GdthrnJ3y5TmKD9YBfUg+/UEeHlp8oy8eyYvsKXi9GXmiH/8+nW7oGIXhQXdDtU+nyqKwgO7hILqfAUsODzeCcXr4Or605XDxUL1UR+XOQ4CDjJyWzkPgnvvgPE9uy82lgJcaZ9otiPrKi8otdH7tOrhkzHcNl5qenf9ZGc/y3vxPz+4zw7u5dbCN7d0uuxxyt7ig+elsO4TLVygMPr1cS1zUzr04YPfUwvST17V+XiuPv8TpJ2Veis5doxt9YFh6HAK8COZL83HWz7fkOfAMl3Nr/tb74HxUbivBmc03SrcgMOLiLEa30PkeOs45px/h3/SHfHEm32MvT1uPiO9UG9wtju4Xz/LePDWma/n6oWcfwetvegv9bDw2Cs/qV1ILkQ89xaWPFwWH+9EG/MiBEicHCHGaX8a3ekF+ZGzq+9eDQPfBdq79UMI52HNhG6dLV3i3cqnx/OWiyweL0teNgP/sgrrovlvXwl0uu2tTnS0CRaAIFIEiUASKQBEoAo9FoJfdx+Jda0WgCBSBIlAEikARKAIPRKCX3QeCXVNFoAgUgSJQBIpAESgCj0Wgl93H4l1rRaAIFIEiUASKQBEoAg9EoJfdB4JdU0WgCBSBIlAEikARKAKPRaCX3cfiXWtFoAgUgSJQBIpAESgCD0Sgl90Hgl1TRaAIFIEiUASKQBEoAo9FoJfdx+Jda0WgCBSBIlAEikARKAIPRKCX3QeCXVNFoAgUgSJQBIpAESgCj0Wgl93H4l1rRaAIFIEiUASKQBEoAg9EoJfdB4JdU0WgCBSBIlAEikARKAKPReChl93ffvvtC3/Lm78tXyoCRaAIFIGPhcDPP//85aeffvpYTtfbIlAEvnoEHnrZBe1ff/317fnxxx/fLr6vnoFffvnlyzfffPPljz/+eHiovJSw/Wj6/Pnzm11yXboNAtTPt99++4V6+mhkPdA+kqh9zpl706PsnBvHvc4ezpXff//9YfX4ww8/9EuSg+S7xx555vKl1Uc9kw7g/PDLz3omvSewj78JffnyhY3JS4jD+JrNiSxJ5TB8NPENNbb3XuBcUL7//vs3nkf7eOvDz5cbMR8RMcP/Ht/ig/NHuxD6oWTPb/YLuO59aLrFfjgnz0d14Dp1gP+P/o2OeOztUX3ca4/yc64d+S89E+559uAbF5j0jbrMMVjxDS+/qTuqyT1cWTslFmtyb3+s7FyLMzqpWfIPJpx9+Ksfnz59eptj3gc8wAXKdXyRUpdzq9Yz9JFn7lGtp5/wetbnfPv/iYDv4/9cuc+MtX/u2ce+pt6scbzj7Pa9g17q+iPS8c3lDlEBqC8+Nsw1hK55EF+jb0uWAsjCwf85N2XxzSKheOxPvnuMsZ3+nmtjtTk5xI8OXjaDhz068pA/14cjfvKemxL+1dyRnmdY56UxY9Ev6oa43DPOr9pz98OleV7ZXs2h/9o9vtJ76hwXhlvY38sPvpxr59w8Zbz3OHusA/a3j+cqdWkfP7AvpsS9Vbfp81b/lFi0mT5s6Zvz1+CMLvLO49mNvjwDsy7EhXX5WZ9+izX8RyTvHt+tz9yMacsuvhPXKTFs6fia5k/J463xOOdMYg+7723d1+jxQ+lHzvm7XHZvmdR5EN9St7o4uCgACjZpNZfrH7nPAUp8Se+xYdP+7Oe3LHPto405RDxcrvH93P3wEfJ8DR63kr1VfvTn3DwpZ3vPs4dYeR5F94zlGpzdG15cxYNvZqVZF1z+iMdvv1ZYnnOOnsOrT9e2M6Zr9VX+YyFA/d7iXfRsUf/7NnND79j0fPoHOB4uJnxCgDhE/KRA62EiP0DzcKjwKLdyLw8z+tjyoPagYA6i/e///u+/fyWlPn2Bf1J+qkGeBzsQfb7FxB592vykm3GyZhwzTmTFBxnjpr9Fl+CLLnzQX+zyKX6SPrDuAzbimZjwTUdSxkxMYoUMcaEvffAbInQQE78y0aatOtIOfrtOS0yJK7w5Roe4Yn+LWEvdic+MbVW36IVPn7bszHn8N079xjaYr+qTunMeW+YBHegyh8RMf0XyJI6n5Fl+eCHrCds8YoZ+fcxayFjhty62fEWPeBI3fPKSL22IAT5RS6kbmxD8yKKPvr5nHb4xjh/67Dd72EQeMl/Yg6a/+se8BC86mct4XD9q8f+Ss2ellziseXzlEa+MRdncp/hu3ImtvMZurTif7TmxoG+178w1/pgXbFyDMxiIQ/qbfdaNn3l8Mx7GKx1gAc8pJC8xoQs5WnIgkSNxpk1/5LGVj9qxbsl96jOmVa2jJ+sFvNHjfkP2iDIW4vG8UAc6jVNd6bfvCHHY8jNxgde6MG5wUla/wZs+9vEDnI4IvfpMX1/1L9fVJc9eHuTNNvWLW54hrO/hmLrsT5yIPWtoDxPsiVfmUt3P1J624y7wGADcRBwAFAOg8YnXf7/HPElPYJFjDl6Sxhgl3VQtAAAgAElEQVT+LUIWHgmbObaYPYTQiwyJkZhjTLuirXVksIWfJJ0xhQNNGWJIv+hnnPTxXXn4LeaVT8ifiy9+kgc2O8RGSxzSzsSINWMCU8h/kwa2ue4BQSwrTJDHF+2DHUTMPKxZM+LxxjB+oDtrh2VwybmJM2NsbBHrxodf4AUd1e30BT080lx33hZe/QZnc+s68sxD5kFs8Fdb6MBn14iV2toi+NGdpH5xmHk2b/pDvoyP2sIXdciTtYA/jPUVnNGRGKQ/9OXFF8i4po/ocR0ZaPriGFn4jcc6fBMaP/ANv/WVvvsI1un79Bdb1hL8rp+ap+HOG97YxH98An91GZ/YgxW8K0Iev4zFMzn58TXH9NGZtrUFb9bT9GXlA/zoTH3GcrTvkCMX2EFe37RzDc7oEhf1zRYebEBgBz944gvEOk+SmOTcVl9ea9X86JfrW2fuSq94o4sHf91X8OPvVq0TF/zGTO0xxj9qQr9WdplTXj73HmvIq9e4aKX025rH19yT+AFN+bkHMkZqTT3EDSb4OWX0Y9Uah/YTl/QnZTOeVR6SN/vwIosNCf/F6ghHZWjFyf3m2DxgYwuTvVymjWfp//stdyOvTIbg76klSQIL3xyzxtwWzXV4k591CoPHQnROnSZ4y9+tdXSmDBcUdENsZopOUofjozinj8rRXoovBY3Pp9DK/oyBYk8MiDmxxw5jcZjyrKf8xGSOp9/IirdrU2aO4WduizzgwHiPpt7pC+tpZ65P3erj0KQPtkmJ0wpneWd8HsKuz/aSPJtHWgn/eHxJrnxkf8BjfPDO/KlvtjMufZDPcfrkGm3iJ+/Wes7bNz+OOUuYk+b6kb9z/ShP2rHNeJg75+xRB+3qTCCWjC199eyZL1p4IFp8k8R6Ky/w7cWiHtuJ8xynr8jM8Tk4o5s63iN48N+H82NiA0+SmOTcVl/ePA+Iib0DrfYZ9jxzV3on3vCjU5rjrPVVvbCOTve+elbtSn7Fx9z0c46nn4x5IHBJDMRRW1PW+Wxn7eTa7E/9rCduq/WjeKaNHLPf0Q+xJxlv0bSTfKv6gT/rIfkTk3NymTreq//PqXRDD0ws7SQ2rYAB6gR2FqG8U4/juZ4FDw/r2Eiac3v+Ire1jt6MMX2nb3zZyp+8+smcNH10nnbLH9b28N3Tmfrpr3i1m7yJAf5nDPDl3JG8F01iYAPPbxzSLn1s42cS9nJujlmbPqY8tjkA0A2fL649XFe+ILtnJ23Sh9c6Wckd4ay+Gd8Kc3lp4Ud30kom7btOK7E+cZ9xMM65KaOuVXsU1/SJ+iGPXrBX/qedXM95+/id8U1/jtb1T31Tfq7Lt9VOf9M+fdbnk/lSL37Al4Q8j5S+6ufULf/UJ//KtvrRlevoQg90tO+SF/70dTXWnzflBz/QbVxbrNP+5FvpOMeHFW9ivNK/mku/9vCGb8aUmKZtda7mXJvtHu/enkXPKX7jO0Q7azTlZ4z6yQWONd498KvP9a12K0/Kr9bTH30Gn1MIP/3Agwxj6QhH+WjxTx+dx6/0YwuTvVyq65naf59yN/KMC8JMpKp9AfEJm4MMoBPYOWZtJkNdtHPdC5M8q4T4a1l5LETaFW3FM2NM3/GDWLcoeeGZcaz8VteWP6zv4TvjVt+qXfGKU/InBsQ8P2ESpzgcybPOBkanvxpLW7MPDzglTVzneOKcstn30uuBsocrctMX7PKcSvqJXWzOuCbOW7pnfCvM06dL8ryqP/xLn+c+xCa1YS0wnpilX7N/FJdx0kJgiA+OEz9500au57x98+N4+nO0Pm1O+bmuna12+pv2j86e1Ikf6EpCF4+Uvpp7XqgrmvVkXLRbtBfL0b7LuNGfvq7G+rPlS877jSV7UqJP3UrTvvO2E0vmz/l2eeUvfnnOHp25+pHtHt7wzZgS05lf+PHHczLtrPorefn29iw8p/iN79DRHpgxIsOljtzSUt8Z95vSnR+rPFG7+rNaP4pnx9zb3Ql59qO1IP8RjvLR4p8+Oo9eYof2MNnLpbqeqf33KXdDzwScw4GHxFNAAOvX7xQAiXKM+TnOjb1yj/VMFknCNja1R/KSLDwKBT6TxvwWoQM+ZCgA5JhLGXyfReI6vrABpVWcM47pt7K0l+CLD+jUx+lT6k+MiJe45yE9MYAP/bSQOsRAeeQg5ZmHwEfet4mDH+CFDHqMaeI6x0f1xGEHLhD59sV2VLf6ghwxMOaREnfnss3aAWv4xWXiJM5iResemvtBzNNW9pHFlnV9Sp6RRwZ8IHEyB8zpo7XgWJ/h4UygjhNv+d8Ux4+ZtxmXcag/8UMneRRPZbfqMMz+3c38MDlxPqqzaXPKu67BrDfnbK0HY2U+/TNe1/f2ubVmLpGZtTuxJ2fkTvyQNW/IW0+ss8ZYX4zB9iiWxAEdE+c5nr4e4Zx1ok+24EbdZKz0kZGwn+e687YzfnQigx4pY3TOVjzdW/rkGNzxZ+J/hLd7ATsTQ8bqZz0xxD729J/6AaPkp4+OFSkvP2Pxy1xYw/ppnTjWb/UwzrpVXhzSjrLElZR+y59xpH8pR988mQdxcV+5v90zW/HoU/oybTkGN/aiNp1PP8UhcZOP1vrEXwh+dIpr+jExYYwteV1P/c/U/2fX3tgrwKNQAAPwBFvw2SD0AQoe+gLPGHke+jwWTbqJzFxHBnvMsyEtMu0rz8aAh9bCQ26LKMLk14Yy03f0EBtxKodv0OTNOImJsXIeKtMveM7FFx3o13di16epH0zEiNhXPrHZiA1fpYwZO9iTjMnDbcqLMTp98GGL0I1O7ODfxHWO4VEvaysyZvjSf21hj37WLXqoL9a21tGHzIrIMevImg/6zIHJxAkdzMuDPPnCL2R46EPyiPm0f2mezRUYETu48aBP2qsFeODN2LbwWeXNuNwf+EHctFD6hzy+IUNfWTFJH/Q925mf6c8pdZY2T8kT/hpb+kJ/xjrtw5PYowuftwh5/OOZtT1jRQdz6ARvZGbeXKMlx5mX6cNRLPiz5duMe/p6Cs65V6Zvxuo5Cy9940372Nqi3KvE4n6VH5y2cs0livrMGkRfUuYaPPd8mbWeMYBf2mE8McUu+928Ec/KH9a3CP+UJ3ZsQHt7dstv7CO/ynXiknYy5sQKPfqFL15gzc1erciLHfgmLoyZJw5oKx548APf9zBEh++cPHOPcHwzPn6Yc+xhmxjE9QiTrVwOE08xvNtl9ymiqxMfBgE2LJuNT4eSL0oOklIR+JoQYC+07u+bcc4aXurzsnBfq/+p/dVyzeXJDwT/Ge3HnDmqFS+7t4ruFTG8FTaX6ull91LkKndTBDws8gXPJ1c+6eYF+KZGq6wIPCECfFuS3zhd6iIXDvZPaY0A397xzdV70q1y7fn5nrFgm7Pab0Lf25db2j+qFd9Vt7D5jBi+wlnSk/AW1VkdN0GAA4VvOXhB8/ArQw6RUhEoAkWgCBSBZ0SAD0zznyk8o59fu0+97H7tFdD4i0ARKAJFoAgUgSLwwgj0svvCyW1oRaAIFIEiUASKQBH42hHoZfdrr4DGXwSKQBEoAkWgCBSBF0agl90XTm5DKwJFoAgUgSJQBIrA145AL7tfewU0/iJQBIpAESgCRaAIvDACvey+cHIbWhEoAkWgCBSBIlAEvnYEetn92iug8ReBIlAEikARKAJF4IUR6GX3hZPb0IpAESgCRaAIFIEi8LUj0Mvu114Bjb8IvDgC/LES/qfv/rWq/qGSF094wysCRaAIDAR62R2AdFgEisDrIPDnn39+8U998tf5+Kt8pSJQBIpAEfi6EHjayy5/X5s/GdtvYb6ugmy0ReCjIOCfCf3hhx+eyuVHnJ18gPjxxx+fKu46UwSKQBHYQuDpLru8OHx5/PLLL1/VZZeXB98+8W3Ue5EvykfaJ15+zUy+PzJRt++dvz38/vjjj7cPkLfGGb3Pnj9yc69vdYn9GcjzA1/4Jxv3/qKAs4ILPzVP/5Xp8+fPb3sHXB9N73EmE6Pn2aPjfVV77Ee+wKOWPhpRCzwfmR5y2fVAJNGSh4djWoqBbwx4Pn36dLPLD4fxUZHxIuSlha/nvihO0Z9xrvrEzqF2SdwehqtLjN8+JfYr+8yZk2sPdP0Bz9QlTrRJ8IM/vk7ay5v6bnV4XGtLrFd5mHFdMwZXfF19s+aBynpijz0vfLf+MIUf5I9L7xFZG/fGKP3wXMEm+ysJTK7xhZxfI5++bPVPqXP2AHnAF/J+b5/0FTtgCo6n5F+52Z4S45S5xfjUevR8ws9b75+9OG51JmuD2uBsOLq4wMd7mPw+qpb00Zgdf4T2qI6oGWoHvr36OTU/e5gc+bInu1rDJ945nKMfmf65fd4pCjbWfDC1KmgLgWKgfytCHz5gc0UkkYR6WeFg26Op60j/ni7XjJ1x9hmf8kLG561DyQuQtrZaDrctjLZktubZ2PNARTebJjc7ffhyLnVOrHPtFrinvlvYMp7Ue+s++fRyMC8YYAnG5DIJvllXuX5qf2KE3r38rfTu1er/Z+/tcWU7jrRrTkFj0BQ0Bw6BY+AUZNFsQkY7LyA22hDQjoA22mpZMgnIkKUJUGZbmsP9sM6nJT43mHtX1Tn1s2/Vk0Axd2ZGxs+K2Fl56grQSv6jc/lHwTxX8H3rvTnH7uR8zp5LZc6pc/zwHcp4L7V1qbw8qYOPcDwnxkt9W8mv8n2qHvlu8IueM4zxvdpHz2RyQszZ0Dnncp3nrCFzPGWuMYYnZ0q21VyuH/V5r46omXPPinPykwxWOd7zJfee80wtrH6IOmfvkWQ+r7IbekZCZlHf0NwvVM8v6V8InDnBob7StZo7U+VJMS42p75IVoe4ih9xePDC4nc2XvhrH5y35J6+83xPW9N2jskn+Z514fxeLaSeS5+3av9SPbfy71I/viT5o9TeLZndI8b5zhDPM9cj5y3xZVtdjnL9ns98J5D3Z2jXqqNL87PK8bV8eYa8GMPNqoy/1PmLgELmlyb+0rCo/QXVsc5wQUKWeRKIjpTlWT3Isk5SkadnvNWQ4TJA48BjjH/uZ+xfL7me+lh3DXk+XkJ55q9/9aU/7tE+seVebPDSK0fPxYJmvNpD76oxry/qZy82+bA//Ydfti37yOQvieiZe1OPz9jSpnP64xgZ4yPv5tyXXR5yc1/22Mj1GYdM2EN9MLbGkuW5trZyjP5p2xyaD2xrHx+I35YsiMlPxqYsc/jOPx/jtw07+pdx44c+oNe1nNMXOeQvO+hn3TV9Q49z+ukYP9RPjvPdtFapI3SxR/vGsurVh10+uRf2MOXDsw27nkPI86yt1Kf87PHRekndW0zRrTzPxIpdbK3alJcf+5IZOswtz3P93Npjr7y3mE0/Mw72k0/aOe/TXh1MO+i2jnjOsRzNPT7M/BEPe5BdNc8adStHj96teiR+98KOmGhpjznybo2wx1zunZcwNA78MjfqVwe95wlr2HONfSsbxmO89DRiJeat/J/7zqDHmInXlrzStrlVTvsp84c//OFf7w9y6MIGMjzjN89b75N7zBeyPNuwKbdkag6IiZa5de+p3jpCTn3Y5pw2htSxlcNT+UkdWznWF9eJ1RyhHy7I0MgLYz40enzbqgPlkc2csC9Zvyk70H9udtkFJIEDLKEZewJjjgRYfMjzbOEpS+JYo3gAS0ExBrgJUv/sWUePtvJlwc/8ckcO++ieTV/U5Tr6iTn94YWhrfYgb3zEg332cqBl7OxPWe3N3uLWnuwdowN+NPl5eO7Z13djQYcvyZuynf8QB7ppxqU4sXIAyIAcMkY/LMwPfk/W6qDPdX3lRaV5YOk7erWnbOpOXWnDZ9a3crzHkP3sgwf2iJ1x1lyywH9smR/t26NDP9hHfMmXNeNkDzLGyTy6bdeqffWjV074xAf71gHrsiDnsICL+davrd69cmQvMWSOGduQ54MdPqyxx8ZasnKeHhv4bh7wUdk9puyDgeeV+STeVXPd9zPfBeVlSgysMzbmS2vvFDNt0mOPWM2PvrJ2zvsE3606SDs8E5N1pB3H+ME6/PEFve4xJ4yZd+1NYPxHHTmNPExW9Wj82oA1PJinMc/Y+oYJuswl89hUPu3yjG1qknXfFWLey6n1Zf6xtRUz83NNn92vz/rmHnzis3pniBE/WEf+vWcZvsAnm/E55/jc9wl/5O+7hK49pqzP2pCDfsyx8/asWyf4bF5ZNwZlHZuDzOGp/KjDfuUXc1s1zT58Q8aGfeKnBunxj3XymnXAPjiim/mts0G9R+o/r7IreZbAVDmL2mS7Djwg2pA3GVMWGROi/CxU5+2VR68Ht2sUHEmzIWMROmevL/TZ1O8cRYEe2mrPnr/E7V7278lqzz18SfBMIdq075i16a9r9OriOb9YUuacZ14gONDIbeYXvviQzRfOl5S1PT/n+spXYsmDOO1N3XOcstMW48zxlE2GrM0x+WXONm3PsXL05NO9xkxvzU5bcy+6bbeo/en79GeO86DXr61+7p0cGRvf6hzyXeBLkDb1pd15qcy1fFanc3PM/GSiLP1KfjKZ+69Ze8ks/eJ59Z5OGcfTxzneY42OlJcJvY11PvN8wH8bNvhsNfanPHLTr2Q/3w/k0090pT391r7jjMO1VX26Nvv00Xd+yqzG7Ev/kJk++4cFayufjGHrnZn6kg865zj9ZC/r2bTn3Bwzv6eT856YiWWvJVN14o9tsptj5ezVd8538F4OJ8/Mj7ayX/mlL8plTTM395gHuCK7qgP94K7Ee3HJ2aAfj+w/r7IreWJx0tuE6VgZx0BefVifsszNYmechape+9Q95fwLhWTy7F8t7s1eXzI21qc/WWyrPekvNvGJPfqZPqZs+pLPuZfnbNrPufR3zz66pr7Us/fsy4F+vpzz8CE+fMi2mks/U9bnXF/5mnPY55DBF/blXvTNsTbs5zq6zdMeQ/anLGP2MWfjAOGQocnNLxdl7Mmne72QUbO2aQt5vgCQMW5l8Rvb16z9PU7Ynf5NFvq26k/tzRqy7ultc27qU84eLnCDkblmbY+pNtRBP5nk2kp+Mpn70++P1l4yS7943lu79H1Kn6cdxhmjTOhtrGcO3JNz2OCz1VY6pl/oU4fxsy8/2kxZbOq39h1nHOes7eX0VIzqp1/J7vm88nfO7fHC5iVnmXzTZ+05N8fMkwvmVw12nPPI4Kvn6B5TdZpXxit2K3vOIW+N8JxtxrCney8/qdPnlS7mMpapc+5hHd9t+puM59zc496j9j9Hd0UPJxRUTzDKaJYXhL8UVm3KIjOLnTE2tpryXg7QmY2XgwsBvz7u6dnar351ZrGt9qS/XsC8cORe9M0vWm1k7x5eaL6cM4ZT/Pbs+1dy2rrkWd/Rkw3OMMjGZS8vbaxNrik/17HBRTYbXIiPhm5kzP3UPceph+e5LnPW9hiynrKMyQ9zNnjAChv4ufUuII//uXf+ype2/Asde9ThqhbwHS7Xqv09Tvif/jGeLGSy6k/tRRf2ab53vFc24/cPr6lPudmzzzPqFFNtpI7JJNdW8uQE32xzf/r90dpLZtqzX72nrl36PqXP6sg+YzR3sLGxjq/ZPF+cw0Zyc95+yjM//cp6JP55JqmLPmUZz1w6zjjcv4rRtb2c8q7uxagO+pXsns/6dMk7M/Vdcpat6ktmxjHHzGetKDd7L73mb48pe2dtnKqlac86Ouc7eJUX9U2eq/iVpV/p0hflps65h3WY2qyDrFtqAhnPzlXu3H/E/uforuwdhQNQGnAotIQpOAqDZiEKEsjzly5l6WexMyZhqzblfRm1xR6e0cHFQTsrXcwhhw4KgkvJ1I/MvIC4hzX28ALqL4VprMTNXsfIsw5L7LiH+Wxpz0L1wJK18tPfPfv4iu8WvXmhz3l1z968z8ubvFmn4fM8bPTTOKZu1/VNX7U1fcRfdSGDPcfqcnzKFuvJfI+hsplTntlvw5dzGz5ib6tl/ciA+Ph4qPFsMxfsy3nXs7eOZ+3Ljf3Jmb3pj+OsY1gYT/qbdn2eunIvMsanPO+ZceHbPOSnPvepy5yxF1289+kj89rkmQYLGDimn0zSjvqsW98FbNHcj5wNv2X4ntqTN/r0X93ZWxvaYuy5njGd8z7tsV7FiH4Z0M/zAT+JQ3/gwzhjy1hSHnvGlCyRyZoyfv1gH2cW88qy32buHZvbzJ1r9NSUZ3vqJgZrj73JDtawUSe9sqmbZ2LEBrqVyfiQmT5f+s6gLxlccpbhO7F4ntDrDz6nf47ps/behOI/2Dc/1g3Le0xd36ulU7WVdUQc6eOMaS+Hp/ITob49rnKcviA0deYeWBEb/mabdYBO5Gy+G75HjOWnzJH6z6O7omcUMbAACGiL2ssNBcmacChgL0bM82xxT1n2IIN+mvuQo8hm0w/lLUTk/YJhD4k0cVNHjokH+8jj49TPC8Y6H/1Brz4zx1799YtCf5TVN9exo770ZxU/uvTRZ+Ro8mOepv4t+8SbOojZfNLvNXWvZDgAZId+7GSbfuYaz7nXNdjpK+syZN28yTFzcK4t9tJmjo1zxXDKWn/khzUaBwnj/GzVovG5903BP/9jLaAHn8gVcTK2Xnk2DveytmVPGXoZqmtym+MZu/4RAxwmC+vKL6u0PXXlXmJlLBtrnTnjJ278gwlt6ktbPKMTTuzLvaeY6gO2aJPJtGPM+sn+fBf0wZxNv99be1vMpn/JAR9hSrMW8EvO5nXGPH2eNoyR/bbUz1mBbT7mDznm2cMHP+fZqS57WenzqXrUhv7RY5NGzNYG8dHwgznrL/e9CYz/oMN3P3Xr51ZcsElbySRNoB+96kGvPvNMU4/1ai6VY179M48rBsbjfvqtsyXfJWt++jPHs7YyXp59j7BL7MZ5iumpWrL+pj3Gs46Y0+/MlYxZz3n2w+Kc/Ez7M8fTl1WO3AMj5ImdZ2sbG8gky6wDfcBfaxxZ9hy13eyye9SA9/ziJfWl3pPrWglckwCXHQ6KrD0Pn2va2dN1lNrn8ITFKzUvu68Uc2N9TgJHOMuek2yj+iiBl7/s8hcnFwv+Yt366/OjkM/dz5f8q33Rn8vmmnJ7vzRc0865uqg7/jr210wuvc6dq+M9ckeqff1f/Xrg2rP29/7D5lk5Nq7HE/DcuvdZ9vjI68HRCfSy+8//eQE/5beVwCMIcLnlkuc/e3EZZ3zrfxLii8l/xnpE3LX5//9ToXkn520l8CUTeNRZ9iUzq+/3IfDyl937YK6VEiiBEiiBEiiBEiiBRxDoZfcR1GuzBEqgBEqgBEqgBErgLgR62b0L5hopgRIogRIogRIogRJ4BIFedh9BvTZLoARKoARKoARKoATuQqCX3btgrpESKIESKIESKIESKIFHEOhl9xHUa7MESqAESqAESqAESuAuBHrZvQvmGimBEiiBEiiBEiiBEngEgV52H0G9NkugBEqgBEqgBEqgBO5CoJfdu2CukRIogRIogRIogRIogUcQ6GX3EdRrswRKoARKoARKoARK4C4Eetm9C+YaKYESKIESKIESKIESeASBXnYfQf2ONn/7299++vbbb+9osaZKoAQ+SuDXv/71p1/96leffvrpp4+q+uL3/+lPf/r0/ffff/Fx3COAv/3tb29185vf/OYe5mqjBL4YAoe67H711Vefvvnmm5vDu5edSwPhQMe3a3/Bcdn1ELzHl8ZR+V6aj1vK3yrXez7/+OOPb/VF33Y8Av/4xz/eLiq+o5yF1z4Ljhf12iMYeNn/+uuvP8HmFu1Zzqr5br/aZfeHH354O9v4nntU++Mf//iQ89XvkkfF/aXYPdRl91rFwuWOQ8wvjZmMS+0oz6F7afOSiT97jS81DigOrUvs4BtfCrmH5xk7v/DyCwk23vsFem4s8rr0UnUqb3v8XMNHLgnw5kO8xE3LedeZ84B0HZ7O0St76hfyVS70K/v35jp18Ixv+Ip/5zR+LSTGW10czvHhWjLXqJVr+XItPfmOUkvW7bX0n6PHS9M5steSoX7zrOD94AwjfvJ8y3p971m1etd5tzxbWecC9tFGTcAnz/PV+c4cDDnvkL0Gs3POF+LlDMIuNi/NF2fSzP+lzKwX4ofDJc38b+071z9ih8Op74hTviVzmNr0E1Y824h91odr1MFWXGlH+Y/0jzg3LvX3vG/JS7V+QJ4kfLRgMO9Lv+XKpXY4dLYKZ8uG8xzaFOReQ78HJUXq89Yeiwu9fvSPPg9HDyF0EXeubenfmj8nFu28J4+n8rblF/Mw88AhZj6wkAtjWMFOeexxoNFcn3wY58HzJrzxH2S1tyHy6dJcb+lh/tx8EPN78mGd7fnwqLWP1MqjfN6yS+2Zn4++o1s2zpm/db7z/dOfOcc7BAMaTGBzy3bJd4F8PHPpfd/R4+WIuY/4DYO0wTNzNHT7zBifvFhzEeJMuFY7db54lnkZY7zXiAN/bZ65OefauX3WCxxS12S10onP5nCun+sf8ZuDqePSsSwzDnSsYiF25FeNta24kD+V25XOrTl8JbdHbsf27gPkVoXxAXVvh8te4ezpvnUh4Nd7fdvze7V2j1jyIF/5sDXHF6MXV2X4Ako287D1hffLNb9U1HHq0FCO/hLZ3Pfe51vnw4P3vf7dch95fW+t3NKv6l4T8FcoavYZ2r3O3dWZdC9+1zxftvI/z+Rrxsb3wakz4tSZfUv/VrF6wZ6XWGI59SPYSt/W3DVzu2XjSPM3uez6BclhwGWCX9v4MJ9//eZfgSSYokOO4vKCgrxzXlxY91eQLZh+EWIDeQrFCw17mfMlyLE+YFN5bPhCEANrfGYxbvliUaEPP7CdsbMPXa7he9qeelnjVy3jYp+8Mhb3wTb/id64sYkO96KXuJjbaqdi2coj+oyPmtBP4mCPbS9vymz1+G1sezLEYJOBPqx0mHv37PXKEqPxzlwzljPxI7tqmQ+eYYN/sLOdygdyWVv4JCNZq8ZPcUMAACAASURBVGv27NNP7PL5wx/+8K85fDJGmW7ZOieWrFPt0evv9C/9l42y9OxlXkboxw/fHWKDJfPII2tdMuaDDB/22TLG9NP1vV6d7EMvumhbfrEm47335hKf0lb6n7nNGFI3vuQX7lwjvlXDpnFoE1nnrB/2pk5yIvvMjed6Mpx2zTM20JE+YMO8owOfsLXX2J860Zt7iIGxuc33Glv6z7o+rezN+JGXqzocs3/6pV30GBdzxCmvZDHPp/SJmNChHVmxx9wxN9fnr5xpD30ZE8/4Jzt6eNG0YX2s4t/ibq60l7l6U/7P/8DSNZnJCZE9/1jfss8acRsXevDpnMb3NR+bfBzTb32PYOe77777V+5zTz7jN7LZtnQiw3svf/ZZg8RoXaSuoz1/HukVvQMEACx6Ekfh+mIxDzCLmnXhmQR6mmP2Ik/i2QvkrUaBeaCwh2cSZWNde8wpjy3kGWexGQ8vA8141LfXp//IGbtfGq7T09CN/VXDN7gaCzqILeV5nrGhk70wg522kM297GN9q+nrzKOxYEfbymoLnejGHvJ8skZYZ20vb1t+qdv8bMll7LDg8Mn4Wdd/dTBOGedXPbIZkwz0y3V5eXg4njrdv1X7uc7eU7XlYU4PZ/2adh3j76yHaRM9zDnP+0lLW4xd34qF2rFOrY09/8gJ/tGo7Zk7c6sfvjvu8ZDGH+z6TlmD+MsexqzT5vvDXuI/p5l7dKiXOf1ClzbyHWeO2PADLrLxbL3UJ3TLwLPU+jNHxoONzAmxulfZrXyrw155+mzE5tyUwTZx28gpPhAzzfcHhquGrJxYx3f9R7fP0+7UZY6sEXihW9/whzHzyE6/kcN31syfMact/bDuHesnsuhyrF+OiZX8Mk9jPs8j/MJPaw15+CufvvCsfeexrW/sYe/ki41VUxd9NmsbfdayNlZ7kDfeU9xTNm3mM7rMIz7Ax/pCbs+/PfvoyvfYdy1tbz0TP3tt1J1MmMNn640x68hrgxrLuNSTvWydQx4d7KX5bjlmzdwhCxfb1OX8kfqfvb2yVxP0hOFYeNM8IF1TNmVyPed9zgOBOV5uC5rxXJ/j6f8cW1Ta2+un/x4SxkdR5QEx5VM3BZ9FZixbsVGoyOfLm7HynHtnEadtnqdvM5YpP/M0x+mLseCDbebN+VWP7jwQtmSQ48PLC3tisDGf9pmfuVd21SPLl1o2YsQOjQNq6sdmfmHk3smbNeStnbk+84HdzC/78Q8dzGfsaddnfEU227Tp2soWNqzt1b6MBdlkM8fasZ/r6Jr7mSPP1MXq3aG+kMkvuKkXnczRZgxzrG+rfpV75FZ+YRO/bcmJufRx+jDH6rCfunJ8am/aPZVv7dmrmz5b2ken9YKMe5RP+8zNelfOnvzm+0gOtmo+/XC//SpH+MJn1bJmPINn3Kt9K6b4NevaMX5lnaAz40g/WJs8HW/55jrMyAv2ss18wcPLUcql7Wkr/UWOfBmf9nPP5JF2Zrx7su5zD9+R+J/flcjs+acOe3UxXtWMcqd669o/JKnbbPMsUR5fqXla+pJ7fZat46mTefStvpvm3jlW55H6z7/FrujZBD1hOKan8YLw4vhFnAWmbLqX6znvM0WLD7bpz1yf4yk/xyuftDX7lWz6j23G8yOb1IcfyGVjPx9bxqLtqVv5uXelX7306ss5dOvrXh7Zk7KM09fVeHJPu/MZ3cjvtWl/yq50XOLDSjYZr/Sv5vTrFO9T62lbnas512ZPPPiXbWWT9ZXenFvtQzfzNL5Mkefgpo74El8dtPqCbOZ7ckzb7FnFspqbepFhjsYXIXb8EuKLZV429G/20z/XVz7MueTEvvTxUp/w1y9E/2j3C37miFwYPz5kDJOvfsnK+OzVbb6dz9jYq53s3ZNxr/Y7Z08doYceHXzH2E6dVcrRz3wwN+PncsMcfLHJM20r7rfF8Z+pk2V0Yd+GjGP9SlYpz7p+sF9f1OWYftVcV/+Uc5064TltTX3KTh3ozrmMb7Un48PGFnfWpuz0iXEyJHfEkm3PP+S27Ks3dV3yzF2I95R3NOsWHau45tzM/bQtW+fn/mkHec5oLsXI8rFNXc4fqf/Z2yt7NUFPGI7paQAEpGNA+qxsupjrOe9zvjDMTX/m+hxP+Tle+aTt2a9k03/insU8dTjGjywy5vGdjy1j8YuQg33VvGC4ttLvGv2pWPbyyP6Mm3H6uhpP7shsNQ4HPtnwN9lM+ynLM+vYzMaBkzpybT6v/PXQQjYvGu7FJgfmqp3ifWp95hcb+HNuvXHZxL9sK5usY2vyh5u2VvsyH6x7kK44pQ88z9phT+aO9czbKhZyi81sU+/MKXFiC9+J14ti6lg9T/+U0a/8ksVm+pWc2Dd9vMQn7Ok/NrL2Zo7IHTHyhYt/afdUvo3P3rMIG9kyNnRaLynjc9pnzsvs1Kk8Pf4TM7rzHCR25tybfuR+nskH69nwhQ8NhjClx0bWzFbcqcvn1OkcdtFnSwbElXWijH36wdzMr2MZuM/edcbWTdYp89iX75Ye5LY4TO4Z32pP8tjjjs2td441WzKiHsyp63v+7dmHCXvf28wt7wMcss24yAm28MeWcTmXfeaWeXT6R7By6vQ9Qye+zL1z7P4j9e/PxIkogJZffP6C4Dbh0NOAigzNAnLsXl8yE+v626bxH2yTGNu8sLCeiZ3j6f/cr0/q5wVJfc7TT1n9N3bjdUxh8dKtmi8/LwKNPdjOF3TGwmHECyM/9vpSwIh11rCL3N4LeiqWvTwad+Zt+sp4K2/Ein7jmHz0TTbIoU822nd97mcMd3jAgoZNv8SUzxids8d31s2lPjmGL/o8vJBnfCom141BhurXvuvaI8/4Y74du86+vdpFjv34y156beqTttWtLfdqa+7TV2PJi4c69/pZK8The4NN8mju0eOBTQ5oxAL7rDfmZ03mWcCe1PmmKP6zVxvYzdryPZx+MUZOvyan6eMpn8K9t0di3mozR1kbME02p/K9sgEf4sZn9s/YmMM/awYW5hR9+IMP1p7v08qWc9iDp3l3PnOlXWtRGXv81Xfm8A9frAVyhV80fXbMHPaJA7/54Atys+ErdrBHw6+sBeYyB+hIv6burF32mt835XH5lbfz9lOeGDIu5PRRFu5d9fo685/20W/to8M9acv1U9zxSe7umX7ldzv84O13OWPsb/m3Z9/caNe6MCbnpz+O3Y8/s1n31olj/LXN3DtvP3OrDnXiH+8iOokfDjzzYc0x+tSV9rVzlP4ml11gAYIPLy8NaIwBSiOBjE0kiXHMfoqUPTy710OPHlnmVw0brrN/+uOBggxrczzleZmR5cMzbfqEv8aWPqFLWddX/ltY2EAX+7Ya/qKTD/5YeDzPWNCBLnSimz3I23ihzAU5sKj1VTn1nIplL48z7unrqbzpGz5vNRgYjyx5EWlpf4svL6ty7EdX8kIP89bB9ANZGMib/SmLfuNEDwf7li/oljc+0fSNefa5br5yXd/wSbnpDzJbtcsa/hoLcdFS19tE/GfPlvtWsaDC2oGLH2yvWjKUH5yxwQc/+BCv6+ihFphDP3LGpI1Zk+zVF9aoPeNwnrE1xlzmW730WVv66PqeXzOn08dTPmnDnprTd3tY0YzNHCVTnpHLGBm7Z1Vb2rQ3x+R18lAmdSKX+WOM/9o89f6gEzv4zPmRTV+sEXSjN+2lPNxZ5zNZsMe6Qq9nle8l63JHznpJ/T5b2yu/Zu7Zk7WTurFpftlHk5t+6TP9bOyf8trXN/bAF7nJd+pjLHPzP+2rH7+xT7PmtJl5QkYdK+7Wr3unT6zLiGea7xv5Ujc9bfp3jn114LcxYZO4TjX2mruUhbl1gq75HmDHuFb7WTe3vut7OlnDf3SaO57lMnWlr0d5vsll9yjB3dMPkn7Oy35Pn57NFocRL9ojmxcLXv5naUeoXXjiR/4hwxwH6pHeK744vCiYf75kqctH1caeT/poD0u/rJzjsgTnL6Hh+zmXhC8hlmfxkbp/9Ln8LCwbx+0IfBkn3O3iv4pmLmH+VfgRhf4F+xEdz7yXv0AffcnkYuNf5x9hTa6P8AVxrdpNFlyoLr08uScvtl7C8gKcdj7y/N5LNDnLOsQ3xlyAr1Ubl8a159PURd3lHxW8T85N2SOO+QULf4/a8O3S2j9qLKf8ou6oH+o/39tT+26x/krcb8HvXJ2rc/rcvY+W62X30Rmo/RIogTcCXBa5iHFZ4MPFZu+fex+BjT90+JLXR/75jovuI/8Iu8QnLyf+syNxcFm5xh9wt85H/rPtl+DvrXk8Wj/vAXW0+mfyR/tW+yUwCfSyO4l0XAIlUAIlUAIlUAIl8DQEetl9mlQ2kBIogRIogRIogRIogUmgl91JpOMSKIESKIESKIESKIGnIdDL7tOksoGUQAmUQAmUQAmUQAlMAr3sTiIdl0AJlEAJlEAJlEAJPA2BXnafJpUNpARKoARKoARKoARKYBLoZXcS6bgESqAESqAESqAESuBpCPSy+zSpbCAlUAIlUAIlUAIlUAKTQC+7k0jHJVACJVACJVACJVACT0Ogl92nSWUDKYHnIcD/mxr/70z+3xkf7f9J7XlIN5ISKIESeH4Cvew+f44bYQl8UQT4v7Tlssv/JSz/98H83wa3lUAJlEAJlMB7CfSy+15yL7jvp59+evu17Uj/v/Tff//9p/7q94LF2JAPSYCzgV/kv/7668P4x78OfPXVV29/QB3GqTpSAiVwVwIPu+z++OOPbwfQDz/8cNeAj2iMLwZ+wbpn0ya/ol3S+DLjVzfyxhcIF+B7N3znQw19++237zbPRZkYjnR5f28wxnLrfMDrm2++ea+bF+0jx/1V9yJkhxHmwvvolmcU7wXn1j2a7+IznCv34FUbJXAPAje57PqXNF9We42LCofipReuPZ2XrJ3r57k6ubByGeAStmpe8HMNHziEOSD5XKvBFl+2dPoLzNb6nh/ki0sIv6i+97JJ3Kd+AVrxwia8vHDv+ZlrKx7GcapOU898liOsr9FWfqbeFRO+yMkHax+JJe1sPfvOYOs9zf2n/DTP1OfR/iA+9Z6/h8vWnlP14D7keJ/gRm7g/KjGO/Gec+Vcf89h4rvtGXVLf6bf2j5V43NfxyVQArcjcJ1v6IV/XEbOedk5lB/5ZXaun4sQfzHFIXfpZTd/JeMQf2+D9TzQuQDNudSPv+fkKPfwTM687MAPPe9p+LZnHxvzEgkj7PGZvPbY498WD/R85FcYvlCnn+/h4Z4tP1lfMSEH/qILU5/Vd+0eVpP9JTbOeefOfS9O1dAlfp0rS+2dqrVzdZ0jt1cP7CffcCAvyPJ57zt5jj+nZMjvrdspJvOMuvU7sYr3o+fKSmfnSqAE3kfgZpfdR3wJvQfBtf2855dgxsuvTcSSbXUBzvVHP1+TPV9mp9jfisfqAvoRtrfy8yM+XXPvNfPOhWLvD6Zr+p26TtVayn70+dnr4T18yuQ91LqnBF6XwM0vu/yFzT+v8eHZxuWELyq+NPh4UePXCWSZ45lDjef5SxK/Hiinjvmlhz3WmNcPxvnLg1+8rqef6Yt+n/onTPT7q6ey/Er1v//7v//yV130GQcx+ouMe/1nOPRu/WLDPOt+5EBPfNhgDZ3EREs26U8+s1fGyYX40I1O5vGRZj7Z517WtZm6eUYGPew3XnOzYs+eFS9k3S8DdM8mD+e34nCdPjlZI9jQT2S87KYfrq/i0FfrJO3xnH7KlBzzLyDmI/fglzrZi02ac+fUUMaZ+WDeRm2aVxhgi6aPzE3b+Qutesy7PLO2kMEO+8wlz+pVBz2MlbHPONTP2p5e85e6lc/Y4Kkf6IQTDHim991lL3K+l8SHnlzXlvphItv5zqCbNeNNP5jXPjqNxZjpZYmevdwqxx4/6J8NP6zDzN1Hz3TtZN3KN2NGbo8J63BwLz4SNy3rgznWjIGcadv3921T/Md19pq7eS5v2UbNuXURJvtYAiVwBQI3vex6iOAnBykHhY01DgWaB7ZrzHPYcuDwBcHBwtgvGr700cXhyjqHGgfPqnkwc8jRPOw8/LC95+eWb/o+beKna+xNv4zLPaxnHDwzZ0MXsREnH/zc+p98IJt70cFedMINTjynP8gjs2qsYc+9yDHHOH0mr6lDm8RqbpBZNW0Yk3zMlWP3Ip+2eWaOpiz9VjMG1k/FkTpO1ZC2/YIkHvJBzmj4yNim/Jav6Scy+WXq3i1dMx+X1NDMh3FrC91bvPEx84yf5IcamE075pl9yNqInw97+aA715WjVzbnUj85kD2y2Eq96PY8SR3qlr3vnzmTK7qoJcbGwxzvjvXAOuN899IWfhEfutmrn8q4jh7WkU1d+IiMDbv4Y+zolYnv2iq3sjFW41EvPbqIBRkaflgTzMuHObm7jzF2iWGe6W/K/vkf1pElJp75ECMf2x6TU+/2ZGH9mS/fX+yumr7BQFZy3bONvkvqYmW7cyVQAu8j8PM38Pv2b+7iQMkD2MNttYEDcnUwpizreZCm7mkr963WODSZp8316SfrK9/0JW3xrJ/syy8k1macfGl5SK58UZc2iFm/nbNHdq5NeQ7zc7nh29SnreyRSZ3T5lyfe/MLjDX2y+0SXspu5UXdWzGd8jNjRFfWkLaNjS+1zB26GduU3/JVhtQiz/ml6151wYova9tcTz+QUbfy2U8GU1fK8py6uRjxRW5D1+qyxPq0k+8cl4fUi7x+cJGYjXj4ZJv6WVvp1S5+T19X8mlj+pj1gC7Ws+FT8sm1mZPp/1yf7/FkwH7s8/ECN3XKVD+mjTlWjhygd/Jy3X7qn2Pk0MP8qs01c6Xs9G8yUY5+xj7H0zfH5/o2fdmyfWldpJ4+l0AJfIzA5yfyx3R9tvucA8W/qDnY+Ng8bBzT5+HHBZEvDr6QuAhw2OQXfu6bfrCWh9Ncn7ZZX/m2dxAaD3uzTd3Kzd49zKed9FsZe2SnvSk/Y51jddGv9LnOoY1ucoAcz7ZTNpWjX9lnv/ou4aVs8kpbPE/f9uLIvVt+Mk/Tdu7J3CHH2Kb8lq/4ifxku7KVsu6hV3c+s38y0Cf6Gad+KsP7xuWai522tOOvVlxKeOaPpbykq+OUHW2qF/nVnPqIh0+2GceWjj29e2vo2+M68438ak6fZ06m/+esJ4OVranT+PSB8xMd5Iw8827nH+LK0ZNj8osMem3ofO+Zrg77yXf6e4rJ3rt9ioW26Fdt+jZ92bK9lRf0tZVACdyWwM3esr0DxV9NkOGXAg8XQ51j5vOA4UDOL1wO2HO/WNGVv1ru+YksB34eRvp26iD0F5CUc69x8mXBwbjVMmZk5qGa++YXz0p+xjrHp/Sxjr/6TR6njunjXE8bqzXy6q9Rl/Ba8U5bPKdvp+LIvSs/s4amn+zN3F1aQ/pJTacd9E5b1L6/hKfPPqcfzKnb9exnnNMWvmCPedrU7a/MxIuurbZnxzxyobLpB/U2G/4QU7apnzX16jtz/lq40ruSTxsz9uRqvvNMwif4rVruZX36f2p9MmA//mWbOmWqDGP8Yx/vt++g66uePXkWsBc7sFvpnz4xRm7V5hrva+7fY3Lq3T6HxbSfPs619GXP9qV1kTb7XAIl8DECn5+IH9P12e75z0p+sSDkQciXAR8PZ78clHVMzwHjF+CpL9N0BN0cyBzANA9Nx3t+pq/I44cH1uqQ1k/XkMW2X6YzLn8lc519fsmoy5jxJS+Cb8HEfzhw+dJjHzEr7zPjGStjdK4avvHlp2/EAjv0uYc1bDrWpjFoM9fTFrryi0M+8nNMTLQ9XqyjCz/JFb7Ohh/yOBVH7kV2r4b00z3mzjjo8e2cGkJH+smerH1tycQvV22ZE/ToB3ts6M78OE8/62HaSj+0m7qxjQw29C/1+4wd6tWmHcfUnTrQMy9zytGTG+SRM64Zh/JTLzbSD+XskfedQj/1R4w8E6fMkUeXtSUH5GmM0eW6+u3Zq+/MTf9Tt+vpdzLAFmv4l23qlDmx0Igz48m9+YwtfWUvcfHOWePM8UEOH9Q/7THPetZP2mFNfsjCAB9te0ywzToNHuxzzNwWC3Uby4rHym90y2TP9qm6IG+ZV/1pXwIl8HECn5+IH9f3poEvQg4rPl46uCww9svDA5neA4SDk5ayjNnDXuZpHpzaoGcvh8lsHD6s8VFOn075qa49X5WhTxuMvajgN7ZmXMTNgW4cPDNHmzHzhaIcemdTPz6wrl5sMtYXdHghVB/j2fAjfYAjDT3GyQHvFwP2po/T5rSBTnTIF73mBtlLeCGPLmKyptKePFiXx1YcuY/nvRpCl35ig5bc1GWM+oYf2J9NP80b6+onPp+xYcM/59GPT7Tpx8yP++lXuVKntuSL38hjCxntoYc5ayX1+3zOO6du6xP7vhfqsUcWf/AD3YzdZz5SFv9c39PLHnRxkTFXXsysG/O34oqscvgGu1Wbe9N/1mY9zHX91Bbyno/6u9qzlVvZ0MNqNhhrCxkZkh/Z0jOWGzqmPfaxzvyqaZ+ej3aQPcWEePUR7nlG7bGwXtxLP9v0e5U/90/b6NqrC7itmE8fOi6BEricwE0uu5e7cdkODpy8FLGbL6XVlyxzPUAu41vpzwm0hj7nsTfiPdy6mO7t69rjCJAvLmj5Y4GXVS6Kj2hccB9l+xHx1mYJlMBtCXyRl10OwrzY+pf8vACDjr+ur3HZ9deBW6Sjf9Hfgur1dH4JNcT7wHvxiIZtfrHiV658Lx/hyzk2ed++BD/PieUaMp5tebn01+G8AF/D1jk6Hn3RPsfHypRACXxZBB7z7fhBRlxq/edFvuD5VWL15YUc63z4Im4rgUsJtIZOE+Pd4x3zn4FP76jE0QjwB53//E4uOV/9n0Hc21f92PqfONzbn9orgRL48gl8kZfdLx97IyiBEiiBEiiBEiiBErgHgV5270G5NkqgBEqgBEqgBEqgBB5CoJfdh2Cv0RIogRIogRIogRIogXsQ6GX3HpRrowRKoARKoARKoARK4CEEetl9CPYaLYESKIESKIESKIESuAeBXnbvQbk2SqAESqAESqAESqAEHkKgl92HYK/REiiBEiiBEiiBEiiBexDoZfcelGujBEqgBEqgBEqgBErgIQR62X0I9hotgRIogRIogRIogRK4B4Fedu9BuTZKoARKoARKoARKoAQeQqCX3Ydgr9ESKIESKIESKIESKIF7EOhl9x6Ua6MESqAESqAESqAESuAhBHrZfQj2Gi2BEiiBEiiBEiiBErgHgV5270G5NkqgBEqgBEqgBEqgBB5CoJfdh2Cv0RIogRIogRIogRIogXsQ6GX3HpRrowRKoARKoARKoARK4CEEetl9CPYaLYESKIESKIESKIESuAeBXnbvQbk2SqAESqAESqAESqAEHkKgl92HYK/REiiBEiiBEiiBEiiBexDoZfcelGujBEqgBEqgBEqgBErgIQR62X0I9hotgRIogRIogRIogRK4B4Fedu9BuTZKoARKoARKoARKoAQeQqCX3Ydgr9ESKIESKIESKIESKIF7EOhl9x6Ua6MESqAESqAESqAESuAhBHrZfQj2Gi2BEiiBEiiBEiiBErgHgV5270G5NkrghQj89re//fSrX/3q0x//+Me3z5/+9KcXir6hlkAJlEAJHI1AL7tHy0j9KYEvmMA//vGPT1x2//a3v3369a9//ek3v/nNFxxNXS+BEiiBEngGAr3sPkMWG0MJvAABLtJcnrlE//TTT4eJmF+wv/rqq7dL/q2c4tdx4oZB27EIfPPNN4eqx2vS+f777z/xaSuBL53AIS67HOD8s+eX/lLhP196/Kp15Pb111+/fXEe2cdb+3aPXHEhox6uXdfoPfr7Qo3d6ldddB/hHfvhhx/e8ks++PCL9i2b/7MQLldcfO/Rfvzxx7cY6a/d1E1cX1LL7yve7S/N/1OsrS/eMd7h/oH1S2JZA79c/XJm7vE9eBQaN7nsfvvtt28HpP+7PYPlgObLfx7UyPNSrb7A+GLbuixoZ2tdu+f2H7XFC0Ac6Lll85ckWPrBLl++2fwyyTn28qUMs49w0+5WTy7JP+u3aKvYLrFzSa6Mgy+B2fjFTQbzS486uMWXBX6glwvWqXbtd+SUPdZhYo3Nmtx7x87RTd6I6ZbtHGbWD7Ei/5F36ZJYqHvyj71Zb5foOVeWsxp7xHvtRg1zTmDjFvrTX/PlewO/99qktsm7/qedvedz6mpv/0fX/P6lhrZa1hfv7nsZbenP+UfzSF8ufcb3rfzzfbDF+Noxf9SW78Wt7yyX8r2F/G1uIp8+vR1gEyAFwMUhXyCekcu5DPTUlyMFd60vmmvZoqBXF/eM66PP+MqHBju++GCLbRu852UzL2wp655ze/Ry4NPSF3/tYp71af9c/afkVrGd2rNaPydXxOEXxbxgEjvc5696yKF7q65Xvqzm5mGGXmxeovea78jKxzm3V2P4/pH3lfqaOZj2rzE+xYz3zS80cn8Pn4gLW+b+I+/vOYyI71Y24Of5gZ28uF/r3c4Y0c+ZTL96X1N27xn2MkHfpbXM+3zpnj1/LlnD93mezP179fXRd3faYnzqPVvtefQcHPfO4FOMrxnztWxR07e+szw6bze77PLScEHIxkHjQZHzH3m+xQu45c89bW354Dy+8MnmRfMeRZu5nb7wZUK7xZdWxnuvZ+IgRmLOLyrnWcv5a/nFBerUYXaOrVv5d47tL1WmzB6XOb4nqPtnbMR1i7PiXFYfOU/m+XeuzT25V3zP7hnzPW3t5fkIazc7Ubhw8WLlxYu/aLgg2FhjDjkuSFyE+auJw4AkMT51OMxkbunUJgcpLy166f1F5hJbXOTdn/F5+TEef7nw8MbX/JWQeRtx84sYe/OzdTCii89s7GUPfsGUcTZ8d17erMsE/2RBbvDrVNvyBR7Yxxf1Yz9b+oM9mSFjLeiv8W7Fx4xw+AAAIABJREFUpl64ukd79PiCH7StXKkje2X5Y8L9rMMJf/Er80RNydB8IC8DfKNlHOjOlszQoR514BPN8V7e9C8ZoP9UMwZi4yM/9sqYWPbqmJrWVurbsp31kLrPqQXsECt+YmurJTPlmdNP9p1iZk1gCz+tW1gwx37mWDMO9GvbutzyEd7sU7+M6dVBvzq/3Mv+jGnagqk5wU4ymHbQuWro10+ePc+JD/3ypWds29LPvPrwiY+17t732NyqH3Vmj2yexcklY8RP+GVcqYfnjFMWspS9Y2SJF7mM0X8pcR0Z1rOlPM/amu8Bez2ztJX+p79ZX+aVPe5L+6tn9mvPWOd3Cn4S/+psMgb50GubmuD5P//zP/81R1zaJA7bzCf7+KhXOfZYe76f6RdysJVF5h9d+Kv9WbPaoDdm5ybzlV/qpfedd+4cWxlH1g575Uw8W+eYtpJrspAp/Z4/xvyI/vOb0JU9AJBf4iSIsY0CBK6JBRxjksLL7Us6C8P99rmuTgtVnerCF3Qjpz/aR1/qUn/2rBMDetHBs7qZY4xe1rCDvA07xCcPfGRsQz59Yy0LSzkKKQvLZ9cZG5OyrjGfPvKsLDLsxWdi4JP+qmPVsydjVUb75oPYsYFumkwceyA6hof+qYue5vhtsPiPB1cuEQ+5OZWr3MMztoiPveYFH+FHY00/GSOjn8wTM439PFsDzLFOnKtmjOpSBh05xxgf8InPzBtr+LqqW3Vu9e7FHv6jh8Pe2sR3xjbk+SDLhzU5IcNasnIfPTbw3fxTD8qeUwvUGTY5sGFCvKuGjMzSzxnHFrNT9YPPmQN8R9d8D7C9au43XzI75/zCjrli31ZtYZd1YsYP64a9fOAzv/jM+fRZefn7npM/dBNH6lN+Sz/xI7/X1HGuzb36mXawD5usDewxJq/mkbgY+x0w9eij3Byj30acOcYuH9qqjlnL80M99OqXyWo/9ozNvOjfqfqavmJzNZc+ae89ZxO8p37qFf/xmTUa/PJ9I37GNnLPB33WuTErY8987mWesbXAs/ky/9hDv3WAX+Riq+G/OszZ1rtwTk5O2brWOTa5JgtrzbN7K/ZHzu+fKB/0DDh+gZC0fEmzWDWDPIVicpjPwlAu+1xf6fRFyD0+517m5lg5+7mOv8ytGnZzbY4tcvdO3XOsnD3rqd/5PBymDbhmDqZP8yU95YM2t3yZ9j28fDnxBx+y4UP6ONfcO3WnHM/aykOEfK3a5DBlsCVrDjSe6T0w9zhNP9nHwWhj79YB4V76bDNPczz9meO9uk07PM+9kxVj7NOIY/piDHwxrPS9Tf7zP/PLN9fmc9rRRsrkes77PNc9rF2fce8xWzFhv23655h+1VbvxUpu+jjH06/UscqV69a4Y3p0Z93mmvHk3OTLGH9op/RnTaXOfL7UZu7lefqX65w/5GDm59Lvl1WcyUE/5MIYznxseWZzpvl96nr25zLJuNCX9lPfrKfpO7KrudQxOU+dczzfs6kfeea4aHn+4j/ztslh2phj99HvfW+s8o+/+EOePONmzKmf57S/qhHWt9613IuuS2whP/mmb5PjHE+u0/Ycp+4jPN/0susXiC9pfqkDEjjZVnMzuSnPc66v9uccfjBmD7b5MLalLueyn+vqUoaXARleRHTzbJuys3AobuTxEU7o2Lr0oRPZ1K8d7Lpv2jDm2ede9tjQn3ycn/2WL9M++7CtDZ6n/pyDA4cBB7I+u3ele/rFXj40fMz628vV1IMtWXsh43CzTU7Ik09k9FtZ/SbPqdf17JWlz4bOnJvj6c8cz1pM3fP51F50YZ+28nfOTX3THmcG3PJXA2QurYXJZNqZ6/qp3PRzMturnyk7dTumXzV8Q8dsl55f04/Ut+cDsfPJtppzXV2O6SffjGmlK+fwG/m9dqnNvfpZ2cEHapBa9A/mlV+rOfVlTM4lB+bmeO5BvxdcnvlstXOZIGfDnjpP1df0VR17PXu27LEv7TPGF+Zs0+bks9ozOVz63br1vYFv+JNtNTdjTnmeM+ZVPDl3Tk6S754t1ibfj5xjvB9cnmne9bzwTz+OMP48czfwyC+t+ZcKF7JZOIDLSwTuZGGs3Mt1dVIgNpKrTi9OJAaZ3HupLeSzcCgaYqXnYM21Kct4vpCM8RMmWUTIrlq+EK5jm/1e6qYN/VN+9vMlnXymvOOVL6xN+8yljVWcrBMHDR7UDXrm3pXuN6H4D3nGBi+gl16WT+UqVLw9YosYbfPXkOQEe2Ig/9hd+Ulc1GrGpu7svVgbv2vJkLk5Tn9Yn+NZm+pd9af2ogv7NP31csCc8VuTU9/KpvuyXi+thclk2pnrvjvKTT+T2an6SVljkVGOZ161TdzomO3S82v6kfrM1coH6tILlnvgke+Q8/TmOOcmX8bGdEq/53jqm8+X2tyrn6k7x/pC/fq89f2S+3iGGZ9syYH5meu5x/OEfBFD2k69PJ/LJHOOPfNyqr6mr9P+ajzrIO0hP8ezZqfNyQcdc8/kwBh2+II+L2grf5nb+t4w/7lvdWeZMac8zxnzqXfhVE4usYXtZPXRcwwe8MQH+KLvyO3ml12SBYwJwpfYA5SXeRY24Dh094ozLx5TJ2OS4MtMkamLF2DqnuOZuLTFGrrQScMG6zTsziJG1nVkeKHg4uGFfB5Cb4p2/jNfegvX+FY2fHHwj4Y95fEDf/KicoqH7iEnB+fojdE5bRgn/pBzck+DIWOZpD/Gp3/qVlYbs0cfNWDM2jEXq1xNHdhaxadcciI284pvxORYeWLBpz2dyrKXQwVG7JOhHOaYfemPY98Bxlm36a82s5+6ci9yxuce4mIPfvGhrjPOqc996sp6RBex0y6phRWTtKM+zx7k8QtfbYy3mDHPOm1VP8TgOjLWqrpl7nvgvD1+Zc3CgNzDUT7sxYZj9s7x9EP99tggZnOFXeLBFrzpaaf8NT700OSf8aFPnqf0a8+a93x4U/7P/1xqc69+Ui/PcPb9wjZ76WHDs3XDGIbGNfWQN/eyRtxTHlvWHXEz5pPNetiyo+wWE2NZ5YWaUS92rSd8mfWkr+hxD/H5juqHvfa0z/zUmfZZx37Gr03W8Al+ue4e9NgmB/iy95K2+t6Y+acmkJMF+lcxT7sZ86l3gVi3cnKpLfxIvvgtN2KDk2Nlczy5EvuX1G5+2SWZW1CAR/HywiBjUgXoYZEHhmv0HAKs5fqeTn3BFs8km708n2uLvRS5hyD72cvYWIiDl4s1fJyy+I4e1j3o2MM4P/OlNvb0VXlkiSPbtMHLkcx4Zo6GH+hiDy1t4P9WS33ssbFH+8jQpo3pDy9W2pIJXJknRnSmbvlpd/bomBzZv5WruZ+xcWR8ymX88Ccm7MGSnjHP2LMxh85zDmAZqGsynOOZN/2TG7FbM8hapxx2s01duZdYMw/mmDnjxw7+ES9t6pv20Gle5l45nFMLk8m0wxj9W36eYkaM+olfMmRfMiJemvUjI/fSrxq8Mga/TOGDLj48751fKz+mLWR452CBL5ydNnTrN2vY22rK4TNN341v8kRmTz/xmxv4rtqlNvfqZ+pHVv306cPe98vUw9jYYSFvdPJMQx9jPjOn6qO+WPc9cn72yPjesGYemKfhg7lmPN/HvfpC3nVjYQ591jnjbNP+tCcb/IMHH/SlTm0iQ83wSfurPZODuVc3PfW119izkjmV/xnztGHM+GAN7L0LGT/PyLKX53NtbfHFvjVBvOeeY9ileXYkV/w7arv5ZfeogR/JLw4xii4vHMxRRBRg23MRIM+rg/QRUXJoHsWXe8bfd+uetGvrIwS85HxExy328h3FRSq/t25h5yM6+936EXrbe7mX8L0BXxt/CHCuHrUd17MbEiNJR/qC9y+qvNhaOLc4SI4W/6lU8wId+S/GU/677uHAX8aZa9cf0eNLHliP8OHeNom3l917U/+lPc+9X650BgL8ckat2h+NCmeyv04ezTf9scbyvL3ld6t2r90f7Tub3OcPdNSpc9eO/Vr6XvKyey1419TDPyP4Twp8EXPA8VK2PQ8BDix+Cdn6Z7/nifTYkfiekYu2EjgqAb4HqNW8qB3V1yP71e/W62eHyy0/lHCGUqd8GB/5j59edq9fB9VYAiVQAiVQAiVQAiVwEAK97B4kEXWjBEqgBEqgBEqgBErg+gR62b0+02osgRIogRIogRIogRI4CIFedg+SiLpRAiVQAiVQAiVQAiVwfQK97F6faTWWQAmUQAmUQAmUQAkchEAvuwdJRN0ogRIogRIogRIogRK4PoFedq/PtBpLoARKoARKoARKoAQOQqCX3YMkom6UQAmUQAmUQAmUQAlcn0Avu9dnWo0lUAIlUAIlUAIlUAIHIdDL7kESUTdKoARKoARKoARKoASuT6CX3eszrcYSKIESKIESKIESKIGDEOhl9yCJqBuPJ/DTTz+9/f9739OTP/7xj2//v+Lff//9Pc1+sbYekaMvFtYBHf/2228//epXv/r0pz/96TDe4dNXX311CJ/g0rPgfqVxxHrcip66ONJ7s+XnUedf+rJL8XDI8QV6j/bjjz++2eOC03YMAuaE/ptvvvn0t7/97e6Oafsjhr00o+vZ2hFydIrp119//ek3v/nNKbHDreM3n3s2zt0ffvjhniaXtnjff/3rX7+t8f486iIBD/4A4HuIXPzjH/9Y+vsKk77r96yPW9YjZ8JH3i/fT7hwMW97P4GbXXZ5eblI+mFMsniRuVC4/n7Xf97pX+YU7VbDj7wIcLBQiMx9pBi37K3msUfsHLCvfKCt2DxqjtxTA+Tm2jk5t8452LM2t1jwhcx7M+sVv32/tvbO+XN9m/suGXsBJz583Hs/9/R+JEf6MJnt2XvPmjzv+SW98vOSeK2ne1/y/B5Y+f/ROfPAeb/XeN+47FKTcHhvbe7ZmGvYnH55wSUHt+QyfcnxJTWT+271DAfOs2ufx1v+foT7HjvOAuI452xf+UZN/Pa3v337bJ0re/ZXOl95bv9E+AAZEpUvNgnPL+S5/gFTb1u5rOwdWPOySxH5iy77fP6oH1v7KUpipsGC8S0asdz6i/0Wfj9CJ3nwEMn8XNOXc+qcWtxr+En95idzjO/Gsadnrp3j29xzyZi4+MLCV97997xj18gRfiSvS2KYsnvvFxctLlCPbufG+4h/yYDRrc4+uZ9T19Yme+6VM99j/aSnnmBC+8ilK3W+5/ncmnmP7vfsee+Zdqmta9TjFjvOHHN7qV/IWw+coTxvtS37W/KvOn+zy+7qxSYpfOnRVusfSQKFxcHx6o2X4lpf7K/O8hrx36LOr5Xfa/t2DV630LF3Qb3U3pfwfl0z3kv5HEH+Ver6mqxfvWY+wvLR7B5t/yPs7rn3rpddvij4BZbmgcRfPvyzPr9acRm2OYccjb3IkNhVy8uusthi/9TFfv5ydJ69/gXmXuzw4XLOx/WVbef8C8xf4NDvvrTHvHGwjn728IwvPONHNv9QUDf9vPQgk+s8G6N/ZKS9+WvgjN397MF/WfBsYw3OyLKODv/5Sdv80qJuZF1HR3JJ39VPnz6nPeJFl8zo1a3tvfpJ2+/JyfRRP4jjnDrPuFJXPme8+Mgn80582oU/rGnEhh+sMSePzB17kcGG6/kOph+uo4tfwtQNb+sOGXTZtnxz3T7zgN70IdfQ73vj3uwzztTDHjiga1XDxGBM7Nv6xdM4kfGDbp7NiUyZo9Grey8X04fUnzH6HmGXj/Ek94/EO/Xjh3nd4pf+Zb2y1/cAmZlLf+mfNlcxaQP9rKObZ+sStr775iDXs6b2fFHfJXWub/QzfvP4hz/84V9+pzx+GQ+ssEuDFXuPUjPkyjzhFzVGy3y8TXz69K+ckIds1g/7zYfvFNxpW3ZSj8/Wv5x4z7B5rk/XqEd88X3j2fohp7T0ZX7fsp75Zw8+0eZ5sHUmIZv2eZYHa/BgzIdGT41t6Vf+nPrbqnV0HLHd7bILYJJJMmhCtegpBBLhAeh6gmPd/RMmh4Jr7JmXKvaqa+qmkNhv45miRY6iYIzMqYacdomDeNGhvXmQWdiuwwJ7yOEvxUSDDf6gU384eFYNH/jYkEdXvmhw2oqHvRk7z8Skr+xjTEM3MZpDX+z0DdvoxHeZ6AvymRf0YG/VJiPrBVv4oS4ZK09vw1bWCGPlfbmN0/1bOVEnvRyM2/yxlnoY6zcscv1tMP4z9bIHPuaXmBkzj+ysY2IlP/ImFsa2U74pZ5+5lDe+8Ix9fMla2PNNnfQzD8anf1s5Sh3Kmj/8UI8cXIMTvtmQ40MMfKjvXFeOXtmcQ15bzGObmMgLPb7pw1Yu8IkP9tlHnvQ3bekD/qEXeWyz16Yt918aL/pSP89bZ4A27dmbNWC9EXfGh078tE2bMybl6H2/ph3H1oLj+c6d8uWSOk+/eCZe49JP8knTL/eYJ9c5P6wbZFw/Qs0QF/7rF37a8DPHxqm8cvTUpDXhPGPqmLZnR3l62XD2OMYHbZ7y6VQNXFKP2EKeRhz4Yc70Ld/PN8F/1gPxZv7RRUMfH/Tx2TuT0j57zzmP0O37qH724TfvJg29+GcsvE+MbTzr76x1ZY7U/1yxV/bKgifxfObh5rpmLRKL1XXHyKFHuO6zJ3msAd0icc296uJQyeLTlvLqcoxe5vYaBYt/2khZ7M39jPVh2mdv6pr25zhtoXfamvGy7guWe3lmDf22aYsxvtE4uHxO+XwhMg5kUv+Me47VSb9am7oZ67vy9LZc/2hO1Em/4uC6fjjeqnPXs1/phR+fVVvlKmWnL3M8fZs2Ju/MJbKX+Ja6qRcOUuxnO5WjU7KuTy4ezKyv3lu5+EWqHvpVjHPOdwReXrimD9pQ94ole1Ztyk7dc3xpvOfoJ7ZV40xj/9b54p5pY45nDO6jn+yYgzM6Vuun6nra/kidz705nn7P70R8R97LxWQw90+/5/gNxj//M9em7jnOmkk9PE8/2IvfNtfpZzMX6KdxxvmOTFn1zHnGk52y2rzEJ/RNPnM8+aRPc+3c71t/MIBBtkvPpGkf3/nYZEGOYL3Sb745i/Vn6pWxerO2mZtj5Y7S/1yhV/ZogpnqV+sJy3V6G+skYNVILut8MtHKpu6Udc9cTzsz6erMfuWv69ibPuWce5WnT384/ChCipTDgr1elHMPz6nXNfWzl+fpi3Lu34udNXyj5bM65lzGMfX7snvw8SLmRVmd9MaQc1M3Y31Xnt6W6ytOOed+99JPe67NmJ2nP6Vnte7+ld70ETkOJubghn8829if42lrjtm3FeNqDd3yZp1x2tvzTR/pqQP2YZsvCup0pW9rbm+etT0OMqC3reZcmzEyP+dWedvzAR1eEomd95x8eunRtj32kvvUPcfGw36f9+I9Rz+5WjX8J4fWon8wMK9frPHJGE7ZTFvGkHPqZm61jj1jPuVLyqJv+saYz6qRNy9vXiBkMP2aDNCXcxkTa3P/vWpG29jjkomPfGz4mWP9lLdy9tQHHxocqXcbe7bsKEOfnBhPm6d8OlUDM+czF+nLXNMXbPC8VSvooEZgSt2gZxXL1tyb8OJ8w17aPMViS/9WXNrdq3VljtT/XLFX9sqEb6ldrVPAzNO8CDlmbhZ46rY4KbD5V5971cXL5MuWOnxWl+OZdOezX/nrOvb4J4Js2NAH/MrDArlkQUzsZ44P+phbNday0JWBCV+erMvBtexPxZ4vDvrwJ31hHVu2jIO5qR9/eGmQI0a/GNxvf4oRcujAPm2Vj1zH7kdyol/0csg5n0/5vVp3b7J2Dn7ml8sk7Oj5wkDeNeTneNqaY/bMfGl3tTZzeYlvqddnYiAnvhencuQ+emQz9lzb42Cd+AcX++SSX8LqW9mZc6u87fmgTd4b+OeXiHazn9yn7jk2HnScE+85+vFzr3EmkEfPAp7JLZxZmzbmeMaQtjIe59GPDtpqPev6lC8pi77pG2Ntad+es8DzjNh5N23Tr1Wese2eyWDuZ3yPmuE9wC/8oX6mH/P8c51+1agBYkcXubCdsqMcvf44N22e8ulUDcycz1xol361Rl7wgbNhi0PqQAYm5P6cdzT3TvunziP1p1/kBKZ55k29Mtb2Xq0rc6R+/8T6gKfCA+yque4aByCwMwGMAUqjCCggErBqHKSumUxs0NTtGF0UlrZIMAViQ5d/nTPHM3M0E47O2fAPPazx4YVCN/aIhT51aF8W6qRHXn9hYGzT5hwjhx/oyBjkt3VIq2cVe+5BP77RPJw8sBhnjmYc7En95Cl168Oq32IkQ/bgV3JivFU/H81J+igHbTO2nvRbeZnot+vMz2YdGwN74CUz7FmX2nSMrqxbxtOWY+1O35ynd409NmwZM3OX+KYOYzJ+uMnuVI7UQa+sXOmtf3qZITvjpmaJBR/4YD/l0w7xzvcr58gDe31H3HsqF9jUd/ds9fhqbMhM3R+Nd6U/eRDvjE9fOVdhQKNuGdPYr8/EOW3M8YzpTck//8N+7JNzGu8JdnxPZn6tXfnu+aLsuXWefvFsvHOesX5hg8a5iTz+0+DK2PXJYO6/V83IG7/4mH/9dJ04mCMP5Efeb8GN/xAn75G1wrJ6tuykCmL3PUQeVmlTXVs+7dUAdi6pR2zn+8F+ahP/5nzGAEf20ogBeWuYZ3yQxd6ZNO2jVzZb59HUj63pK3qZt83626t19xypv9llFxAUH1Bn83Bi3YsSyWScAH2p0MEeksE6z9nQ4V7XtE/CtnQrg173+aKijzk+PPNhzZcoX1J9QZbiQBaf88AkFu2x5kHNXufxkzb9tcj0Q/1bPqAfnWmDl4a5vQNoL3Z0EZ++mjd8wx4+sebLu4pj6sd/9Rkb4+T2BmSHEbZpqxo4VT8fyYl+2Xu4EYf1tOI1c2v85l599jBDhg82jMl8yB7u1iYsZt2iL22d45s+0E+/zSU60YU/5vCUb6mXvb4z7OeZOdtejpSxh4ExwoCan34hq4zMsUfO9J959q4asvP9co792PV9tY5ZVzfcVj7guzL2+DSb3JFB79T90Xj39JtX+RHrbMkRTuyh0bOPD89Zx3s25ZV2rHNtodNzBx7Tv1m7e75MWX1DJ7rZa354ni1rWTlipemXdUeNwVC5rP2Z19X+e9UMfsqanjE+e/bi26n1NwDxH3xnT7Zz7Ciflzj0+M7l99ueT3s1YM6JkTyscqEfWQ9Zq8RCvtMf99iz1/MbW3nuYFP/55r76Vf22ave1XnEvlP6VzHP+t2r9fTxKM83u+weJcBr+0FxzZf02jamPl4C7Gaj0DxEc37r2cNha/0R8xwO8wtzdQg+wrfaLIF7EeCLkS+n/OOVOb7k9r4s7+Xf0ezABDZHa/jFdwO5s3kJc3ytvjXzOUlr4ijvyxG/bz8n9rHRPWv9Y57+vPt4J8bPvv3r6VaHvr8u/MvQGQ/519cZ4lcRIf682PqX27wAr4x5+OL3UQ4C/cS35MkBwXhegJVvXwLPSGD1Re0lKS/Azxj7e2KSzXv23nIPZ3T+0cKF1Llr223NfE50xeNzifuMjvx9uyKAv3m3WMms5qxrz6db1vrK/nvmvojL7nsCe6Y9XGrznww4UM8tUIqZf37If2I5Cpv5Tyn4yUU3fxk5iq/1owRuSYB/0fCfHvnjlvedS13b5wQ4M+Y/p34u8bgR5xZ/rOsfeWSMz7dorZmfqfru0D+yHfn79ppc7l3r1/C9l91rUKyOEiiBEiiBEiiBEiiBQxLoZfeQaalTJVACJVACJVACJVAC1yDQy+41KFZHCZRACZRACZRACZTAIQn0snvItNSpEiiBEiiBEiiBEiiBaxDoZfcaFKujBEqgBEqgBEqgBErgkAR62T1kWupUCZRACZRACZRACZTANQj0snsNitVRAiVQAiVQAiVQAiVwSAK97B4yLXWqBEqgBEqgBEqgBErgGgR62b0GxeoogRIogRIogRIogRI4JIFedg+ZljpVAiVQAiVQAiVQAiVwDQK97F6DYnWUQAmUQAmUQAmUQAkckkAvu4dMS50qgRIogRIogRIogRK4BoFedq9BsTpKoARKoARKoARKoAQOSaCX3UOmpU6VQAmUQAmUQAmUQAlcg0Avu9egWB0lUAIlUAIlUAIlUAKHJNDL7iHTUqdKoARKoARKoARKoASuQaCX3WtQrI4SKIESKIESKIESKIFDEuhl95BpqVMlUAIlUAIlUAIlUALXINDL7jUoVkcJlEAJlEAJlEAJlMAhCfSye8i01KkSKIESKIESKIESKIFrEOhl9xoUq6MESqAESqAESqAESuCQBHrZPWRa6lQJlEAJlEAJlEAJlMA1CPSyew2K1VECJVACJVACJVACJXBIAr3sHjItdaoESqAESqAESqAESuAaBHrZvQbF6iiBEiiBEiiBEiiBEjgkgV52D5mWOlUCJVACJVACJVACJXANAr3sXoNidZRACZRACZRACZRACRySQC+7h0xLnSqBEiiBEiiBEiiBErgGgV52r0GxOkqgBEqgBEqgBEqgBA5JoJfdQ6alTpVACZRACZRACZRACVyDQC+716BYHSVQAiVQAiVQAiVQAock0MvuIdNSp0qgBEqgBEqgBEqgBK5BoJfda1CsjhIogRIogRIogRIogUMS6GX3kGmpUyVQAiVQAiVQAiVQAtcg0MvuNShWRwmUQAmUQAmUQAmUwCEJ9LJ7yLTUqRIogRIogRIogRIogWsQ6GX3GhSrowRKoARKoARKoARK4JAEetk9ZFrqVAmUQAmUQAmUQAmUwDUI9LJ7DYrVUQIlUAIlUAIlUAIlcEgCveweMi11qgRKoARKoARKoARK4BoEetm9BsXqKIESKIESKIESKIESOCSBXnYPmZY6VQIlUAIlUAIlUAIlcA0Cvexeg2J1lEAJlEAJlEAJlEAJHJJAL7uHTEudKoESKIESKIESKIESuAaBXnavQbE6SqAESqAESqAESqAEDkmzmZ/nAAAgAElEQVSgl91DpqVOlUAJlEAJlEAJlEAJXINAL7vXoFgdJVACJVACJVACJVAChyRw1cvud99996mfMmgNtAZaA62B1kBroDXwujVwtBvvVS+7Rwuu/pRACZRACZRACZRACbw2gV52Xzv/jb4ESqAESqAESqAEnppAL7tPnd4GVwIlUAIlUAIlUAKvTaCX3dfOf6MvgRIogRIogRIogacm8NV///d/f7r256mJNbgSKIESKIESKIESKIFfELj2fXLq+4XBMyeu/ssujrWVQAmUQAmUQAmUQAm8FoGj3gF72X2tOmy0JVACJVACJVACJXATAr3s3gRrlZZACZRACZRACZRACRyBQC+7R8hCfSiBEiiBEiiBEiiBErgJgV52b4K1SkugBEqgBEqgBEqgBI5AoJfdI2ShPpRACZRACZRACZRACdyEQC+7N8FapSVQAiVQAiVQAiVQAkcg0MvuEbJQH0qgBEqgBEqgBEqgBG5CoJfdm2Ct0hIogRIogRIogRIogSMQ6GX3CFmoDyVQAiVQAiVQAiVQAjch0MvuTbBWaQmUQAmUQAmUQAlcj8Dvf//7T9999931FL6Qpl52XyjZDbUESqAESqAESuDLI/D3v//903/91399eY4fxONedg+SiLrx/AT4q7ytBEpgn8Dvfve7t1+v/vrXv+4LdrUEnoAAF1h+rf2f//mf3Wi47D6q4Rs+fsmX7Ze87FpcJI+Ph6r/RDDnKTDXlN0qOotCHRQoc+8pVPaoh562eiHO+XJQJvXx/Oc///kXoSjj2l6BT5Yr/35h4J8T2tlav9a8udOeuZhMyK0y9Mad+40v43Zuz19YbtVO+rGS0SfkZsM266s1ZbF9SkbZc/pb+Gscxkov/3N8qszxCViH5tjzxTG99c87d+uWdez7k3WID/MM1q95Vjivz7lvdT7ketY6euTBvjxnnM8ePe4xBn3I/pQeda58TT17z5PJKZ2u7+m8dM0ae+/ZMWNQj3r12Xn8cy3n0m/z497ZIwt3az/35rN6TsnlnnOf8X36lWPqjDj57DX1nJLb07G1BqP0aT6f4vKSl11gkpTV4UBB8cmGHCBJ4NZh4OE1dTKec6l775l9WTQkd/rmfuyfauzNF5KY0Jlz2GPeeFg/VUQw2YpRGxmHuvEX26f0n4rrnPVVXtmH3xm/vqVPxJd559l4jO8U/7SR/uKXe1cc4a8tdKQf6mF9pd9YVmvuvbS/lb8zLuJuez4C1OrMLTWV7xt1y9w9Gu9/1h5+TNu+R76H+uW7n767hl728dk6G9Wb+/El/cm9+JVr6Sfv+OSqLzJXt3HQp3504NNHG34Yk7Ydo9u4ecZmrn3ENvF51mVcl+rEn4zB/caSjM6xmb7wLH/0nOsv+/CLvVkD+vbRPn3cqjPmM/Zpk3X8w0/jmjIfGad99KcN1mjE4fO09bKXXRMzgcwiJ3l7CWY/6+xL+Op9b+LVqR7trAodu6d8ZP+MjTniY/6c/elLPsNy5VfK5PMlsrnvI88eFqlDxhk7PHzxXZ/+pjz6VrrTDvvnHtdzXnuukdd8cdGzqjFkqLNsjD+a19Tn8y38nb4T52Su/fZfNgHq1xr27HlU/n3frOmtL0r880xI+tRovp+upTzPW7V86qzBL2Ro+pqsUi9+8L7Pxj589yyYe8wF+3Jt6jl3nLGzR7+N41p2Vv5cw3/04usqr1m72j9lEx7mjN48sN/8Mr+ypw38QfZWTT/0CR/1mTliRGb1DugT8rnH+Wv2yRofL62pl7zskrgsOhNCspjP5hzzW8mmULfWsJVJ4hldfEiW+tOmz+jcewl4+dSFHvRt+bFlRxa+UOib/moni0sf6dmDntmMdfrkPPs8bJ1LPaxfo23FvuKFP/iyWtvy5ZSfxri133n8zHyjN5nj10rXyj5zcKdfrWvzI/01/dUP8j/rxbX2Xz4BckvdUMerWiZC3gHqgI91nJGzz7rmncjmHtY9U3I9n3m3tIU8e1dty1f2TvvsJz7i5JPv89SNXvafc9bsyWCP9VUM+rjyA3n2XrNNVtidtvfypy/KwMecqsdYJ3vi8WMu2cOcso734kZGef2hJ5/YzsacNvd0sgedxpA6mFev+vQfOePFjvtlwhzPjtlvwx99y971VY+t1KEM8zJZMUxbuV+7snGsXv123p75raatXE89rOMruuTl2Bhy76Ofv7q2A3mrz+IRrj0vmU1AjpGZSRDyORABL3x08kxi0qa26NWdxeM6c7mPMfI5pyw986s1bcAEf5Dh2YZe2ViwrtEju/JPGbgkm2SAPvYqw7M26JOV+t7To98YZp++oZt1/FixWtkm/uQ1ZdAP43MaNpVFJ75kMz85h9z0lTExqIvxtVim7Wv5O3Xu8UzZPn9ZBHinfb/2cmzt0tPYYy3Pd1NZ5NSv7Km6551gv3a2aLKOD6uPttybZ81cU8ZeFvh5qq3effe4H32en6z5frJ3nnOr80V9H+knq/QHvazrr+MtTsixnz32nnfEox7WMnbGed6phznWGE8eGfMqz84ph8/MWcendBrryi5+oY846RmnXuZt2HFNne5ljE+MV0xSj/pmj21szMacXCdDYsKujXHGqV1lGKMDP5OhY/Vs9fiCn7MlB9bgpC/0/+///b/lvqnn3uObXnYBlckwOJJgIVksrjFv0pyjZ56EIb/XsDcTRNLO2YtdCwUb7OOTDd3IkPBVy9hy3Tj1Hzl1uJby83nlS8rgl7ong9yLTPJlzVykvvc8b8U+2Rsv85Pvyi6c9uROradOYs140TvrBb9Shv0rTlNusk27732+pr/6gJ8zZtfaf/kEeP+pzVmfGRl1lbWftcs8n2x5vqDXswsZ7PHZavqS586U9UyY8/iZ+7CLPu155jjPWsqrl/kZ07TFGDn2rNq0iYzvp/bn3hXLle5L5ozJPfiF3+ZkZTPz5z77ZIMuZGXFMzHSJhvsJWvW2S8D1nzWlv3Mq/Pad2x+HU8fnLc3D7LIeXQRl2vo4nnlC37wobHOPljQiMm4k9VcexPe+M9WHFsMZ85Rq1/axRd9lANr6TvjXGO81SZ75dIuc9hMXuyTnXuO0N/0srtKqEmz4LJYSIoFOOEAeGstZQE9X7C9pE1ZbOAHbWWPublH+8bmOHt04gcNOYuSMfPazD35vGcXlupmD7LwojGfaxRh2lrFKGvWVp9VIfsCmVd9V5djeuzzcc9KX8qn/znvc8bj3KqH+5RlnPZX/qILHzI2fc859mZe2WdNrDgyN/1Jv6/pb+qdseRan798AuSXWrSWqaPZqLusg3wPqMusa/Y6x7uS7wtrqWfawQfWlZvvh/LoXK0xl+8IutI+a+6jn7Gyzsf3Nfdq29531XH2rBELDTvq0beMM/fhr/ty3md0bZ0NMlfW3pgc0yOrT6t9qzn2GbM+4g8fmsx4Zt35t8Uxpx59YGzelc9+FQPrmV9s4jdt6k9d+cyelV3n6Wn0xkPvvLpyDl+TH2PjnHGcyjf6jUVb9jJTt2PW06byOccefGQPjTHrPhsrY5618Saw+I+5n+eA+7XDGLupP1ktVD9s6maXXYtrRgbkBENxAIfPXgKEP4tS/SYWPdmQn3OuYy+Txjy+oQt786VBfs6pi559GZtr+qDv6DFW97jmnuzdn3M8GzPrPstJpjM+/HcOX/fimfb2xsSzih2/9M39+Ga8+isPZey3cuc6+7f2KkNPzFv+5X5kpr+rvfqdNtibunLt0ueVTXTgW9o411/tZ6041/55CFA3vDPUJ82zg/lsyOQc5wB7+MwzgXrz3VFOXaxNedfoZ30iq66UY94zIefTT9+5lDNedGY86mC/8u7P90c5et6tlW+s5R7kpqxzqU/fsHvNBquMNePieeYj8zf9wO+MLXkzzzqN55RjLnM241/Jp+2047xxyAsdyPGZMbln9rPeXGc+/cdf6wLd2kTevLl3+jrl9ZE+bbh/9the1dkeQ+RXOdfvzAX2pjzr+omdU4042LNq6LHBMOXw8d/+7d9cPlR/s8suAFaJB5RFBgnkcjyLMmmRpLmf9YSPPgsAvSt5dWIr97Iv5XONWBhnwanHPvc6p43cZyGiUx9ZTw7up0d+Fih75cs6e/kYgwzYr9/MWZjsRSd9+pZ2L3lexa4vqd94Uzfr7M8Y3ascfmZMzuce52aPTRjZco8cWOMZP2ZDHh2zwdLY2CvbKXfp+Fb+4scqvkv9q/xxCVCrWet4al1bw9RsyjCmdpGjZY2413cPOZ+teWw6l2SYQ5fviGvM5buCX2lTOfU7pkduyhJL6vP9XunFF/Yro+4tX11PeZkY19Ze/Mp96vpIT0wZq7aTST7rK3KrlvlEd9YFz8yhgz5jYV/Kph7sMGYPn9lWeUUG/akTuRyjC71bzdyuYk0m7GeMPvZgw1yqQ79d1yZjfMA3255PytibL+05T4+e9J0xfvCBjT6pQx8Ypw+uI6++XE+bW8/ymevohJe+pF/IMv73f//3z/hMHY8aX/2y+x//8R//OpAARvA04DD2Y6IsLudXRZBw2Kesfa5Pfbk2n/VNPfQmEdn0ea9YVj6pUxtpm2JhnX0WZr7Uys5Y1GkvK8cW9vRnpQ8ZfGPvykf3nOqTEbrQS5s+IAdDfaXH31WMc++Wj+jU3pafxph22ZfNfCCTbfo29+X6Xn2kzlPPt/QXVqd4nfKv68ck4DlinVuP811inhrLOlDGOep86jFqZVnn2Xqlz+a8enx3HG/1nmHzrFB3vnPqYC7l0ZFj5LbOGuanrxlLxusZTSzGk2cHdphf+aj/H+mnLeMn1mz4sLWWcnJzDv3GxZw6ct05a4W1qQemyE2/kJ15Ubd6576Uz7y4z36ySf+IiXWb+XFOf/WBsQ2bqct6cC5ZJzv3Z79XZ+cw1D965G34kmz0yTnjZZ9+u3f2xqctGSlnDOpBLnmZr5xz76P7q192Hx1Q7ZdACZRACZRACZTALQnMS6YXwVOX3lv6NHXjS15Yvcx6WZ3yzzw+xGXXBDwz6HvHRoFnkd/bfu2VQAmUQAncn4C/VB7p0vVeCkeNRb/mL5jcZY50kZy/ApMH6sJffd+bly9x3yEuu18iuPpcAiVQAiVQAiXwmgT8kc5/8qc/0kWXrHCxTf94fsWLLix62X3N97RRl0AJlEAJlEAJlMBLEOhl9yXS3CBLoARKoARKoARK4DUJ9LL7mnlv1CVQAiVQAiVQAiXwEgR62X2JNDfIEiiBEiiBEiiBEnhNAr3svmbeG3UJlEAJlEAJlEAJvASBXnZfIs0NsgRKoARKoARKoARek0Avu6+Z90ZdAiVQAiVQAiVQAi9BoJfdl0hzgyyBEiiBEiiBEiiB1yTQy+5r5r1Rl0AJlEAJlEAJlMBLEOhl9yXS3CBLoARKoARKoARK4DUJ9LL7mnlv1CVQAiVQAiVQAiXwEgR62X2JNDfIEiiBEiiBEiiBEnhNAr3svmbeG3UJlEAJlEAJlEAJvASBXnZfIs0NsgRKoARKoARKoARek0Avu6+Z90ZdAiVQAiVQAiVQAi9BoJfdl0hzgyyBEiiBEiiBEiiB1yTQy+5r5r1Rl0AJlEAJlEAJlMBLEOhl9yXS3CBLoARKoARKoARK4DUJ9LL7mnlv1CVQAiVQAiVQAiXwEgR62X2JNDfIEiiBEiiBEiiBEnhNAr3svmbeG3UJlEAJlEAJlEAJvASBXnZfIs0NsgRKoARKoARKoARek0Avu6+Z90ZdAiVQAiVQAiVQAi9BoJfdl0hzgyyBEiiBEiiBEiiB1yTQy+5r5r1Rl0AJlEAJlEAJlMBLEOhl9yXS3CBLoARKoARKoARK4DUJ9LL7mnlv1CVQAiVQAiVQAiXwEgR62X2JNDfIEiiBEiiBEiiBEnhNAr3svmbeG3UJlEAJlEAJlEAJvASBXnZfIs0NsgRKoARKoARKoARek0Avu6+Z90ZdAiVQAiVQAiVQAi9BoJfdl0hzgyyBEiiBEiiBEiiB1yTQy+5r5r1Rl0AJlEAJlEAJlMBLEOhl9yXS3CBLoARKoARKoARK4DUJ9LL7mnlv1CVQAiVQAiVQAiXwEgR62X2JNDfIEiiBEiiBEiiBEnhNAr3svmbeG3UJlEAJlEAJlEAJvASBXnZfIs0NsgRKoARKoARKoARek0Avu6+Z90ZdAiVQAiVQAiVQAi9BoJfdl0hzgyyBEiiBEiiBEiiB1yTQy+5r5r1Rl0AJlEAJlEAJlMBLEOhl9yXS3CBLoARKoARKoARK4DUJ9LL7mnlv1CVQAiVQAiVQAiXwEgR62X2JNDfIEiiBEiiBEiiBEnhNAr3svmbeG3UJlEAJlEAJlEAJvASBXnZfIs0NsgRKoARKoARKoARek0Avu6+Z90ZdAiVQAiVQAiVQAi9BoJfdl0hzgyyBEiiBEiiBEiiB1yTQy+5r5r1Rl0AJlEAJlEAJlMBLEOhl9yXS3CBLoARKoARKoARK4DUJ9LL7mnlv1CVQAiVQAiVQAiXwEgR62X2JNDfIEiiBEiiBEiiBEnhNAr3svmbeG3UJlEAJlEAJlEAJvASBXnZfIs0NsgRKoARKoARKoARek0Avu6+Z90ZdAiVQAiVQAiVQAi9BoJfdl0hzgyyBEiiBEiiBEiiB1yTQy+5r5r1Rl0AJlEAJlEAJlMBLEOhl9yXS3CBLoARKoARKoARK4DUJ9LL7mnlv1CVQAiVQAiVQAiXwEgR62X2JNDfIEiiBEiiBEiiBEnhNAr3svmbeG3UJlEAJlEAJlEAJvASBXnZfIs0NsgRKoARKoARKoARek8BXf/nLXz71UwatgdZAa6A10BpoDbQGWgPPWANf/d///d+nfsqgNdAaaA20BloDrYHWQGvgGWugl91e9vvHTmugNdAaaA20BloDrYGnrYFedlvcT1vcz/jXaWPqry6tgdZAa6A10Bq4rAZ62e1lt5fd1kBroDXQGmgNtAZaA09bA73striftrj7l+9lf/mWV3m1BloDrYHWwDPWQC+7vez2stsaaA20BloDrYHWQGvgaWugl90W99MW9zP+ddqY+qtLa6A10BpoDbQGLquBXnZ72e1ltzXQGmgNtAZaA62B1sDT1kAvuy3upy3u/uV72V++5VVerYHWQGugNfCMNdDLbi+7vey2BloDrYHWQGugNdAaeNoa6GW3xf20xf2Mf502pv7q0hpoDbQGWgOtgctqoJfdXnZ72W0NtAZaA62B1kBroDXwtDXQy26L+2mLu3/5XvaXb3mVV2ugNdAaaA08Yw30stvLbi+7rYHWQGugNdAaaA20Bp62Br76y1/+8qmfMmgNtAZaA62B1kBroDXQGnjGGvjqU1sJlEAJlEAJlEAJlEAJPCmBXnafNLENqwRKoARKoARKoARK4NOnXnZbBSVQAiVQAiVQAiVQAk9LoJfdp01tAyuBEiiBEiiBEiiBEuhltzVQAiVQAiVQAiVQAiXwtAR62X3a1DawEiiBEiiBEiiBEiiBXnZbAyVQAiVQAiVQAiVQAk9LoJfdp01tAyuBEiiBEiiBEiiBEuhltzVQAiVQAiVQAiVQAiXwtAR62X3a1DawEiiBEiiBEiiBEiiBXnZbAyVQAiVQAiVQAiVQAk9LoJfdp01tAyuBEiiBEiiBEiiBEuhltzVQAiVQAiVQAiVQAiXwtAR62X3a1DawEiiBEiiBEiiBEiiBXnZbAyVQAiVQAiVQAiVQAk9LoJfdp01tAyuBEiiBEiiBEiiBEuhltzVQAiVQAiVQAiVQAiXwtAR62X3a1DawEiiBEiiBEiiBEiiBXnZbAyVQAiVQAiVQAiVQAk9LoJfdp01tAyuBEiiBEiiBEiiBEuhltzVQAiVQAiVQAiVQAiXwtAR62X3a1DawEiiBEiiBEiiBEiiBXnZbAyVQAiVQAiVQAiVQAk9LoJfdp01tAyuBEiiBEiiBEiiBEuhltzVQAiVQAiVQAiVQAiXwtAR62X3a1DawEiiBEiiBEiiBEiiBXnZbAyVQAiVQAiVQAiVQAk9LoJfdp01tAyuBEiiBEiiBEiiBEuhltzVQAiVQAiVQAiVQAiXwtAR62X3a1DawEiiBEiiBEiiBEiiBXnZbAyVQAiVQAiVQAiVQAk9LoJfdp01tAyuBEiiBEiiBEiiBEuhltzVQAiVQAiVQAiVQAiXwtAR62X3a1DawEiiBEiiBEiiBEiiBXnZbAyVQAiVQAiVQAiVQAk9LoJfdp01tAyuBEiiBEiiBEiiBEuhltzVQAiVQAiVQAiVQAiXwtAR62X3a1DawEiiBEiiBEiiBEiiBXnZbAyVQAiVQAiVQAiVQAk9LoJfdp01tAyuBEiiBEiiBEiiBEuhltzVQAiVQAiVQAiVQAiXwtAR62X3a1DawEiiBEiiBEiiBEiiBXnZbAyVQAiVQAiVQAiVQAk9LoJfdp01tAyuBEiiBEiiBEiiBEuhltzVQAiVQAiVQAiVQAiXwtAR62X3a1DawEiiBEiiBEiiBEiiBXnZbAyVQAiVQAiVQAiVQAk9LoJfdp01tAyuBEiiBEiiBEiiBEuhltzVQAiVQAiVQAiVQAiXwtAR62X3a1DawEiiBEiiBEiiBEiiBw152//rXv3767rvv3j5///vfv8hM4bcxHDGA3/3ud2/+wfpV2u9///u3mP/85z8fMmTr5Uut+UNCrVMlUAIlUAIvTeCml10vFn6BX3rB4BKGjnMaurVz7p5TevOyqm57Lorntv+vvbM5kqVItvBVARlQAR0QYWRgN2s0QADMWM8Gs1nMDgkwmzUKoAE63GdfPz441ycy66eruqsrj5vVjYwI/z3uGeFVzXtzK3/OtXcJH/GsyEbYeHN8z0ZsKyeX1Bb5eM8YVnjn2j3q5T//+c9f70fm8h62MpY+F4EiUASKwHUIZF+T57bPl9x713lwWip7hUf+4eyuzS4w/etf/zq7YZ2wIntOMgEYXolCOEdO/r3R5iqTeGkTTqPxiARGidv0kSKevoPtuZS6sYVs4ojua5pOc6IfNnLn6ILnkgYPv9NnYsi49OFWI7a29LP3mto2B+mrB1WuYf+SPKdsn4tAESgCReA2CHAWe/9wz+Xdlc+3sXa5Fnzw3sU/7pNHpbs3uwTPJXsNISuQe/KThwIB+FsQhZYJVK/jKRsUg8V6ivet98FpLzc0PGJrvI6nfCVm9G8Req99WdGdfjBPX7dssk68KbvHy17m/hTvLfZP5eQ1NtC9ygnYXYLJa3yobBEoAkWgCJyHQJ7L3EU5z+fztN2ey/4AzTw/8o8kd212zwmehgeAGPnYfNHAMOdyZv+SpgM55G9B2LeoGPUP3fpmA+E8efSbNeKQV9/wdcavHnmdp14bPGXVl36xp+/us8YHXfrmXo7s4xuELX1hbizKO5eHde2wpv/qM2Z5HH1xsKfu9Mln9MlrjalbHn1Cd+7xPGtDf9HLs/Hql2vOtY0t8HUdeQh513KefmgTvrm+ktEOcpBzRp/RtUfIgssk7OuDfqEzyfXEiP2M1ZgZ9Ul/GVOn+/Ki15xNX7Czlef0sc9FoAgUgWdEwPNvdfdccsZ67nrGOt86mz3T5d/DlrvgHL49Hffcu2uzC4B7wecF6KVpMk2ClzN6fN4DBHmbjj2+c/fw0YQz6p/y+IlfXtbMtU9MrjMytzCRPxX/ll5sqAd/fFan9pEX/4kvPO4ZS47sZ9wT+1OxTazQlzrwGR0S/LlvDO7niOyeb8iKCfjAK7nuPO1iP3lnzeFvYsbznBsTdtlTJv1gTT94Jp/Qngz78MnLHP3ocS2fXxTGP9jJ2GLrRU/GgR58kbYwUicjxGhczMET31hDv/klP2lv6keGfTFTr6N+dSwCRaAIHAEBz9EZ62vOWHTyQYfnMfO8J5jv3cXpD3x5b+TeIzzftdkFQMBaEcDkHiDlRTkvXPi9LFf6XDNpzl8zcrlm4le68ZM49A0en42REcrCcU//VvGv9O5d+OjUFnrF36YhCzF160OOxI0tCJ0p61rGk88rHzOf+pP2EjfW0bcidBvjjBd+sM86Qo95Y09ZeKdNdMvLPhhk3OjSr9Srn+g29/Kqj3WfV7pZOyWDvDkRQ+fIs69/+uS48tc98BIX9CZ+6DQm+BMj9pRzb8qynxhOHJBDRh51YocPe6xBxJD2Xhb7TxEoAkXgyRHgDFyd7Z6Xnp/AcM4Ziy71cab6zJ2X5z3r55y5yKTcI6bjbs0u4M9mQQDYy0uR9QSffS84ZZjnxe56jvBk0uce/mx9VnL4lH5YEOpFBn0Wg3P386JmjTkxwHcq/i292FoVlbbFCHl9z2LWN/aRWRE62Jdm3Kzjf8ZgbOxlLpmjT1+Y47+YMYfY1w77W77BY/yM6QN6mKsHnRlHYjd9QvbUPrr1K+N9CSDyazxpG1/0m33zpawyGU/KwJ976EoM1Wf+Uy/PyKZ99821cpm7UxhhP31IG/pjLrQHD3vStAFm6kQ2+XnWT+U7FoEiUASeHQHOxXn2veaM5W6R0O2ZvDrD3ZN/jvjlmT33Hml+t2bXi2oGCyh5obJv0kzm3Gc9kzN1Mmdf+dX+NWuZ+JTXF/z0mf1sQPAlL2piZA7N+Fbxb+ndihN7FK2fLND0A/voSP0vTsU/5GhVvPiNHW0pkrGxhj14pBkvtmfjlTZXttU1Y5mHgPEzThspi43cNyZxYx+/pRkj+pPQhX4IXvbVxdrkZw0ZYz0lk7zIzjpAz1ZOZ2zIS/iVcqn3FEboQN5P4jX9hRc/0hZrYKYcMrnPs3vIiq++dywCRaAIPDsCnIun7g8xOOeMzXN08jP3PGdkvkdTfo/3vffu1uzmJWaQXp5cYF5iNhEAa3PAJefzqglQnyO2TAojxfFassD0Q334ZoPCs3bZZ46c8RkjezwjN/fQj/8z/i292Ei9FiT8PEuJG/qNQ//RkTam3MQQfvRAxqAMc2PTrnyM5kedxoqcxJktmOAAACAASURBVDO+8dki5Of+lBEPdWAbOWKFl2c+1iJ87MHHR5z0WR+NEVkoeVlLu+rXB+bYRgcfcefZePZk0JO+M89coyfn2nUkVu24ps/sSeYO/3g+hRFy4LCilHXfHDhHVpynPX2RlxjRyVgqAkWgCBwFAc7I1bn32jMW/DxT1c8Zzdo55L0m77ly8r/1ePNm10uUy3f14RLzImPfy85n9gBcWfa3KPWcw7+lZ67TGKhvNdoMsJckL2vG5b46UxZ++Xz+73//+z+NS+qdMaufkWKTN3GjkF23mJmTq6Tkkz9HXwh9VjZjy9yxn/7OOXuStpFfkTbwh2cp6w3ZnMOrDfX7Qqaf6FNO3Ixbf7QvZikPb5L6XDMvyKpH/fq3J4Oe5J+2kV1RYq98jlNGDNSXdvQPeTGSnzVxUSdrK0JWH9I/bYkH+TJX6ME+cvCVikARKALPjkCer5x9nrvG/dozFj2ex5673lXodk17OSYfvHzmHZD8j/B882b3EYKqDx8PgUd/UR4JUQ6a98ZrNqMefu/t1yPlqb4UgSJQBD4KAv6gob+zEXb9o45tdj9q5p7Ab14ufqmjUeJTOg8BDqG9b93nabmeC9urb/40wHxKRaAIFIEi8HEQ4EeK+csx3ntHf5xItj1ts7uNTXfujIDfHPtr4HlAg5N/MmJ8T6KpTV94bqP7nhmp7SJQBIrA9Qj4n4rluf5M/9lYm93ra6OSRaAIFIEiUASKQBEoAg+OQJvdB09Q3SsCRaAIFIEiUASKQBG4HoE2u9djV8kiUASKQBEoAkWgCBSBB0egze6DJ6juFYEiUASKQBEoAkWgCFyPwE2b3fwPm/u8/v8zXFyKS2ugNdAaaA20BloDz1wD17el95G8abN7HxertQgUgSJQBIpAESgCRaAIXIdAm93rcKtUESgCRaAIFIEiUASKwAdA4ObN7r///e8PEHZdLAJFoAgUgSJQBIpAEbglAo/aA7bZvWWWq6sIFIEiUASKQBEoAgdFoM3uQRPfsItAESgCRaAIFIEicAQE2uweIcuNsQgUgSJQBIpAESgCB0Wgze5BE9+wi0ARKAJFoAgUgSJwBATa7B4hy42xCBSBIlAEikARKAIHRaDN7kET37CLQBEoAkWgCBSBInAEBNrsHiHLjbEIFIEiUASKQBEoAgdFoM3uQRPfsItAESgCRaAIFIEicAQE2uweIcuNsQgUgSJQBIpAESgCB0Wgze5BE9+wi0ARKAJFoAgUgSJwBATa7B4hy42xCBSBIlAEikARKAIHRaDN7kET37CLQBEoAkWgCBSBInAEBNrsHiHLjbEIFIEiUASKQBEoAgdFoM3uQRPfsItAESgCRaAIFIEicAQE2uweIcuNsQgUgSJQBIpAESgCB0Wgze5BE9+wi0ARKAJFoAgUgSJwBATa7B4hy42xCBSBIlAEikARKAIHRaDN7kET37CLQBEoAkWgCBSBInAEBNrsHiHLjbEIFIEiUASKQBEoAgdFoM3uQRPfsItAESgCRaAIFIEicAQE2uweIcuNsQgUgSJQBIpAESgCB0Wgze5BE9+wi0ARKAJFoAgUgSJwBAQettnFsVt/jpDQxlgEikARKAJFoAgUgSLwNwK37ienvr8tXfb06TL2cheBIlAEikARKAJFoAgUgY+DQJvdj5OreloEikARKAJFoAgUgSJwIQLv1uz+9ttvn7/66qvP33zzzYUul70IPA8CP//88+dPnz59/uGHHx4mqL6bD5OKOlIErkKA8+SXX365SvZRhYjnkc7JR8Wpfq0ReLdmV3e46G9NvBA00r///vutVd9V36+//vrS+DC+B3377bef+dyK+CJzS3238mtPD7Vzj5rcs0m+//GPf+yxvMkeTS6x04BDj+DTmwReI18g8Mcff7ycn0dtLDyHfQ++AOeBJ57f+P/dd99d5Sk6vv7668/UwGvpFnWUdzm+3cKv18Z1D/lH+8HjHjG+t87bd5oXREQz+v33318gcR4rLwSN1ntf1v5Cdm7zxCGDz/d6ofEHGyt/ONj5gnCrXwN++umnF33nNO76dA7veRXwN5e/nJ7TdFOP73HogNU9YhcFLr5z4gIj/ODdAbeP8GWRmiU2augcuqQeztF3Kx7eTfJEPPh4KXGOgoN5e825ih/UAD5dQpeed5fofkteY6em7nUWG4+YgTm2rs0b5zayfDhPriX9ucUXnWvrSN85fziTiE183MvxnvdH2rnnMznj/f0IZ+49cbin7ndtdl/bjHIxUyAr4uBA/3sXDy/qlo/pN7HwQt+L8GF+0hZYXXq5pfx85pA6V595ZLwHcQGc0+xywF/TaLzW52svuEvscoHvXWC8J+5Ts++BwyXxyOv7dUntnFsP2rj3CNY2udc0V8jYDJBndF177qGLd+UaP8DJfNwbs3vpJxfEAFFT8z3gDL2k1k75yTsH1tQkurV9Sm7um39rYe5fMrcGLpGZvOpgvJbAxjvE+Fa6sHHrvKzs3HuNWnvtXQBm59x1947lEfWvO8VH9HThE8VBkT8ycTA+ko+8DI/kD7kTo1teIlkTPQA+vxyA4PBsdE3tPFI94D/NqZf6R8+P+fjocaz85wvEMzRVq9g++lrz8v8Z5EtBm911Nd+tU+TbFsBThHz4UwMH+vyTgzx5EdPEyse4+pUCHi4J9TP++OOPf80N130OYYqAj3L4wxwe/EjiG5Z86phFhLw8W7o8/DP2+e1txisWUz+/2uAL8n5zZo5fW9+gWedXW/jwVR3GmvvwnPMLL/bVh++QesFxlVPtOSa+5gCsMmZ5rQX2J6UtcCNGPuiRbG6sGfb1W570h1j8hQU+MWZN/azv5VS9E19i0TdrUiy3bBr/9FkbicEqN/CBMTi4n36wzzumHvyxBl8bP7oT28R+y6ZxmU/xWcXv+2VtGEPGmjbRzR54oC/zqd2Zs3wnJh6r3KQ8+sVS/TniB/icQ9SN7xmY8Czhl76g0xpzP8ctXFM/foMlsayIdbHGF+vJfKBLfzI+11b5wo77vAvqJ870I2PFtp/pZ+ryDAQbdG29B6kbeXOX8WjPPe3qL+t8Ehf0rmrt1Dugbsat94h4jA+bWa9Tnn38wB/IesJ3aMa/untfGP98j9A1dV5SR1sxYSP38NPzUfs54oM1xXPOyTlz8+J7M2M1n/D/85//fMEJOeJRhzhpO33ULrwrQv+leGUNW1/zfdAWvuiDIzHyjE88ax+ZvbpJOXDXD9alzLP2GM2DfI8y3q3ZBVyTwgsDyIDAZwLC3ELjv13hZSURyOWBM0FDBtkkE+4aiYKHEX+Q0Qd4sSMPyYPwAbvYZ59YZpGr/5Su3Fc3/niIuI8PkEVmUbmvr/63PfiDb/hsfPqUY+YBfg9Fedjnwx4fMCL2U4R9dEn4iR6JZ3PqmiPr1IN4m0d0QM7lFwP3XXfEFj6zTwzM0zftiSl7GaP75sRDxbn7YA8pT04gc4LtScjiT+KLn8SeNYZO+KRpE1tgtkXmTUyNQZ/EiH3WsA2P5PvJHNv5Xk1fLomfWNEtlthEH3SOTf3Ff+X0mRH9+MooncLCeLbqAVt8MmererEeZm6QBSPk8X/6p59gwh7y+MwzmOiXfI7otebQCy80MZi1pDyjsU9c8RV9U3/WSOrBF3xGjjjMpb6ox3fD/Luf+SLuzC1z9COjbrGeeGInc5M+8py6lEW38SOrr/p26ixO36c9dKMTHrDhGZzMKblhLokbczDA3xWhD15xzPcIm3ywxwf9W5gghw8SepGFwNi6xQ46Mi/KMN6ijvZiUn/GCzbO0xee2UMf5H3uHEzYRyfxEy97KUN+mDMSN6M81Ac61EvtQOAFLz6xj96t98V4rDt4WUOOvFqD7DNPPfgFP3b4sO/78OJI/AMfnyRtExPy6IPkxQc+s26U0xY+YlviGR5IbND/qLR+s17prYBabKnOAso9wBe05OWZhGztsW7ilJtr2rNgSKpryjCyr0/oyIKZ85Q7pWvuYz9t+fKlTmx7IE356atzfJy0ykPis9rXni/01Onc4iYeiDhYk/byNg9RbTJC6SPzua8Nx2lr5mvO9V356Q/r5MiXfMrrj/LO9d91Rg/E1V7yTRtzro2UyeeJwayzuc/BxdqKpq1Tvsi/ipE6AksO2j1ShzyrnLiXo3Jpe8Y6sZjxZD2c805MeX3AL+Xz/Zn+6L9y1Ei+R+CFnkmcCeiae7x7nhfIqHfKM9/ClfxgN4k483JzzxgTc/em7Ym9+ymLXWxJzHM/8VNe3jl33XFPFzzo5gOdexanb9pxTF9Zm7XCfOKs7F4sW+/RKhfqyRrUhrWe9ZbntnyMM5bcu0UdbcWEnZV+cPNMTl94zjwbf+aJfT7oxe4q1zR78BA3+KgnbaWdVW6tpZTheRUP6+e8d2kTmb28sDd9mH6i45y6mXITj+nXnGPnkejL0+1GnglKFpuqV3uABLAQRSbIrOeeOhzhYz9prq3suZZy6NFfXigOeQoCfyievExS7pSuU/ur4sy1U/L4soWRsoxS4rPaX60pO0deYF5WMMpfK+AjBmytaPo7baaPyM/9qXPaQp41ac7V5/70h/VcOyWvPsYVIU89gVdeLGCHn+xh7xKfp52JgTHo09xfxUSN4yO+8JFWvLl/Kn5iRi9xoktCbssm+pNXmTmubM9YkUGfWOzFs9I3186Rx15+MrfGoF7njLxL6evc45JmH302MzynLZ+NN3Wwt8KVNfaSVmvs6/dKv3upB73yuu8cvulT8rOf+bRB8j2avzalXXWnrdSlbtbm88vCn7bdX/kun+PUP2tlYorOrXdAnY6r92jl02pNHYxb5/Yld+/MmfpnfKyv1uRfxcTeSv9qTT1ZM6v4pyx5Mq/qmGvqcV+/WIcu6ROmfXWusJlrGRtys8bU5d6MC31zzdiMBdm5NuXc1x7nub9Ik0f89EyS55HGL0+3G3nmgZRAqnq1l4XAYU7jBHg2moC+IooN2aS5ZoLSF9dSLgvK5o01PhxGrK3olK5T++heNYrgAJ2ShwcfVxgpyyjBBz9kLsBaUoZG/xRR6PgP5jRuSXsv5PRXm/p5Tg73bM2XdM61p458aV3DR2M6Ja8+/VfHHI0LbNGNXUbm08aca2PqdD7xRicx6NPcT/3yskZNTFvJi72571xb+jRH9jNm62BlEz7snqKV7Rmr8enfXjznvBPnyGPzFGmLUZq+up4jZxHnA00LxDvoeZF8q+ctXK3NPOeIUxupS7/FM/fMR65lHa5krQNlkp+1mU/iJQ74ODsTP3U4ntKFbj7QqbN45bt2HKevs1aY4xNkrllD9wo79eYIn++RPl1yhm+d25fcvbeoo62YWEe/jZR84OaZ7Jpj5llMsj7ZB2eJXJt316ilfI9W+Ug7l/QJr8ErbeLrrDH9Z1zFNWsQPjHaq5spN/HgzCAu/PMLVPryaM9fdoo39I7gAZ6C8HD2AgAcgIIoXngtRBJpkQMuBeh8uif4JA49jLmGXWRnsZBg1tiHGJmbeHzTn2lzzk/pcl85beEnhN/Y9iXWf/eVn766jw7kt/ylGMkDBP68zPBLYA/G6OeTL4u+aFsZR1+YeWiwv5c3bGBXm160xqRd9MMz97XvOG2Rc9Yk5umjmLoPJuCEPQgsmRv31Dfl9Vf/1cuIXfgh8WLEhj6SFzBxDu+WTX16URj/YAd5941JFvayRhIT/UeWD3zUiLq2fFG38qv40YU8hD7yTj6V2bKJ//B6ZiDjO6JdRnORtk9hkbGnDvXuvRPwbOEhXsjjv/Mt39FFXsi9OBi3vuRITSYezCFw4VkMrKeU9Vn9qQd55uScfYg5cWTNqIORvek3MuZDXuJCr76xzhxMIGynHfl9Z+ABI2uIdyff5RclG/9s6cqY0KU+fME3RsgaXfmOH/Kl+fSV9Vlrvlup39y7x3wSe2LAPpiJIc/YVQ95Maaph7nn0ORhrg1inrGkrlvU0V5M6Kem8RWCl/kKG9b2agyckEWHNHPtPHNtLWtTO9YmelOnulfjtXhNm+jeywv+UA/ImUtGZCadqpspN/EA049Ef3c9N/aaIgVgihBQLRDMkBDX4eMls7ApOp758Cwvz5NIKLLoMrG5xp4vtvvoQDcyHAoQI3PWIZPKmh9i8IJ4Yfrznz1d2HbfS2TaQg0xyoedjNX16St8EHr1HXuTeHnhhQcMmPOsP+JvnNgBQ0jeVdzaIcf4n8QhoL6VT+gzb4zM4TcmdOU+/sx97U1b2NM2e2DpXFwnpugXR3iJSb+nPuwqL4bim/7rH5jLz2gdole5mZc9m9aB+h3BC7+1lTEYG3vonvqJfwvvyXtp/GBunGBrfe3ZxAb78CKD37PGjNt4E/s9LM6pB2IWj/QZm3t4mJuU3/NdfcapLeRXlD4Rr/UMb54h8G3p2MOVc89c4be1uvIF/dQYPiODLGvmw3fD2FiX8FU5ZPCXfZ4n/3y/OSu0gQ4+zPN+0c6WLm2taiFxnBijF0ywic9gmTR9JR59xNbE59Q7kLqRNzfoJDbti6G2ci915DO5m+8UNsCGD8/miedJt6ijvZjQ77lFXHmeTV/EBb8l82Rtkq+Zs1O5Rp9Yo3fW0yV9wrV4TZuzxozXkVogZnOYNeg7mbxgsqqblMMmNPHw/VeecdaUth5hvFuz+wjBXesDBTZf8NXhcK3+jyIHBrwMpcdHgDw98kHzlggWi7dE+21tcfHOS5vGpufU2+ah1v6/+T1qn8APYbxzfuGiHmz+H7U22uwuMjO/ofhtaRb2QvSpls75heCeAfvL8j1tPIvuj/plzBwz3oo+Kha3iv+Z9XDB5rnEL73MZwP8GgysydfoqOzHQOA1uT5yn8APK/yCzPsH0fS69qiZb7O7yAxNbf5ET1L7q9kCqC49BAL55z6+mB2ZisVzZ5/6puH1T6f8aZWc5y9Mz41Ao3sUBI7cJ/ifZfifNvA+8qXzke+fNruP8ubUjyJQBIpAESgCRaAIFIGbI9Bm9+aQVmERKAJFoAgUgSJQBIrAoyDQZvdRMlE/ikARKAJFoAgUgSJQBG6OQJvdm0NahUWgCBSBIlAEikARKAKPgkCb3UfJRP0oAkWgCBSBIlAEikARuDkCbXZvDmkVFoEiUASKQBEoAkWgCDwKAm12HyUT9aMIFIEiUASKQBEoAkXg5gi02b05pFVYBIpAESgCRaAIFIEi8CgItNl9lEzUjyJQBIpAESgCRaAIFIGbI9Bm9+aQVmERKAJFoAgUgSJQBIrAoyDQZvdRMlE/ikARKAJFoAgUgSJQBG6OQJvdm0Nahdcg8Msvv7z8b2tfI/uMMvzvjP/+++/PGFpjKgJFoAgUgSLwpgg8ZbP7ww8/fP706dPn33777U3BPGWM5gW/8O8R6Ntvv/389ddfv5srP/300195+uabbx4uX28JzB9//PH5q6++eqkN6uPnn39+tXl1fvfdd6/W9YgKwAnM+qXgEbNTn4pAESgCj4PAXZpdLmqaOpqpFXH53qrpW+nikqd52rI/fYKfX9J+/fXXufWZXxxpCPGX8TUNNP7gF/YkbKJ7j8ATOfiwzwW/JbPCY6Ubnd9///1fzdWK555r5gh88fkWDQvNz+qLBJiBPZiB3S0aSbExH8RATGB6DSEHFtc2/cQ3Y8cndLK3qu1r/DxHRky2avQcHefwWEO8u6W/EaAOwL5/Hfgbkz4VgSJwbAT2u6xXYMPlzSW7RVzq83Le4j21vqWLy56Ld49oAmweZ0NAA5bNEfqYZ7O6pzv30GVDlOunml2aFS6u9M211JPPW3gkTzYI+PXWRMNpTNTKNZjqM9gSMzitaoo9Y8TuxFM914zYs8lFL7m5lJDXP+p1FcMpnbPZBRMbb/07peOW+6dq9BJbe+8IsbWp+180yT818Z5/uflfr7pSBIpAEXgfBO7W7HJh7zW783J+TfjX6uJCtrFYNUD8mT0vCy4Q+G75y+CpuLNRk3fv8ofnWjzU/5FGcuKXiFXcNI/kDD6JnNpcutbxtgicqtFLrPkF5RKZ8n5+qflrv4AVvyJQBIrAMyHwJs2ul1X+Smpjwq9PHMjzPxGgSfHXOuRsaFbgq8s9LlrW0IvsOb+2wYtcEjr4JKHPBjnXecZn7aIP/yEbMtb4KA8/+ljbIvZmc52NROrwlzx8wMYWtv4apj/8MoYeCJz1ER34x8d9eHg2N+pgnPjBC/bkVj59hFes0G+OrBX2eBYf5V6c3PjHuHObGLCdRLzwTkrb+GPsrBOzcaQvW7mduifmWe+JJza3aj1zY26JI9e1m/bQac3NGI2JdSllzRujOuRjxHd8kM+aJ7+sbeGGLDGYX+SsgdSPX/Jo48cff/zLnrzuWVfoNjb0ihF2iE9KH9Sxqg1k1AGf+dMGdiF5EqstjPSBMWsA/eLInjGxDhaJ0ynd+Je+pM0+F4EiUASOgsCXXcANo+aA9dLgovBy0AR7rrnPRQEx51DnIoI40Jm7/7IY/6DLAx1e9NKEoGersQnxl0cuEi8s99BrDLmmLdcY9VkfuZDQCeG7upF1nT3Wc/4i8Oc/xLDya8rgYzYrzLewRbVx4TMfLlb4JeWxwz5zcJSIRwyME18n6ae+kU90ncqRDYhyjOCQl/y0xRzd+uX+xJt11uBdEXvEx6/6EHGDjbXo/1EduEB7uX1h+PMfbSbm4osO9Z9T6+YWXIxjxs4c37GHzqyjGaN46y9yypJX/DMX8jCim71VzZt74xI360QfnKMDH52nHXjZS0JvrlmHjNQzMhA8YIFePvhrbhnBknVigc9Y0hbP7Nkoq4cYjZNRwqb29zCSX/1iZQ2wvveunKN7L6a03+ciUASKwDMj8OUNcsNIOew5aDmsHVM9a14IrHPQswbZ3CQ/vFxUK5q6kkc/cm31zAWVFxY86NUnZbZsrXxWJkcvR9fm3HVG96ZfrnPZ0ZTMRmT6mNhyUc9Y1UeuoCk/MZzyc24MNA4TP/dynPrnHN5sYFI2n6ff7KEL/5JW+t2fe2LjvnPGSe7NdeY2VlNuVTf4cGmtZ+zm2HxiP/dPxZi8UzZjW/nu/sSCWs06ocnEjyT2bURzHb5VDnNNe6zhP/Yg5ol5xjZxmHN9EM/U4552cw+bxraHkToYeY/xDVt7lD6eoxudfEpFoAgUgSMj8GUXcEMkOJQ59PlwcXv5aCIvHdbyEFdWXvfRtaKpi0uANewic85hD19eWNhBbsquLulT/qGXywxZ7GQcXparuNybfrmurrmPz2AoJbbKpsxc25NHJ7j6K5S/qGVjpd0Vfu7t5Sj9lX/65HqOK55VLe014dO22GjHufgxbuVWGUd0gx114K/UK/9Wa+pYxcheruuj9eEID3QqRhsv3lmaL3w+twnVT31wzogf4sYzfiSt1thf4THXtKd+9aZN1hInYiI2YiRW9oh90pZu+FZ7Gcf0c+p2jn1/3caPfJ+23pVzdKOLT6kIFIEicGQE1t3jDRDhIPaQ9fJMtezBIyU/lxAXRjbI7NMkrCh1cTFwgTFyiaXelaxr81JknYYubeIPfDYqyjLqc67xjA9eflxgXo7yzbnrjO4xJrnOmhd2YpV4wJMY4MOMQX34Cu3Jp030gA9Yr2iVd/hO5Sj9VS92WN+j6Te8NuPGxhq/EtusT33TttjI55zxVG6VmaO1grzPmT98yLpL+VWM7Oe6Oc6YU8c5MWKf/PIubWGl76nbZ3Fyzog+1qGVXvZXtbSyM9e0p37tpk3WEicwpxbg4UO9Zh7UIZ5TN/urPXRZq9NPdW6N2KfpNf9778o5uomXT6kIFIEicGQE7tbsckF6yHKAc3jnpTn/LJ38NhEc+hBz5L1AZsJSFzzMleMCcz7lnOMfF9S8aL3IuFQgfPQSUtZRn/WROba9hLHBh31s8QzZjDlXH6M65yWrjLwzxsQDnsSWOTHAo0/Imyv22ctc8ZwY0qicQ+BJrPrPiK5TOWIfG+APqcf5lm18tGaSB13ECIkd2K5oxiq/vOaT0WdxnLlVhhF80QVZV4zmWL+Zn6r1zI02Zs7QgU7rihq2vrdilNe6VffWqO/EDTGfOCuL7qwFfMscm3N9UI5RnMGLGBhzDRliSv3IaVPcWUucwETf097qGTyJDZ188J94Iex6RuBf5m8Po7QDFupDF3MI/3z3xDfn2DYG91MvdWdtiRljqQgUgSJwJATu0uzanHAQe8FyUTDnoObw5dnLzsufNS8NLiguDflWFzyJUhd86OGjHDIe8B74M7lcBviBPB/m+gyvl5d76N+iFS8XIzqVZ84zPkLatkmYuuFNf7CvjDGBmTrBl+c9bNGhT/B6iWNbXazDx4dnPuZGG64zeuFO/8lB+kv86NzLEbrYl4cxMVjZkBdf8C/rBXv6DF82P6lrFWv6Dq92GE/lNnUnDuhM/86t9cxN4pHrxAAxmmPsmZ+9GK1BfMvc8oyuFa1qHhsTN99/1iGwy3eX/Oj7tJM4i1uu4ZtxuY+OaXPiBO4zTvJq05l+oH+rhsAWPcjChz/EaTwrjFI3z+ZKPeYXHdYcsc3z7JRuZM29soylIlAEisCRELhLs3skAO8dKxesTe29bZ2jn4uSi5lmQ7JpcP7akcsZG6W3R4C8zoaPNZqwZ2uSaIZtKkWa983m0LWPOtK0k7etL3cfNa76XQSKQBG4FIE2u5ci9sb8XMZcWPNSfmM3/jJHI5DNEI2Qa38xvfKBX7Da7L4SxCvFV7/++WVm9YvnlWYeQoz3Khtbf0W99l275xcC/ET/ucR7STNP814qAkWgCBwdgfNPz6Mj9Y7x8+dX/5T5jm68mPYS9c/UXMBcqv7J9rX+2dyjl7hLb48AXzasN/JAw/SMvw5Sa8RGjHyIOZvft0f+NhaJgfeT95L3tVQEikARODoCbXaPXgGNvwgUgSJQBIpAESgCT4xAm90nTm5DKwJFoAgUgSJQBIrA0RFos3v0WTNn0wAAASRJREFUCmj8RaAIFIEiUASKQBF4YgTa7D5xchtaESgCRaAIFIEiUASOjkCb3aNXQOMvAkWgCBSBIlAEisATI9Bm94mT29CKQBEoAkWgCBSBInB0BNrsHr0CGn8RKAJFoAgUgSJQBJ4YgTa7T5zchlYEikARKAJFoAgUgaMj0Gb36BXQ+ItAESgCRaAIFIEi8MQItNl94uQ2tCJQBIpAESgCRaAIHB2BNrtHr4DGXwSKQBEoAkWgCBSBJ0agze4TJ7ehFYEiUASKQBEoAkXg6Ai02T16BTT+IlAEikARKAJFoAg8MQJtdp84uQ2tCBSBIlAEikARKAJHR6DN7tEroPEXgSJQBIpAESgCReCJEWiz+8TJbWhFoAgUgSJQBIpAETg6Av8H16A8nadxT+0AAAAASUVORK5CYII=;" parent="1" vertex="1">
          <mxGeometry x="795" y="34" width="699" height="670" as="geometry" />
        </mxCell>
        <mxCell id="FZKH2oXxmh9ng5c0v4WK-2" value="PRODUCT" style="whiteSpace=wrap;html=1;align=center;" parent="1" vertex="1">
          <mxGeometry x="288" y="241" width="100" height="40" as="geometry" />
        </mxCell>
        <mxCell id="FZKH2oXxmh9ng5c0v4WK-3" value="P-ID" style="ellipse;whiteSpace=wrap;html=1;align=center;fontStyle=4;" parent="1" vertex="1">
          <mxGeometry x="95" y="184" width="100" height="40" as="geometry" />
        </mxCell>
        <mxCell id="FZKH2oXxmh9ng5c0v4WK-4" value="Name" style="ellipse;whiteSpace=wrap;html=1;align=center;" parent="1" vertex="1">
          <mxGeometry x="119" y="134" width="100" height="40" as="geometry" />
        </mxCell>
        <mxCell id="FZKH2oXxmh9ng5c0v4WK-5" value="Cost" style="ellipse;whiteSpace=wrap;html=1;align=center;" parent="1" vertex="1">
          <mxGeometry x="191" y="90" width="100" height="40" as="geometry" />
        </mxCell>
        <mxCell id="FZKH2oXxmh9ng5c0v4WK-6" value="Date_Received" style="ellipse;whiteSpace=wrap;html=1;align=center;" parent="1" vertex="1">
          <mxGeometry x="300" y="80" width="100" height="40" as="geometry" />
        </mxCell>
        <mxCell id="FZKH2oXxmh9ng5c0v4WK-7" value="Price" style="ellipse;whiteSpace=wrap;html=1;align=center;" parent="1" vertex="1">
          <mxGeometry x="394" y="104" width="100" height="40" as="geometry" />
        </mxCell>
        <mxCell id="pDwt1Bv-M4cXN1Q58QGN-1" value="Information" style="ellipse;whiteSpace=wrap;html=1;align=center;" vertex="1" parent="1">
          <mxGeometry x="464" y="144" width="100" height="40" as="geometry" />
        </mxCell>
        <mxCell id="pDwt1Bv-M4cXN1Q58QGN-3" value="Per-Name" style="ellipse;whiteSpace=wrap;html=1;align=center;" vertex="1" parent="1">
          <mxGeometry x="687" y="223" width="100" height="40" as="geometry" />
        </mxCell>
        <mxCell id="pDwt1Bv-M4cXN1Q58QGN-4" value="Per-ID" style="ellipse;whiteSpace=wrap;html=1;align=center;" vertex="1" parent="1">
          <mxGeometry x="684" y="169" width="100" height="40" as="geometry" />
        </mxCell>
        <mxCell id="pDwt1Bv-M4cXN1Q58QGN-5" value="Origin" style="ellipse;whiteSpace=wrap;html=1;align=center;" vertex="1" parent="1">
          <mxGeometry x="684" y="282" width="100" height="40" as="geometry" />
        </mxCell>
        <mxCell id="pDwt1Bv-M4cXN1Q58QGN-6" value="" style="endArrow=none;html=1;rounded=0;entryX=1;entryY=0.5;entryDx=0;entryDy=0;exitX=0.5;exitY=0;exitDx=0;exitDy=0;" edge="1" parent="1" source="FZKH2oXxmh9ng5c0v4WK-2" target="FZKH2oXxmh9ng5c0v4WK-3">
          <mxGeometry relative="1" as="geometry">
            <mxPoint x="493" y="271" as="sourcePoint" />
            <mxPoint x="653" y="271" as="targetPoint" />
          </mxGeometry>
        </mxCell>
        <mxCell id="pDwt1Bv-M4cXN1Q58QGN-7" value="" style="endArrow=none;html=1;rounded=0;entryX=1;entryY=1;entryDx=0;entryDy=0;exitX=0.5;exitY=0;exitDx=0;exitDy=0;" edge="1" parent="1" source="FZKH2oXxmh9ng5c0v4WK-2" target="FZKH2oXxmh9ng5c0v4WK-4">
          <mxGeometry relative="1" as="geometry">
            <mxPoint x="348" y="251" as="sourcePoint" />
            <mxPoint x="205" y="214" as="targetPoint" />
          </mxGeometry>
        </mxCell>
        <mxCell id="pDwt1Bv-M4cXN1Q58QGN-8" value="" style="endArrow=none;html=1;rounded=0;entryX=0.5;entryY=1;entryDx=0;entryDy=0;exitX=0.5;exitY=0;exitDx=0;exitDy=0;" edge="1" parent="1" source="FZKH2oXxmh9ng5c0v4WK-2" target="FZKH2oXxmh9ng5c0v4WK-5">
          <mxGeometry relative="1" as="geometry">
            <mxPoint x="348" y="251" as="sourcePoint" />
            <mxPoint x="214.35533905932743" y="178.14213562373106" as="targetPoint" />
          </mxGeometry>
        </mxCell>
        <mxCell id="pDwt1Bv-M4cXN1Q58QGN-9" value="" style="endArrow=none;html=1;rounded=0;entryX=0.5;entryY=1;entryDx=0;entryDy=0;exitX=0.5;exitY=0;exitDx=0;exitDy=0;" edge="1" parent="1" source="FZKH2oXxmh9ng5c0v4WK-2" target="FZKH2oXxmh9ng5c0v4WK-6">
          <mxGeometry relative="1" as="geometry">
            <mxPoint x="348" y="251" as="sourcePoint" />
            <mxPoint x="251" y="140" as="targetPoint" />
          </mxGeometry>
        </mxCell>
        <mxCell id="pDwt1Bv-M4cXN1Q58QGN-10" value="" style="endArrow=none;html=1;rounded=0;entryX=0;entryY=1;entryDx=0;entryDy=0;exitX=0.5;exitY=0;exitDx=0;exitDy=0;" edge="1" parent="1" source="FZKH2oXxmh9ng5c0v4WK-2" target="FZKH2oXxmh9ng5c0v4WK-7">
          <mxGeometry relative="1" as="geometry">
            <mxPoint x="348" y="251" as="sourcePoint" />
            <mxPoint x="360" y="130" as="targetPoint" />
          </mxGeometry>
        </mxCell>
        <mxCell id="pDwt1Bv-M4cXN1Q58QGN-11" value="" style="endArrow=none;html=1;rounded=0;entryX=0;entryY=0.5;entryDx=0;entryDy=0;exitX=0.5;exitY=0;exitDx=0;exitDy=0;" edge="1" parent="1" source="FZKH2oXxmh9ng5c0v4WK-2" target="pDwt1Bv-M4cXN1Q58QGN-1">
          <mxGeometry relative="1" as="geometry">
            <mxPoint x="348" y="251" as="sourcePoint" />
            <mxPoint x="418.64466094067257" y="148.14213562373106" as="targetPoint" />
          </mxGeometry>
        </mxCell>
        <mxCell id="pDwt1Bv-M4cXN1Q58QGN-13" value="" style="endArrow=none;html=1;rounded=0;entryX=0;entryY=0.5;entryDx=0;entryDy=0;exitX=1;exitY=0.5;exitDx=0;exitDy=0;" edge="1" parent="1" source="pDwt1Bv-M4cXN1Q58QGN-80" target="pDwt1Bv-M4cXN1Q58QGN-4">
          <mxGeometry relative="1" as="geometry">
            <mxPoint x="651" y="266" as="sourcePoint" />
            <mxPoint x="561" y="276" as="targetPoint" />
          </mxGeometry>
        </mxCell>
        <mxCell id="pDwt1Bv-M4cXN1Q58QGN-14" value="" style="endArrow=none;html=1;rounded=0;entryX=0;entryY=0.5;entryDx=0;entryDy=0;exitX=1;exitY=0.5;exitDx=0;exitDy=0;" edge="1" parent="1" source="pDwt1Bv-M4cXN1Q58QGN-80" target="pDwt1Bv-M4cXN1Q58QGN-3">
          <mxGeometry relative="1" as="geometry">
            <mxPoint x="651" y="266" as="sourcePoint" />
            <mxPoint x="694" y="199" as="targetPoint" />
          </mxGeometry>
        </mxCell>
        <mxCell id="pDwt1Bv-M4cXN1Q58QGN-15" value="" style="endArrow=none;html=1;rounded=0;entryX=0;entryY=0.5;entryDx=0;entryDy=0;exitX=1;exitY=0.5;exitDx=0;exitDy=0;fontStyle=1" edge="1" parent="1" source="pDwt1Bv-M4cXN1Q58QGN-80" target="pDwt1Bv-M4cXN1Q58QGN-5">
          <mxGeometry relative="1" as="geometry">
            <mxPoint x="651" y="266" as="sourcePoint" />
            <mxPoint x="697" y="253" as="targetPoint" />
          </mxGeometry>
        </mxCell>
        <mxCell id="pDwt1Bv-M4cXN1Q58QGN-16" value="d" style="ellipse;whiteSpace=wrap;html=1;aspect=fixed;" vertex="1" parent="1">
          <mxGeometry x="318.5" y="344" width="39" height="39" as="geometry" />
        </mxCell>
        <mxCell id="pDwt1Bv-M4cXN1Q58QGN-17" value="PHONE" style="whiteSpace=wrap;html=1;align=center;" vertex="1" parent="1">
          <mxGeometry x="89" y="457" width="100" height="40" as="geometry" />
        </mxCell>
        <mxCell id="pDwt1Bv-M4cXN1Q58QGN-18" value="COMPUTER" style="whiteSpace=wrap;html=1;align=center;" vertex="1" parent="1">
          <mxGeometry x="288" y="457" width="100" height="40" as="geometry" />
        </mxCell>
        <mxCell id="pDwt1Bv-M4cXN1Q58QGN-19" value="ACCESSORY" style="whiteSpace=wrap;html=1;align=center;" vertex="1" parent="1">
          <mxGeometry x="489" y="455" width="100" height="40" as="geometry" />
        </mxCell>
        <mxCell id="pDwt1Bv-M4cXN1Q58QGN-20" value="Screen_Size" style="ellipse;whiteSpace=wrap;html=1;align=center;" vertex="1" parent="1">
          <mxGeometry x="-29" y="267" width="100" height="40" as="geometry" />
        </mxCell>
        <mxCell id="pDwt1Bv-M4cXN1Q58QGN-21" value="" style="endArrow=none;html=1;rounded=0;entryX=1;entryY=1;entryDx=0;entryDy=0;exitX=0;exitY=0.5;exitDx=0;exitDy=0;" edge="1" parent="1" target="pDwt1Bv-M4cXN1Q58QGN-20" source="pDwt1Bv-M4cXN1Q58QGN-17">
          <mxGeometry relative="1" as="geometry">
            <mxPoint x="75" y="485" as="sourcePoint" />
            <mxPoint x="-58" y="458" as="targetPoint" />
          </mxGeometry>
        </mxCell>
        <mxCell id="pDwt1Bv-M4cXN1Q58QGN-22" value="OS" style="ellipse;whiteSpace=wrap;html=1;align=center;" vertex="1" parent="1">
          <mxGeometry x="-73" y="314" width="100" height="40" as="geometry" />
        </mxCell>
        <mxCell id="pDwt1Bv-M4cXN1Q58QGN-23" value="" style="endArrow=none;html=1;rounded=0;entryX=1;entryY=1;entryDx=0;entryDy=0;exitX=0;exitY=0.5;exitDx=0;exitDy=0;" edge="1" parent="1" target="pDwt1Bv-M4cXN1Q58QGN-22" source="pDwt1Bv-M4cXN1Q58QGN-17">
          <mxGeometry relative="1" as="geometry">
            <mxPoint x="57" y="542" as="sourcePoint" />
            <mxPoint x="-90" y="523" as="targetPoint" />
          </mxGeometry>
        </mxCell>
        <mxCell id="pDwt1Bv-M4cXN1Q58QGN-24" value="CPU" style="ellipse;whiteSpace=wrap;html=1;align=center;" vertex="1" parent="1">
          <mxGeometry x="-93" y="363" width="100" height="40" as="geometry" />
        </mxCell>
        <mxCell id="pDwt1Bv-M4cXN1Q58QGN-25" value="" style="endArrow=none;html=1;rounded=0;entryX=1;entryY=0.5;entryDx=0;entryDy=0;exitX=0;exitY=0.5;exitDx=0;exitDy=0;" edge="1" parent="1" target="pDwt1Bv-M4cXN1Q58QGN-24" source="pDwt1Bv-M4cXN1Q58QGN-17">
          <mxGeometry relative="1" as="geometry">
            <mxPoint x="63" y="600" as="sourcePoint" />
            <mxPoint x="-84" y="581" as="targetPoint" />
          </mxGeometry>
        </mxCell>
        <mxCell id="pDwt1Bv-M4cXN1Q58QGN-26" value="Memory" style="ellipse;whiteSpace=wrap;html=1;align=center;" vertex="1" parent="1">
          <mxGeometry x="-88" y="467" width="100" height="40" as="geometry" />
        </mxCell>
        <mxCell id="pDwt1Bv-M4cXN1Q58QGN-27" value="" style="endArrow=none;html=1;rounded=0;entryX=1;entryY=0.5;entryDx=0;entryDy=0;exitX=0;exitY=0.5;exitDx=0;exitDy=0;" edge="1" parent="1" target="pDwt1Bv-M4cXN1Q58QGN-26" source="pDwt1Bv-M4cXN1Q58QGN-17">
          <mxGeometry relative="1" as="geometry">
            <mxPoint x="69" y="707" as="sourcePoint" />
            <mxPoint x="-78" y="688" as="targetPoint" />
          </mxGeometry>
        </mxCell>
        <mxCell id="pDwt1Bv-M4cXN1Q58QGN-28" value="Camera" style="ellipse;whiteSpace=wrap;html=1;align=center;" vertex="1" parent="1">
          <mxGeometry x="-100" y="415" width="100" height="40" as="geometry" />
        </mxCell>
        <mxCell id="pDwt1Bv-M4cXN1Q58QGN-29" value="" style="endArrow=none;html=1;rounded=0;entryX=1;entryY=0.5;entryDx=0;entryDy=0;exitX=0;exitY=0.5;exitDx=0;exitDy=0;" edge="1" parent="1" target="pDwt1Bv-M4cXN1Q58QGN-28" source="pDwt1Bv-M4cXN1Q58QGN-17">
          <mxGeometry relative="1" as="geometry">
            <mxPoint x="78" y="654" as="sourcePoint" />
            <mxPoint x="-69" y="635" as="targetPoint" />
          </mxGeometry>
        </mxCell>
        <mxCell id="pDwt1Bv-M4cXN1Q58QGN-30" value="Battery" style="ellipse;whiteSpace=wrap;html=1;align=center;" vertex="1" parent="1">
          <mxGeometry x="-69" y="515" width="100" height="40" as="geometry" />
        </mxCell>
        <mxCell id="pDwt1Bv-M4cXN1Q58QGN-31" value="" style="endArrow=none;html=1;rounded=0;entryX=1;entryY=0;entryDx=0;entryDy=0;exitX=0;exitY=0.5;exitDx=0;exitDy=0;" edge="1" parent="1" target="pDwt1Bv-M4cXN1Q58QGN-30" source="pDwt1Bv-M4cXN1Q58QGN-17">
          <mxGeometry relative="1" as="geometry">
            <mxPoint x="78" y="771" as="sourcePoint" />
            <mxPoint x="-69" y="752" as="targetPoint" />
          </mxGeometry>
        </mxCell>
        <mxCell id="pDwt1Bv-M4cXN1Q58QGN-33" value="" style="endArrow=none;html=1;rounded=0;exitX=0;exitY=0.5;exitDx=0;exitDy=0;entryX=1;entryY=0;entryDx=0;entryDy=0;" edge="1" parent="1" source="pDwt1Bv-M4cXN1Q58QGN-17">
          <mxGeometry relative="1" as="geometry">
            <mxPoint x="99" y="487" as="sourcePoint" />
            <mxPoint x="35.253889643960065" y="568.8174007179473" as="targetPoint" />
          </mxGeometry>
        </mxCell>
        <mxCell id="pDwt1Bv-M4cXN1Q58QGN-34" value="Screen_Size" style="ellipse;whiteSpace=wrap;html=1;align=center;" vertex="1" parent="1">
          <mxGeometry x="107" y="519" width="100" height="40" as="geometry" />
        </mxCell>
        <mxCell id="pDwt1Bv-M4cXN1Q58QGN-35" value="" style="endArrow=none;html=1;rounded=0;entryX=1;entryY=0;entryDx=0;entryDy=0;exitX=0.5;exitY=1;exitDx=0;exitDy=0;" edge="1" parent="1" target="pDwt1Bv-M4cXN1Q58QGN-34" source="pDwt1Bv-M4cXN1Q58QGN-18">
          <mxGeometry relative="1" as="geometry">
            <mxPoint x="318.5" y="740" as="sourcePoint" />
            <mxPoint x="171.5" y="721" as="targetPoint" />
          </mxGeometry>
        </mxCell>
        <mxCell id="pDwt1Bv-M4cXN1Q58QGN-36" value="OS" style="ellipse;whiteSpace=wrap;html=1;align=center;" vertex="1" parent="1">
          <mxGeometry x="124" y="576" width="100" height="40" as="geometry" />
        </mxCell>
        <mxCell id="pDwt1Bv-M4cXN1Q58QGN-37" value="" style="endArrow=none;html=1;rounded=0;entryX=1;entryY=0;entryDx=0;entryDy=0;exitX=0.5;exitY=1;exitDx=0;exitDy=0;" edge="1" parent="1" target="pDwt1Bv-M4cXN1Q58QGN-36" source="pDwt1Bv-M4cXN1Q58QGN-18">
          <mxGeometry relative="1" as="geometry">
            <mxPoint x="318.5" y="740" as="sourcePoint" />
            <mxPoint x="139.5" y="786" as="targetPoint" />
          </mxGeometry>
        </mxCell>
        <mxCell id="pDwt1Bv-M4cXN1Q58QGN-38" value="CPU" style="ellipse;whiteSpace=wrap;html=1;align=center;" vertex="1" parent="1">
          <mxGeometry x="159" y="628" width="100" height="40" as="geometry" />
        </mxCell>
        <mxCell id="pDwt1Bv-M4cXN1Q58QGN-39" value="" style="endArrow=none;html=1;rounded=0;entryX=0.5;entryY=0;entryDx=0;entryDy=0;exitX=0.5;exitY=1;exitDx=0;exitDy=0;" edge="1" parent="1" target="pDwt1Bv-M4cXN1Q58QGN-38" source="pDwt1Bv-M4cXN1Q58QGN-18">
          <mxGeometry relative="1" as="geometry">
            <mxPoint x="318.5" y="740" as="sourcePoint" />
            <mxPoint x="145.5" y="844" as="targetPoint" />
          </mxGeometry>
        </mxCell>
        <mxCell id="pDwt1Bv-M4cXN1Q58QGN-40" value="Memory" style="ellipse;whiteSpace=wrap;html=1;align=center;" vertex="1" parent="1">
          <mxGeometry x="233" y="664" width="100" height="40" as="geometry" />
        </mxCell>
        <mxCell id="pDwt1Bv-M4cXN1Q58QGN-41" value="" style="endArrow=none;html=1;rounded=0;entryX=0.5;entryY=0;entryDx=0;entryDy=0;exitX=0.5;exitY=1;exitDx=0;exitDy=0;" edge="1" parent="1" target="pDwt1Bv-M4cXN1Q58QGN-40" source="pDwt1Bv-M4cXN1Q58QGN-18">
          <mxGeometry relative="1" as="geometry">
            <mxPoint x="338" y="504" as="sourcePoint" />
            <mxPoint x="151.5" y="951" as="targetPoint" />
          </mxGeometry>
        </mxCell>
        <mxCell id="pDwt1Bv-M4cXN1Q58QGN-42" value="Weight" style="ellipse;whiteSpace=wrap;html=1;align=center;" vertex="1" parent="1">
          <mxGeometry x="343" y="664" width="100" height="40" as="geometry" />
        </mxCell>
        <mxCell id="pDwt1Bv-M4cXN1Q58QGN-43" value="Com_Port" style="ellipse;whiteSpace=wrap;html=1;align=center;" vertex="1" parent="1">
          <mxGeometry x="430" y="624" width="100" height="40" as="geometry" />
        </mxCell>
        <mxCell id="pDwt1Bv-M4cXN1Q58QGN-45" value="" style="endArrow=none;html=1;rounded=0;entryX=0.5;entryY=0;entryDx=0;entryDy=0;exitX=0.5;exitY=1;exitDx=0;exitDy=0;" edge="1" parent="1" source="pDwt1Bv-M4cXN1Q58QGN-18" target="pDwt1Bv-M4cXN1Q58QGN-42">
          <mxGeometry relative="1" as="geometry">
            <mxPoint x="348" y="507" as="sourcePoint" />
            <mxPoint x="344" y="664" as="targetPoint" />
          </mxGeometry>
        </mxCell>
        <mxCell id="pDwt1Bv-M4cXN1Q58QGN-46" value="" style="endArrow=none;html=1;rounded=0;entryX=0;entryY=0;entryDx=0;entryDy=0;exitX=0.5;exitY=1;exitDx=0;exitDy=0;" edge="1" parent="1" source="pDwt1Bv-M4cXN1Q58QGN-18" target="pDwt1Bv-M4cXN1Q58QGN-43">
          <mxGeometry relative="1" as="geometry">
            <mxPoint x="348" y="507" as="sourcePoint" />
            <mxPoint x="404.644660940673" y="639.8578643762694" as="targetPoint" />
          </mxGeometry>
        </mxCell>
        <mxCell id="pDwt1Bv-M4cXN1Q58QGN-47" value="" style="endArrow=none;html=1;rounded=0;entryX=0;entryY=0.5;entryDx=0;entryDy=0;exitX=0.5;exitY=1;exitDx=0;exitDy=0;" edge="1" parent="1" source="pDwt1Bv-M4cXN1Q58QGN-18">
          <mxGeometry relative="1" as="geometry">
            <mxPoint x="348" y="507" as="sourcePoint" />
            <mxPoint x="464" y="591" as="targetPoint" />
          </mxGeometry>
        </mxCell>
        <mxCell id="pDwt1Bv-M4cXN1Q58QGN-49" value="Supported_devices" style="ellipse;shape=doubleEllipse;margin=3;whiteSpace=wrap;html=1;align=center;" vertex="1" parent="1">
          <mxGeometry x="633" y="451" width="136" height="48" as="geometry" />
        </mxCell>
        <mxCell id="pDwt1Bv-M4cXN1Q58QGN-50" value="" style="endArrow=none;html=1;rounded=0;entryX=0;entryY=0.5;entryDx=0;entryDy=0;exitX=1;exitY=0.5;exitDx=0;exitDy=0;" edge="1" parent="1" source="pDwt1Bv-M4cXN1Q58QGN-19" target="pDwt1Bv-M4cXN1Q58QGN-49">
          <mxGeometry relative="1" as="geometry">
            <mxPoint x="599" y="227" as="sourcePoint" />
            <mxPoint x="631.9999999999905" y="263" as="targetPoint" />
          </mxGeometry>
        </mxCell>
        <mxCell id="pDwt1Bv-M4cXN1Q58QGN-51" value="&lt;u&gt;PHONE#&lt;/u&gt;" style="ellipse;whiteSpace=wrap;html=1;align=center;" vertex="1" parent="1">
          <mxGeometry x="-31" y="614" width="100" height="40" as="geometry" />
        </mxCell>
        <mxCell id="pDwt1Bv-M4cXN1Q58QGN-52" value="" style="endArrow=none;html=1;rounded=0;entryX=1;entryY=0;entryDx=0;entryDy=0;" edge="1" parent="1" target="pDwt1Bv-M4cXN1Q58QGN-51">
          <mxGeometry relative="1" as="geometry">
            <mxPoint x="86" y="479" as="sourcePoint" />
            <mxPoint x="45.14552060379947" y="578.7744321365572" as="targetPoint" />
          </mxGeometry>
        </mxCell>
        <mxCell id="pDwt1Bv-M4cXN1Q58QGN-53" value="&lt;u&gt;Com#&lt;/u&gt;" style="ellipse;whiteSpace=wrap;html=1;align=center;" vertex="1" parent="1">
          <mxGeometry x="482" y="519" width="100" height="40" as="geometry" />
        </mxCell>
        <mxCell id="pDwt1Bv-M4cXN1Q58QGN-54" value="" style="endArrow=none;html=1;rounded=0;entryX=0;entryY=0.5;entryDx=0;entryDy=0;exitX=0.5;exitY=1;exitDx=0;exitDy=0;" edge="1" parent="1" source="pDwt1Bv-M4cXN1Q58QGN-18" target="pDwt1Bv-M4cXN1Q58QGN-53">
          <mxGeometry relative="1" as="geometry">
            <mxPoint x="348" y="507" as="sourcePoint" />
            <mxPoint x="474" y="601" as="targetPoint" />
          </mxGeometry>
        </mxCell>
        <mxCell id="pDwt1Bv-M4cXN1Q58QGN-55" value="" style="shape=link;html=1;rounded=0;exitX=0.5;exitY=1;exitDx=0;exitDy=0;entryX=0.5;entryY=0;entryDx=0;entryDy=0;" edge="1" parent="1" source="FZKH2oXxmh9ng5c0v4WK-2" target="pDwt1Bv-M4cXN1Q58QGN-16">
          <mxGeometry relative="1" as="geometry">
            <mxPoint x="275" y="385" as="sourcePoint" />
            <mxPoint x="435" y="385" as="targetPoint" />
          </mxGeometry>
        </mxCell>
        <mxCell id="pDwt1Bv-M4cXN1Q58QGN-57" value="" style="endArrow=none;html=1;rounded=0;entryX=1;entryY=0.5;entryDx=0;entryDy=0;exitX=0.5;exitY=0;exitDx=0;exitDy=0;entryPerimeter=0;" edge="1" parent="1" source="pDwt1Bv-M4cXN1Q58QGN-17" target="pDwt1Bv-M4cXN1Q58QGN-60">
          <mxGeometry relative="1" as="geometry">
            <mxPoint x="275" y="385" as="sourcePoint" />
            <mxPoint x="435" y="385" as="targetPoint" />
          </mxGeometry>
        </mxCell>
        <mxCell id="pDwt1Bv-M4cXN1Q58QGN-58" value="" style="endArrow=none;html=1;rounded=0;entryX=1;entryY=0.5;entryDx=0;entryDy=0;exitX=0.5;exitY=0;exitDx=0;exitDy=0;entryPerimeter=0;" edge="1" parent="1" source="pDwt1Bv-M4cXN1Q58QGN-18" target="pDwt1Bv-M4cXN1Q58QGN-62">
          <mxGeometry relative="1" as="geometry">
            <mxPoint x="149" y="467" as="sourcePoint" />
            <mxPoint x="328.5" y="373.5" as="targetPoint" />
          </mxGeometry>
        </mxCell>
        <mxCell id="pDwt1Bv-M4cXN1Q58QGN-59" value="" style="endArrow=none;html=1;rounded=0;entryX=1;entryY=0.5;entryDx=0;entryDy=0;exitX=0.5;exitY=0;exitDx=0;exitDy=0;entryPerimeter=0;" edge="1" parent="1" source="pDwt1Bv-M4cXN1Q58QGN-19" target="pDwt1Bv-M4cXN1Q58QGN-64">
          <mxGeometry relative="1" as="geometry">
            <mxPoint x="348" y="467" as="sourcePoint" />
            <mxPoint x="348" y="393" as="targetPoint" />
          </mxGeometry>
        </mxCell>
        <mxCell id="pDwt1Bv-M4cXN1Q58QGN-60" value="" style="shape=requiredInterface;html=1;verticalLabelPosition=bottom;rotation=-210;" vertex="1" parent="1">
          <mxGeometry x="222" y="379" width="37" height="43" as="geometry" />
        </mxCell>
        <mxCell id="pDwt1Bv-M4cXN1Q58QGN-61" value="" style="endArrow=none;html=1;rounded=0;entryX=0;entryY=0.5;entryDx=0;entryDy=0;exitX=1;exitY=0.5;exitDx=0;exitDy=0;exitPerimeter=0;" edge="1" parent="1" source="pDwt1Bv-M4cXN1Q58QGN-60" target="pDwt1Bv-M4cXN1Q58QGN-16">
          <mxGeometry relative="1" as="geometry">
            <mxPoint x="149" y="467" as="sourcePoint" />
            <mxPoint x="234.47853002998772" y="419.75" as="targetPoint" />
          </mxGeometry>
        </mxCell>
        <mxCell id="pDwt1Bv-M4cXN1Q58QGN-62" value="" style="shape=requiredInterface;html=1;verticalLabelPosition=bottom;rotation=90;" vertex="1" parent="1">
          <mxGeometry x="319.25" y="399" width="37.5" height="43" as="geometry" />
        </mxCell>
        <mxCell id="pDwt1Bv-M4cXN1Q58QGN-63" value="" style="endArrow=none;html=1;rounded=0;entryX=0.5;entryY=1;entryDx=0;entryDy=0;exitX=1;exitY=0.5;exitDx=0;exitDy=0;exitPerimeter=0;" edge="1" parent="1" source="pDwt1Bv-M4cXN1Q58QGN-62" target="pDwt1Bv-M4cXN1Q58QGN-16">
          <mxGeometry relative="1" as="geometry">
            <mxPoint x="549" y="465" as="sourcePoint" />
            <mxPoint x="367.5" y="373.5" as="targetPoint" />
          </mxGeometry>
        </mxCell>
        <mxCell id="pDwt1Bv-M4cXN1Q58QGN-64" value="" style="shape=requiredInterface;html=1;verticalLabelPosition=bottom;rotation=30;" vertex="1" parent="1">
          <mxGeometry x="426.5" y="383" width="37.5" height="43" as="geometry" />
        </mxCell>
        <mxCell id="pDwt1Bv-M4cXN1Q58QGN-65" value="" style="endArrow=none;html=1;rounded=0;entryX=1;entryY=0.5;entryDx=0;entryDy=0;exitX=1;exitY=0.5;exitDx=0;exitDy=0;exitPerimeter=0;" edge="1" parent="1" source="pDwt1Bv-M4cXN1Q58QGN-64" target="pDwt1Bv-M4cXN1Q58QGN-16">
          <mxGeometry relative="1" as="geometry">
            <mxPoint x="458" y="399" as="sourcePoint" />
            <mxPoint x="470.6091008304188" y="410.25455818158207" as="targetPoint" />
          </mxGeometry>
        </mxCell>
        <mxCell id="pDwt1Bv-M4cXN1Q58QGN-66" value="ACC_GROUP" style="whiteSpace=wrap;html=1;align=center;" vertex="1" parent="1">
          <mxGeometry x="651" y="712" width="100" height="40" as="geometry" />
        </mxCell>
        <mxCell id="pDwt1Bv-M4cXN1Q58QGN-67" value="BELONG_TO" style="shape=rhombus;perimeter=rhombusPerimeter;whiteSpace=wrap;html=1;align=center;" vertex="1" parent="1">
          <mxGeometry x="615" y="563" width="120" height="60" as="geometry" />
        </mxCell>
        <mxCell id="pDwt1Bv-M4cXN1Q58QGN-68" value="" style="shape=link;html=1;rounded=0;entryX=0.5;entryY=0;entryDx=0;entryDy=0;exitX=1;exitY=1;exitDx=0;exitDy=0;" edge="1" parent="1" source="pDwt1Bv-M4cXN1Q58QGN-19" target="pDwt1Bv-M4cXN1Q58QGN-67">
          <mxGeometry relative="1" as="geometry">
            <mxPoint x="461" y="536" as="sourcePoint" />
            <mxPoint x="621" y="536" as="targetPoint" />
          </mxGeometry>
        </mxCell>
        <mxCell id="pDwt1Bv-M4cXN1Q58QGN-69" value="N" style="resizable=0;html=1;align=right;verticalAlign=bottom;" connectable="0" vertex="1" parent="pDwt1Bv-M4cXN1Q58QGN-68">
          <mxGeometry x="1" relative="1" as="geometry">
            <mxPoint x="8" y="-4" as="offset" />
          </mxGeometry>
        </mxCell>
        <mxCell id="pDwt1Bv-M4cXN1Q58QGN-72" value="" style="endArrow=none;html=1;rounded=0;exitX=0.5;exitY=1;exitDx=0;exitDy=0;entryX=0.5;entryY=0;entryDx=0;entryDy=0;" edge="1" parent="1" source="pDwt1Bv-M4cXN1Q58QGN-67" target="pDwt1Bv-M4cXN1Q58QGN-66">
          <mxGeometry relative="1" as="geometry">
            <mxPoint x="526" y="760" as="sourcePoint" />
            <mxPoint x="686" y="760" as="targetPoint" />
          </mxGeometry>
        </mxCell>
        <mxCell id="pDwt1Bv-M4cXN1Q58QGN-73" value="1" style="resizable=0;html=1;align=right;verticalAlign=bottom;" connectable="0" vertex="1" parent="pDwt1Bv-M4cXN1Q58QGN-72">
          <mxGeometry x="1" relative="1" as="geometry">
            <mxPoint x="10" y="-3" as="offset" />
          </mxGeometry>
        </mxCell>
        <mxCell id="pDwt1Bv-M4cXN1Q58QGN-74" value="Quantity" style="ellipse;whiteSpace=wrap;html=1;align=center;dashed=1;" vertex="1" parent="1">
          <mxGeometry x="500" y="745" width="100" height="40" as="geometry" />
        </mxCell>
        <mxCell id="pDwt1Bv-M4cXN1Q58QGN-75" value="" style="endArrow=none;html=1;rounded=0;exitX=1;exitY=0.5;exitDx=0;exitDy=0;entryX=0;entryY=0.5;entryDx=0;entryDy=0;" edge="1" parent="1" source="pDwt1Bv-M4cXN1Q58QGN-74" target="pDwt1Bv-M4cXN1Q58QGN-66">
          <mxGeometry relative="1" as="geometry">
            <mxPoint x="664" y="590" as="sourcePoint" />
            <mxPoint x="824" y="590" as="targetPoint" />
          </mxGeometry>
        </mxCell>
        <mxCell id="pDwt1Bv-M4cXN1Q58QGN-76" value="AG-ID" style="ellipse;whiteSpace=wrap;html=1;align=center;fontStyle=4;" vertex="1" parent="1">
          <mxGeometry x="500" y="687" width="100" height="40" as="geometry" />
        </mxCell>
        <mxCell id="pDwt1Bv-M4cXN1Q58QGN-77" value="" style="endArrow=none;html=1;rounded=0;exitX=1;exitY=0.5;exitDx=0;exitDy=0;entryX=0;entryY=0.5;entryDx=0;entryDy=0;" edge="1" parent="1" source="pDwt1Bv-M4cXN1Q58QGN-76" target="pDwt1Bv-M4cXN1Q58QGN-66">
          <mxGeometry relative="1" as="geometry">
            <mxPoint x="610" y="775" as="sourcePoint" />
            <mxPoint x="661" y="742" as="targetPoint" />
          </mxGeometry>
        </mxCell>
        <mxCell id="pDwt1Bv-M4cXN1Q58QGN-78" value="Other" style="ellipse;shape=doubleEllipse;margin=3;whiteSpace=wrap;html=1;align=center;" vertex="1" parent="1">
          <mxGeometry x="-51" y="563" width="100" height="40" as="geometry" />
        </mxCell>
        <mxCell id="pDwt1Bv-M4cXN1Q58QGN-79" value="Other" style="ellipse;shape=doubleEllipse;margin=3;whiteSpace=wrap;html=1;align=center;" vertex="1" parent="1">
          <mxGeometry x="464" y="573" width="100" height="40" as="geometry" />
        </mxCell>
        <mxCell id="pDwt1Bv-M4cXN1Q58QGN-80" value="Producer" style="whiteSpace=wrap;html=1;align=center;" vertex="1" parent="1">
          <mxGeometry x="551" y="241" width="100" height="40" as="geometry" />
        </mxCell>
        <mxCell id="pDwt1Bv-M4cXN1Q58QGN-81" value="BELONG_TO" style="shape=rhombus;perimeter=rhombusPerimeter;whiteSpace=wrap;html=1;align=center;" vertex="1" parent="1">
          <mxGeometry x="408" y="231" width="120" height="60" as="geometry" />
        </mxCell>
        <mxCell id="pDwt1Bv-M4cXN1Q58QGN-82" value="" style="shape=link;html=1;rounded=0;exitX=1;exitY=0.5;exitDx=0;exitDy=0;entryX=0;entryY=0.5;entryDx=0;entryDy=0;" edge="1" parent="1" source="FZKH2oXxmh9ng5c0v4WK-2" target="pDwt1Bv-M4cXN1Q58QGN-81">
          <mxGeometry relative="1" as="geometry">
            <mxPoint x="366" y="267" as="sourcePoint" />
            <mxPoint x="526" y="267" as="targetPoint" />
          </mxGeometry>
        </mxCell>
        <mxCell id="pDwt1Bv-M4cXN1Q58QGN-83" value="N" style="resizable=0;html=1;align=right;verticalAlign=bottom;" connectable="0" vertex="1" parent="pDwt1Bv-M4cXN1Q58QGN-82">
          <mxGeometry x="1" relative="1" as="geometry" />
        </mxCell>
        <mxCell id="pDwt1Bv-M4cXN1Q58QGN-84" value="" style="shape=link;html=1;rounded=0;entryX=1;entryY=0.5;entryDx=0;entryDy=0;exitX=0;exitY=0.5;exitDx=0;exitDy=0;" edge="1" parent="1" source="pDwt1Bv-M4cXN1Q58QGN-80" target="pDwt1Bv-M4cXN1Q58QGN-81">
          <mxGeometry relative="1" as="geometry">
            <mxPoint x="366" y="267" as="sourcePoint" />
            <mxPoint x="526" y="267" as="targetPoint" />
          </mxGeometry>
        </mxCell>
        <mxCell id="pDwt1Bv-M4cXN1Q58QGN-85" value="1" style="resizable=0;html=1;align=right;verticalAlign=bottom;" connectable="0" vertex="1" parent="pDwt1Bv-M4cXN1Q58QGN-84">
          <mxGeometry x="1" relative="1" as="geometry" />
        </mxCell>
      </root>
    </mxGraphModel>
  </diagram>
</mxfile>
